G04 #@! TF.GenerationSoftware,KiCad,Pcbnew,(5.1.2)-1*
G04 #@! TF.CreationDate,2025-02-08T22:23:42+09:00*
G04 #@! TF.ProjectId,ss,73732e6b-6963-4616-945f-706362585858,rev?*
G04 #@! TF.SameCoordinates,Original*
G04 #@! TF.FileFunction,Soldermask,Bot*
G04 #@! TF.FilePolarity,Negative*
%FSLAX46Y46*%
G04 Gerber Fmt 4.6, Leading zero omitted, Abs format (unit mm)*
G04 Created by KiCad (PCBNEW (5.1.2)-1) date 2025-02-08 22:23:42*
%MOMM*%
%LPD*%
G04 APERTURE LIST*
%ADD10C,0.100000*%
G04 APERTURE END LIST*
D10*
G36*
X103375256Y-95391298D02*
G01*
X103481579Y-95412447D01*
X103782042Y-95536903D01*
X104052451Y-95717585D01*
X104282415Y-95947549D01*
X104463097Y-96217958D01*
X104587553Y-96518421D01*
X104651000Y-96837391D01*
X104651000Y-97162609D01*
X104587553Y-97481579D01*
X104463097Y-97782042D01*
X104282415Y-98052451D01*
X104052451Y-98282415D01*
X103782042Y-98463097D01*
X103481579Y-98587553D01*
X103375256Y-98608702D01*
X103162611Y-98651000D01*
X102837389Y-98651000D01*
X102624744Y-98608702D01*
X102518421Y-98587553D01*
X102217958Y-98463097D01*
X101947549Y-98282415D01*
X101717585Y-98052451D01*
X101536903Y-97782042D01*
X101412447Y-97481579D01*
X101349000Y-97162609D01*
X101349000Y-96837391D01*
X101412447Y-96518421D01*
X101536903Y-96217958D01*
X101717585Y-95947549D01*
X101947549Y-95717585D01*
X102217958Y-95536903D01*
X102518421Y-95412447D01*
X102624744Y-95391298D01*
X102837389Y-95349000D01*
X103162611Y-95349000D01*
X103375256Y-95391298D01*
X103375256Y-95391298D01*
G37*
G36*
X105717747Y-89690921D02*
G01*
X105797376Y-89698764D01*
X105950627Y-89745252D01*
X105950630Y-89745253D01*
X106091863Y-89820744D01*
X106215659Y-89922341D01*
X106317256Y-90046137D01*
X106392747Y-90187370D01*
X106392748Y-90187373D01*
X106439236Y-90340624D01*
X106454933Y-90500000D01*
X106439236Y-90659376D01*
X106392748Y-90812627D01*
X106392747Y-90812630D01*
X106317256Y-90953863D01*
X106215659Y-91077659D01*
X106091863Y-91179256D01*
X105950630Y-91254747D01*
X105950627Y-91254748D01*
X105797376Y-91301236D01*
X105717747Y-91309079D01*
X105677934Y-91313000D01*
X105322066Y-91313000D01*
X105282253Y-91309079D01*
X105202624Y-91301236D01*
X105049373Y-91254748D01*
X105049370Y-91254747D01*
X104908137Y-91179256D01*
X104784341Y-91077659D01*
X104682744Y-90953863D01*
X104607253Y-90812630D01*
X104607252Y-90812627D01*
X104560764Y-90659376D01*
X104545067Y-90500000D01*
X104560764Y-90340624D01*
X104607252Y-90187373D01*
X104607253Y-90187370D01*
X104682744Y-90046137D01*
X104784341Y-89922341D01*
X104908137Y-89820744D01*
X105049370Y-89745253D01*
X105049373Y-89745252D01*
X105202624Y-89698764D01*
X105282253Y-89690921D01*
X105322066Y-89687000D01*
X105677934Y-89687000D01*
X105717747Y-89690921D01*
X105717747Y-89690921D01*
G37*
G36*
X105717747Y-87690921D02*
G01*
X105797376Y-87698764D01*
X105950627Y-87745252D01*
X105950630Y-87745253D01*
X106091863Y-87820744D01*
X106215659Y-87922341D01*
X106317256Y-88046137D01*
X106392747Y-88187370D01*
X106392748Y-88187373D01*
X106439236Y-88340624D01*
X106454933Y-88500000D01*
X106439236Y-88659376D01*
X106392748Y-88812627D01*
X106392747Y-88812630D01*
X106317256Y-88953863D01*
X106215659Y-89077659D01*
X106091863Y-89179256D01*
X105950630Y-89254747D01*
X105950627Y-89254748D01*
X105797376Y-89301236D01*
X105717747Y-89309079D01*
X105677934Y-89313000D01*
X105322066Y-89313000D01*
X105282253Y-89309079D01*
X105202624Y-89301236D01*
X105049373Y-89254748D01*
X105049370Y-89254747D01*
X104908137Y-89179256D01*
X104784341Y-89077659D01*
X104682744Y-88953863D01*
X104607253Y-88812630D01*
X104607252Y-88812627D01*
X104560764Y-88659376D01*
X104545067Y-88500000D01*
X104560764Y-88340624D01*
X104607252Y-88187373D01*
X104607253Y-88187370D01*
X104682744Y-88046137D01*
X104784341Y-87922341D01*
X104908137Y-87820744D01*
X105049370Y-87745253D01*
X105049373Y-87745252D01*
X105202624Y-87698764D01*
X105282253Y-87690921D01*
X105322066Y-87687000D01*
X105677934Y-87687000D01*
X105717747Y-87690921D01*
X105717747Y-87690921D01*
G37*
G36*
X105717747Y-85690921D02*
G01*
X105797376Y-85698764D01*
X105950627Y-85745252D01*
X105950630Y-85745253D01*
X106091863Y-85820744D01*
X106215659Y-85922341D01*
X106317256Y-86046137D01*
X106392747Y-86187370D01*
X106392748Y-86187373D01*
X106439236Y-86340624D01*
X106454933Y-86500000D01*
X106439236Y-86659376D01*
X106392748Y-86812627D01*
X106392747Y-86812630D01*
X106317256Y-86953863D01*
X106215659Y-87077659D01*
X106091863Y-87179256D01*
X105950630Y-87254747D01*
X105950627Y-87254748D01*
X105797376Y-87301236D01*
X105717747Y-87309079D01*
X105677934Y-87313000D01*
X105322066Y-87313000D01*
X105282253Y-87309079D01*
X105202624Y-87301236D01*
X105049373Y-87254748D01*
X105049370Y-87254747D01*
X104908137Y-87179256D01*
X104784341Y-87077659D01*
X104682744Y-86953863D01*
X104607253Y-86812630D01*
X104607252Y-86812627D01*
X104560764Y-86659376D01*
X104545067Y-86500000D01*
X104560764Y-86340624D01*
X104607252Y-86187373D01*
X104607253Y-86187370D01*
X104682744Y-86046137D01*
X104784341Y-85922341D01*
X104908137Y-85820744D01*
X105049370Y-85745253D01*
X105049373Y-85745252D01*
X105202624Y-85698764D01*
X105282253Y-85690921D01*
X105322066Y-85687000D01*
X105677934Y-85687000D01*
X105717747Y-85690921D01*
X105717747Y-85690921D01*
G37*
G36*
X105717747Y-83690921D02*
G01*
X105797376Y-83698764D01*
X105950627Y-83745252D01*
X105950630Y-83745253D01*
X106091863Y-83820744D01*
X106215659Y-83922341D01*
X106317256Y-84046137D01*
X106392747Y-84187370D01*
X106392748Y-84187373D01*
X106439236Y-84340624D01*
X106454933Y-84500000D01*
X106439236Y-84659376D01*
X106392748Y-84812627D01*
X106392747Y-84812630D01*
X106317256Y-84953863D01*
X106215659Y-85077659D01*
X106091863Y-85179256D01*
X105950630Y-85254747D01*
X105950627Y-85254748D01*
X105797376Y-85301236D01*
X105717747Y-85309079D01*
X105677934Y-85313000D01*
X105322066Y-85313000D01*
X105282253Y-85309079D01*
X105202624Y-85301236D01*
X105049373Y-85254748D01*
X105049370Y-85254747D01*
X104908137Y-85179256D01*
X104784341Y-85077659D01*
X104682744Y-84953863D01*
X104607253Y-84812630D01*
X104607252Y-84812627D01*
X104560764Y-84659376D01*
X104545067Y-84500000D01*
X104560764Y-84340624D01*
X104607252Y-84187373D01*
X104607253Y-84187370D01*
X104682744Y-84046137D01*
X104784341Y-83922341D01*
X104908137Y-83820744D01*
X105049370Y-83745253D01*
X105049373Y-83745252D01*
X105202624Y-83698764D01*
X105282253Y-83690921D01*
X105322066Y-83687000D01*
X105677934Y-83687000D01*
X105717747Y-83690921D01*
X105717747Y-83690921D01*
G37*
G36*
X103375256Y-76391298D02*
G01*
X103481579Y-76412447D01*
X103782042Y-76536903D01*
X104052451Y-76717585D01*
X104282415Y-76947549D01*
X104463097Y-77217958D01*
X104581162Y-77502991D01*
X104587553Y-77518422D01*
X104650812Y-77836443D01*
X104651000Y-77837391D01*
X104651000Y-78162609D01*
X104587553Y-78481579D01*
X104463097Y-78782042D01*
X104282415Y-79052451D01*
X104052451Y-79282415D01*
X103782042Y-79463097D01*
X103481579Y-79587553D01*
X103375256Y-79608702D01*
X103162611Y-79651000D01*
X102837389Y-79651000D01*
X102624744Y-79608702D01*
X102518421Y-79587553D01*
X102217958Y-79463097D01*
X101947549Y-79282415D01*
X101717585Y-79052451D01*
X101536903Y-78782042D01*
X101412447Y-78481579D01*
X101349000Y-78162609D01*
X101349000Y-77837391D01*
X101349189Y-77836443D01*
X101412447Y-77518422D01*
X101418839Y-77502991D01*
X101536903Y-77217958D01*
X101717585Y-76947549D01*
X101947549Y-76717585D01*
X102217958Y-76536903D01*
X102518421Y-76412447D01*
X102624744Y-76391298D01*
X102837389Y-76349000D01*
X103162611Y-76349000D01*
X103375256Y-76391298D01*
X103375256Y-76391298D01*
G37*
G36*
X120270443Y-76105519D02*
G01*
X120336627Y-76112037D01*
X120506466Y-76163557D01*
X120662991Y-76247222D01*
X120698729Y-76276552D01*
X120800186Y-76359814D01*
X120883448Y-76461271D01*
X120912778Y-76497009D01*
X120996443Y-76653534D01*
X121047963Y-76823373D01*
X121065359Y-77000000D01*
X121047963Y-77176627D01*
X120996443Y-77346466D01*
X120912778Y-77502991D01*
X120900114Y-77518422D01*
X120800186Y-77640186D01*
X120698729Y-77723448D01*
X120662991Y-77752778D01*
X120506466Y-77836443D01*
X120336627Y-77887963D01*
X120270442Y-77894482D01*
X120204260Y-77901000D01*
X120115740Y-77901000D01*
X120049558Y-77894482D01*
X119983373Y-77887963D01*
X119813534Y-77836443D01*
X119657009Y-77752778D01*
X119621271Y-77723448D01*
X119519814Y-77640186D01*
X119419886Y-77518422D01*
X119407222Y-77502991D01*
X119323557Y-77346466D01*
X119272037Y-77176627D01*
X119254641Y-77000000D01*
X119272037Y-76823373D01*
X119323557Y-76653534D01*
X119407222Y-76497009D01*
X119436552Y-76461271D01*
X119519814Y-76359814D01*
X119621271Y-76276552D01*
X119657009Y-76247222D01*
X119813534Y-76163557D01*
X119983373Y-76112037D01*
X120049557Y-76105519D01*
X120115740Y-76099000D01*
X120204260Y-76099000D01*
X120270443Y-76105519D01*
X120270443Y-76105519D01*
G37*
G36*
X127890443Y-76105519D02*
G01*
X127956627Y-76112037D01*
X128126466Y-76163557D01*
X128282991Y-76247222D01*
X128318729Y-76276552D01*
X128420186Y-76359814D01*
X128503448Y-76461271D01*
X128532778Y-76497009D01*
X128616443Y-76653534D01*
X128667963Y-76823373D01*
X128685359Y-77000000D01*
X128667963Y-77176627D01*
X128616443Y-77346466D01*
X128532778Y-77502991D01*
X128520114Y-77518422D01*
X128420186Y-77640186D01*
X128318729Y-77723448D01*
X128282991Y-77752778D01*
X128126466Y-77836443D01*
X127956627Y-77887963D01*
X127890442Y-77894482D01*
X127824260Y-77901000D01*
X127735740Y-77901000D01*
X127669558Y-77894482D01*
X127603373Y-77887963D01*
X127433534Y-77836443D01*
X127277009Y-77752778D01*
X127241271Y-77723448D01*
X127139814Y-77640186D01*
X127039886Y-77518422D01*
X127027222Y-77502991D01*
X126943557Y-77346466D01*
X126892037Y-77176627D01*
X126874641Y-77000000D01*
X126892037Y-76823373D01*
X126943557Y-76653534D01*
X127027222Y-76497009D01*
X127056552Y-76461271D01*
X127139814Y-76359814D01*
X127241271Y-76276552D01*
X127277009Y-76247222D01*
X127433534Y-76163557D01*
X127603373Y-76112037D01*
X127669557Y-76105519D01*
X127735740Y-76099000D01*
X127824260Y-76099000D01*
X127890443Y-76105519D01*
X127890443Y-76105519D01*
G37*
G36*
X125350443Y-76105519D02*
G01*
X125416627Y-76112037D01*
X125586466Y-76163557D01*
X125742991Y-76247222D01*
X125778729Y-76276552D01*
X125880186Y-76359814D01*
X125963448Y-76461271D01*
X125992778Y-76497009D01*
X126076443Y-76653534D01*
X126127963Y-76823373D01*
X126145359Y-77000000D01*
X126127963Y-77176627D01*
X126076443Y-77346466D01*
X125992778Y-77502991D01*
X125980114Y-77518422D01*
X125880186Y-77640186D01*
X125778729Y-77723448D01*
X125742991Y-77752778D01*
X125586466Y-77836443D01*
X125416627Y-77887963D01*
X125350442Y-77894482D01*
X125284260Y-77901000D01*
X125195740Y-77901000D01*
X125129558Y-77894482D01*
X125063373Y-77887963D01*
X124893534Y-77836443D01*
X124737009Y-77752778D01*
X124701271Y-77723448D01*
X124599814Y-77640186D01*
X124499886Y-77518422D01*
X124487222Y-77502991D01*
X124403557Y-77346466D01*
X124352037Y-77176627D01*
X124334641Y-77000000D01*
X124352037Y-76823373D01*
X124403557Y-76653534D01*
X124487222Y-76497009D01*
X124516552Y-76461271D01*
X124599814Y-76359814D01*
X124701271Y-76276552D01*
X124737009Y-76247222D01*
X124893534Y-76163557D01*
X125063373Y-76112037D01*
X125129557Y-76105519D01*
X125195740Y-76099000D01*
X125284260Y-76099000D01*
X125350443Y-76105519D01*
X125350443Y-76105519D01*
G37*
G36*
X122810443Y-76105519D02*
G01*
X122876627Y-76112037D01*
X123046466Y-76163557D01*
X123202991Y-76247222D01*
X123238729Y-76276552D01*
X123340186Y-76359814D01*
X123423448Y-76461271D01*
X123452778Y-76497009D01*
X123536443Y-76653534D01*
X123587963Y-76823373D01*
X123605359Y-77000000D01*
X123587963Y-77176627D01*
X123536443Y-77346466D01*
X123452778Y-77502991D01*
X123440114Y-77518422D01*
X123340186Y-77640186D01*
X123238729Y-77723448D01*
X123202991Y-77752778D01*
X123046466Y-77836443D01*
X122876627Y-77887963D01*
X122810442Y-77894482D01*
X122744260Y-77901000D01*
X122655740Y-77901000D01*
X122589558Y-77894482D01*
X122523373Y-77887963D01*
X122353534Y-77836443D01*
X122197009Y-77752778D01*
X122161271Y-77723448D01*
X122059814Y-77640186D01*
X121959886Y-77518422D01*
X121947222Y-77502991D01*
X121863557Y-77346466D01*
X121812037Y-77176627D01*
X121794641Y-77000000D01*
X121812037Y-76823373D01*
X121863557Y-76653534D01*
X121947222Y-76497009D01*
X121976552Y-76461271D01*
X122059814Y-76359814D01*
X122161271Y-76276552D01*
X122197009Y-76247222D01*
X122353534Y-76163557D01*
X122523373Y-76112037D01*
X122589557Y-76105519D01*
X122655740Y-76099000D01*
X122744260Y-76099000D01*
X122810443Y-76105519D01*
X122810443Y-76105519D01*
G37*
G36*
X110901000Y-77901000D02*
G01*
X109099000Y-77901000D01*
X109099000Y-76099000D01*
X110901000Y-76099000D01*
X110901000Y-77901000D01*
X110901000Y-77901000D01*
G37*
G36*
X112650443Y-76105519D02*
G01*
X112716627Y-76112037D01*
X112886466Y-76163557D01*
X113042991Y-76247222D01*
X113078729Y-76276552D01*
X113180186Y-76359814D01*
X113263448Y-76461271D01*
X113292778Y-76497009D01*
X113376443Y-76653534D01*
X113427963Y-76823373D01*
X113445359Y-77000000D01*
X113427963Y-77176627D01*
X113376443Y-77346466D01*
X113292778Y-77502991D01*
X113280114Y-77518422D01*
X113180186Y-77640186D01*
X113078729Y-77723448D01*
X113042991Y-77752778D01*
X112886466Y-77836443D01*
X112716627Y-77887963D01*
X112650442Y-77894482D01*
X112584260Y-77901000D01*
X112495740Y-77901000D01*
X112429558Y-77894482D01*
X112363373Y-77887963D01*
X112193534Y-77836443D01*
X112037009Y-77752778D01*
X112001271Y-77723448D01*
X111899814Y-77640186D01*
X111799886Y-77518422D01*
X111787222Y-77502991D01*
X111703557Y-77346466D01*
X111652037Y-77176627D01*
X111634641Y-77000000D01*
X111652037Y-76823373D01*
X111703557Y-76653534D01*
X111787222Y-76497009D01*
X111816552Y-76461271D01*
X111899814Y-76359814D01*
X112001271Y-76276552D01*
X112037009Y-76247222D01*
X112193534Y-76163557D01*
X112363373Y-76112037D01*
X112429557Y-76105519D01*
X112495740Y-76099000D01*
X112584260Y-76099000D01*
X112650443Y-76105519D01*
X112650443Y-76105519D01*
G37*
G36*
X115190443Y-76105519D02*
G01*
X115256627Y-76112037D01*
X115426466Y-76163557D01*
X115582991Y-76247222D01*
X115618729Y-76276552D01*
X115720186Y-76359814D01*
X115803448Y-76461271D01*
X115832778Y-76497009D01*
X115916443Y-76653534D01*
X115967963Y-76823373D01*
X115985359Y-77000000D01*
X115967963Y-77176627D01*
X115916443Y-77346466D01*
X115832778Y-77502991D01*
X115820114Y-77518422D01*
X115720186Y-77640186D01*
X115618729Y-77723448D01*
X115582991Y-77752778D01*
X115426466Y-77836443D01*
X115256627Y-77887963D01*
X115190442Y-77894482D01*
X115124260Y-77901000D01*
X115035740Y-77901000D01*
X114969558Y-77894482D01*
X114903373Y-77887963D01*
X114733534Y-77836443D01*
X114577009Y-77752778D01*
X114541271Y-77723448D01*
X114439814Y-77640186D01*
X114339886Y-77518422D01*
X114327222Y-77502991D01*
X114243557Y-77346466D01*
X114192037Y-77176627D01*
X114174641Y-77000000D01*
X114192037Y-76823373D01*
X114243557Y-76653534D01*
X114327222Y-76497009D01*
X114356552Y-76461271D01*
X114439814Y-76359814D01*
X114541271Y-76276552D01*
X114577009Y-76247222D01*
X114733534Y-76163557D01*
X114903373Y-76112037D01*
X114969557Y-76105519D01*
X115035740Y-76099000D01*
X115124260Y-76099000D01*
X115190443Y-76105519D01*
X115190443Y-76105519D01*
G37*
G36*
X117730443Y-76105519D02*
G01*
X117796627Y-76112037D01*
X117966466Y-76163557D01*
X118122991Y-76247222D01*
X118158729Y-76276552D01*
X118260186Y-76359814D01*
X118343448Y-76461271D01*
X118372778Y-76497009D01*
X118456443Y-76653534D01*
X118507963Y-76823373D01*
X118525359Y-77000000D01*
X118507963Y-77176627D01*
X118456443Y-77346466D01*
X118372778Y-77502991D01*
X118360114Y-77518422D01*
X118260186Y-77640186D01*
X118158729Y-77723448D01*
X118122991Y-77752778D01*
X117966466Y-77836443D01*
X117796627Y-77887963D01*
X117730442Y-77894482D01*
X117664260Y-77901000D01*
X117575740Y-77901000D01*
X117509558Y-77894482D01*
X117443373Y-77887963D01*
X117273534Y-77836443D01*
X117117009Y-77752778D01*
X117081271Y-77723448D01*
X116979814Y-77640186D01*
X116879886Y-77518422D01*
X116867222Y-77502991D01*
X116783557Y-77346466D01*
X116732037Y-77176627D01*
X116714641Y-77000000D01*
X116732037Y-76823373D01*
X116783557Y-76653534D01*
X116867222Y-76497009D01*
X116896552Y-76461271D01*
X116979814Y-76359814D01*
X117081271Y-76276552D01*
X117117009Y-76247222D01*
X117273534Y-76163557D01*
X117443373Y-76112037D01*
X117509557Y-76105519D01*
X117575740Y-76099000D01*
X117664260Y-76099000D01*
X117730443Y-76105519D01*
X117730443Y-76105519D01*
G37*
M02*
