G04 #@! TF.GenerationSoftware,KiCad,Pcbnew,(5.1.2)-1*
G04 #@! TF.CreationDate,2025-02-08T22:23:42+09:00*
G04 #@! TF.ProjectId,ss,73732e6b-6963-4616-945f-706362585858,rev?*
G04 #@! TF.SameCoordinates,Original*
G04 #@! TF.FileFunction,Legend,Bot*
G04 #@! TF.FilePolarity,Positive*
%FSLAX46Y46*%
G04 Gerber Fmt 4.6, Leading zero omitted, Abs format (unit mm)*
G04 Created by KiCad (PCBNEW (5.1.2)-1) date 2025-02-08 22:23:42*
%MOMM*%
%LPD*%
G04 APERTURE LIST*
%ADD10C,0.150000*%
%ADD11C,3.302000*%
%ADD12O,1.802000X1.802000*%
%ADD13R,1.802000X1.802000*%
%ADD14O,1.902000X1.626000*%
G04 APERTURE END LIST*
D10*
X126104285Y-92172380D02*
X125485238Y-92172380D01*
X125818571Y-92553333D01*
X125675714Y-92553333D01*
X125580476Y-92600952D01*
X125532857Y-92648571D01*
X125485238Y-92743809D01*
X125485238Y-92981904D01*
X125532857Y-93077142D01*
X125580476Y-93124761D01*
X125675714Y-93172380D01*
X125961428Y-93172380D01*
X126056666Y-93124761D01*
X126104285Y-93077142D01*
X125056666Y-93172380D02*
X125056666Y-92172380D01*
X124818571Y-92172380D01*
X124675714Y-92220000D01*
X124580476Y-92315238D01*
X124532857Y-92410476D01*
X124485238Y-92600952D01*
X124485238Y-92743809D01*
X124532857Y-92934285D01*
X124580476Y-93029523D01*
X124675714Y-93124761D01*
X124818571Y-93172380D01*
X125056666Y-93172380D01*
X124056666Y-93172380D02*
X124056666Y-92172380D01*
X123723333Y-92886666D01*
X123390000Y-92172380D01*
X123390000Y-93172380D01*
X122485238Y-93172380D02*
X122485238Y-92648571D01*
X122532857Y-92553333D01*
X122628095Y-92505714D01*
X122818571Y-92505714D01*
X122913809Y-92553333D01*
X122485238Y-93124761D02*
X122580476Y-93172380D01*
X122818571Y-93172380D01*
X122913809Y-93124761D01*
X122961428Y-93029523D01*
X122961428Y-92934285D01*
X122913809Y-92839047D01*
X122818571Y-92791428D01*
X122580476Y-92791428D01*
X122485238Y-92743809D01*
X121580476Y-92505714D02*
X121580476Y-93315238D01*
X121628095Y-93410476D01*
X121675714Y-93458095D01*
X121770952Y-93505714D01*
X121913809Y-93505714D01*
X122009047Y-93458095D01*
X121580476Y-93124761D02*
X121675714Y-93172380D01*
X121866190Y-93172380D01*
X121961428Y-93124761D01*
X122009047Y-93077142D01*
X122056666Y-92981904D01*
X122056666Y-92696190D01*
X122009047Y-92600952D01*
X121961428Y-92553333D01*
X121866190Y-92505714D01*
X121675714Y-92505714D01*
X121580476Y-92553333D01*
X120294761Y-93172380D02*
X120342380Y-93172380D01*
X120437619Y-93124761D01*
X120580476Y-92981904D01*
X120818571Y-92696190D01*
X120913809Y-92553333D01*
X120961428Y-92410476D01*
X120961428Y-92315238D01*
X120913809Y-92220000D01*
X120818571Y-92172380D01*
X120770952Y-92172380D01*
X120675714Y-92220000D01*
X120628095Y-92315238D01*
X120628095Y-92362857D01*
X120675714Y-92458095D01*
X120723333Y-92505714D01*
X121009047Y-92696190D01*
X121056666Y-92743809D01*
X121104285Y-92839047D01*
X121104285Y-92981904D01*
X121056666Y-93077142D01*
X121009047Y-93124761D01*
X120913809Y-93172380D01*
X120770952Y-93172380D01*
X120675714Y-93124761D01*
X120628095Y-93077142D01*
X120485238Y-92886666D01*
X120437619Y-92743809D01*
X120437619Y-92648571D01*
X119961428Y-92172380D02*
X119342380Y-92172380D01*
X119675714Y-92553333D01*
X119532857Y-92553333D01*
X119437619Y-92600952D01*
X119390000Y-92648571D01*
X119342380Y-92743809D01*
X119342380Y-92981904D01*
X119390000Y-93077142D01*
X119437619Y-93124761D01*
X119532857Y-93172380D01*
X119818571Y-93172380D01*
X119913809Y-93124761D01*
X119961428Y-93077142D01*
X118913809Y-93172380D02*
X118913809Y-92172380D01*
X118675714Y-92172380D01*
X118532857Y-92220000D01*
X118437619Y-92315238D01*
X118390000Y-92410476D01*
X118342380Y-92600952D01*
X118342380Y-92743809D01*
X118390000Y-92934285D01*
X118437619Y-93029523D01*
X118532857Y-93124761D01*
X118675714Y-93172380D01*
X118913809Y-93172380D01*
X117961428Y-92886666D02*
X117485238Y-92886666D01*
X118056666Y-93172380D02*
X117723333Y-92172380D01*
X117390000Y-93172380D01*
X116628095Y-93124761D02*
X116723333Y-93172380D01*
X116913809Y-93172380D01*
X117009047Y-93124761D01*
X117056666Y-93077142D01*
X117104285Y-92981904D01*
X117104285Y-92696190D01*
X117056666Y-92600952D01*
X117009047Y-92553333D01*
X116913809Y-92505714D01*
X116723333Y-92505714D01*
X116628095Y-92553333D01*
X115770952Y-93124761D02*
X115866190Y-93172380D01*
X116056666Y-93172380D01*
X116151904Y-93124761D01*
X116199523Y-93077142D01*
X116247142Y-92981904D01*
X116247142Y-92696190D01*
X116199523Y-92600952D01*
X116151904Y-92553333D01*
X116056666Y-92505714D01*
X115866190Y-92505714D01*
X115770952Y-92553333D01*
X115390000Y-93124761D02*
X115247142Y-93172380D01*
X115009047Y-93172380D01*
X114913809Y-93124761D01*
X114866190Y-93077142D01*
X114818571Y-92981904D01*
X114818571Y-92886666D01*
X114866190Y-92791428D01*
X114913809Y-92743809D01*
X115009047Y-92696190D01*
X115199523Y-92648571D01*
X115294761Y-92600952D01*
X115342380Y-92553333D01*
X115390000Y-92458095D01*
X115390000Y-92362857D01*
X115342380Y-92267619D01*
X115294761Y-92220000D01*
X115199523Y-92172380D01*
X114961428Y-92172380D01*
X114818571Y-92220000D01*
X114009047Y-93124761D02*
X114104285Y-93172380D01*
X114294761Y-93172380D01*
X114390000Y-93124761D01*
X114437619Y-93029523D01*
X114437619Y-92648571D01*
X114390000Y-92553333D01*
X114294761Y-92505714D01*
X114104285Y-92505714D01*
X114009047Y-92553333D01*
X113961428Y-92648571D01*
X113961428Y-92743809D01*
X114437619Y-92839047D01*
X113532857Y-92505714D02*
X113532857Y-93172380D01*
X113532857Y-92600952D02*
X113485238Y-92553333D01*
X113390000Y-92505714D01*
X113247142Y-92505714D01*
X113151904Y-92553333D01*
X113104285Y-92648571D01*
X113104285Y-93172380D01*
X112675714Y-93124761D02*
X112580476Y-93172380D01*
X112390000Y-93172380D01*
X112294761Y-93124761D01*
X112247142Y-93029523D01*
X112247142Y-92981904D01*
X112294761Y-92886666D01*
X112390000Y-92839047D01*
X112532857Y-92839047D01*
X112628095Y-92791428D01*
X112675714Y-92696190D01*
X112675714Y-92648571D01*
X112628095Y-92553333D01*
X112532857Y-92505714D01*
X112390000Y-92505714D01*
X112294761Y-92553333D01*
X111675714Y-93172380D02*
X111770952Y-93124761D01*
X111818571Y-93077142D01*
X111866190Y-92981904D01*
X111866190Y-92696190D01*
X111818571Y-92600952D01*
X111770952Y-92553333D01*
X111675714Y-92505714D01*
X111532857Y-92505714D01*
X111437619Y-92553333D01*
X111390000Y-92600952D01*
X111342380Y-92696190D01*
X111342380Y-92981904D01*
X111390000Y-93077142D01*
X111437619Y-93124761D01*
X111532857Y-93172380D01*
X111675714Y-93172380D01*
X110913809Y-93172380D02*
X110913809Y-92505714D01*
X110913809Y-92696190D02*
X110866190Y-92600952D01*
X110818571Y-92553333D01*
X110723333Y-92505714D01*
X110628095Y-92505714D01*
X124270952Y-94155714D02*
X124080476Y-94822380D01*
X123890000Y-94346190D01*
X123699523Y-94822380D01*
X123509047Y-94155714D01*
X123128095Y-94822380D02*
X123128095Y-94155714D01*
X123128095Y-93822380D02*
X123175714Y-93870000D01*
X123128095Y-93917619D01*
X123080476Y-93870000D01*
X123128095Y-93822380D01*
X123128095Y-93917619D01*
X122794761Y-94155714D02*
X122413809Y-94155714D01*
X122651904Y-93822380D02*
X122651904Y-94679523D01*
X122604285Y-94774761D01*
X122509047Y-94822380D01*
X122413809Y-94822380D01*
X122080476Y-94822380D02*
X122080476Y-93822380D01*
X121651904Y-94822380D02*
X121651904Y-94298571D01*
X121699523Y-94203333D01*
X121794761Y-94155714D01*
X121937619Y-94155714D01*
X122032857Y-94203333D01*
X122080476Y-94250952D01*
X120413809Y-94822380D02*
X120413809Y-93822380D01*
X119985238Y-94774761D02*
X119842380Y-94822380D01*
X119604285Y-94822380D01*
X119509047Y-94774761D01*
X119461428Y-94727142D01*
X119413809Y-94631904D01*
X119413809Y-94536666D01*
X119461428Y-94441428D01*
X119509047Y-94393809D01*
X119604285Y-94346190D01*
X119794761Y-94298571D01*
X119890000Y-94250952D01*
X119937619Y-94203333D01*
X119985238Y-94108095D01*
X119985238Y-94012857D01*
X119937619Y-93917619D01*
X119890000Y-93870000D01*
X119794761Y-93822380D01*
X119556666Y-93822380D01*
X119413809Y-93870000D01*
X118985238Y-94822380D02*
X118985238Y-93822380D01*
X118651904Y-94536666D01*
X118318571Y-93822380D01*
X118318571Y-94822380D01*
X117937619Y-93822380D02*
X117318571Y-93822380D01*
X117651904Y-94203333D01*
X117509047Y-94203333D01*
X117413809Y-94250952D01*
X117366190Y-94298571D01*
X117318571Y-94393809D01*
X117318571Y-94631904D01*
X117366190Y-94727142D01*
X117413809Y-94774761D01*
X117509047Y-94822380D01*
X117794761Y-94822380D01*
X117890000Y-94774761D01*
X117937619Y-94727142D01*
X116699523Y-93822380D02*
X116604285Y-93822380D01*
X116509047Y-93870000D01*
X116461428Y-93917619D01*
X116413809Y-94012857D01*
X116366190Y-94203333D01*
X116366190Y-94441428D01*
X116413809Y-94631904D01*
X116461428Y-94727142D01*
X116509047Y-94774761D01*
X116604285Y-94822380D01*
X116699523Y-94822380D01*
X116794761Y-94774761D01*
X116842380Y-94727142D01*
X116890000Y-94631904D01*
X116937619Y-94441428D01*
X116937619Y-94203333D01*
X116890000Y-94012857D01*
X116842380Y-93917619D01*
X116794761Y-93870000D01*
X116699523Y-93822380D01*
X116032857Y-93822380D02*
X115413809Y-93822380D01*
X115747142Y-94203333D01*
X115604285Y-94203333D01*
X115509047Y-94250952D01*
X115461428Y-94298571D01*
X115413809Y-94393809D01*
X115413809Y-94631904D01*
X115461428Y-94727142D01*
X115509047Y-94774761D01*
X115604285Y-94822380D01*
X115890000Y-94822380D01*
X115985238Y-94774761D01*
X116032857Y-94727142D01*
X114985238Y-94822380D02*
X114985238Y-93822380D01*
X114747142Y-93822380D01*
X114604285Y-93870000D01*
X114509047Y-93965238D01*
X114461428Y-94060476D01*
X114413809Y-94250952D01*
X114413809Y-94393809D01*
X114461428Y-94584285D01*
X114509047Y-94679523D01*
X114604285Y-94774761D01*
X114747142Y-94822380D01*
X114985238Y-94822380D01*
X114032857Y-94536666D02*
X113556666Y-94536666D01*
X114128095Y-94822380D02*
X113794761Y-93822380D01*
X113461428Y-94822380D01*
X112556666Y-94727142D02*
X112604285Y-94774761D01*
X112747142Y-94822380D01*
X112842380Y-94822380D01*
X112985238Y-94774761D01*
X113080476Y-94679523D01*
X113128095Y-94584285D01*
X113175714Y-94393809D01*
X113175714Y-94250952D01*
X113128095Y-94060476D01*
X113080476Y-93965238D01*
X112985238Y-93870000D01*
X112842380Y-93822380D01*
X112747142Y-93822380D01*
X112604285Y-93870000D01*
X112556666Y-93917619D01*
X125675714Y-95567619D02*
X125628095Y-95520000D01*
X125532857Y-95472380D01*
X125294761Y-95472380D01*
X125199523Y-95520000D01*
X125151904Y-95567619D01*
X125104285Y-95662857D01*
X125104285Y-95758095D01*
X125151904Y-95900952D01*
X125723333Y-96472380D01*
X125104285Y-96472380D01*
X124199523Y-95472380D02*
X124675714Y-95472380D01*
X124723333Y-95948571D01*
X124675714Y-95900952D01*
X124580476Y-95853333D01*
X124342380Y-95853333D01*
X124247142Y-95900952D01*
X124199523Y-95948571D01*
X124151904Y-96043809D01*
X124151904Y-96281904D01*
X124199523Y-96377142D01*
X124247142Y-96424761D01*
X124342380Y-96472380D01*
X124580476Y-96472380D01*
X124675714Y-96424761D01*
X124723333Y-96377142D01*
X123532857Y-95472380D02*
X123437619Y-95472380D01*
X123342380Y-95520000D01*
X123294761Y-95567619D01*
X123247142Y-95662857D01*
X123199523Y-95853333D01*
X123199523Y-96091428D01*
X123247142Y-96281904D01*
X123294761Y-96377142D01*
X123342380Y-96424761D01*
X123437619Y-96472380D01*
X123532857Y-96472380D01*
X123628095Y-96424761D01*
X123675714Y-96377142D01*
X123723333Y-96281904D01*
X123770952Y-96091428D01*
X123770952Y-95853333D01*
X123723333Y-95662857D01*
X123675714Y-95567619D01*
X123628095Y-95520000D01*
X123532857Y-95472380D01*
X122247142Y-96472380D02*
X122818571Y-96472380D01*
X122532857Y-96472380D02*
X122532857Y-95472380D01*
X122628095Y-95615238D01*
X122723333Y-95710476D01*
X122818571Y-95758095D01*
X121151904Y-95805714D02*
X120913809Y-96472380D01*
X120675714Y-95805714D01*
X119770952Y-96472380D02*
X120342380Y-96472380D01*
X120056666Y-96472380D02*
X120056666Y-95472380D01*
X120151904Y-95615238D01*
X120247142Y-95710476D01*
X120342380Y-95758095D01*
X119342380Y-96377142D02*
X119294761Y-96424761D01*
X119342380Y-96472380D01*
X119390000Y-96424761D01*
X119342380Y-96377142D01*
X119342380Y-96472380D01*
X118675714Y-95472380D02*
X118580476Y-95472380D01*
X118485238Y-95520000D01*
X118437619Y-95567619D01*
X118390000Y-95662857D01*
X118342380Y-95853333D01*
X118342380Y-96091428D01*
X118390000Y-96281904D01*
X118437619Y-96377142D01*
X118485238Y-96424761D01*
X118580476Y-96472380D01*
X118675714Y-96472380D01*
X118770952Y-96424761D01*
X118818571Y-96377142D01*
X118866190Y-96281904D01*
X118913809Y-96091428D01*
X118913809Y-95853333D01*
X118866190Y-95662857D01*
X118818571Y-95567619D01*
X118770952Y-95520000D01*
X118675714Y-95472380D01*
X116580476Y-96377142D02*
X116628095Y-96424761D01*
X116770952Y-96472380D01*
X116866190Y-96472380D01*
X117009047Y-96424761D01*
X117104285Y-96329523D01*
X117151904Y-96234285D01*
X117199523Y-96043809D01*
X117199523Y-95900952D01*
X117151904Y-95710476D01*
X117104285Y-95615238D01*
X117009047Y-95520000D01*
X116866190Y-95472380D01*
X116770952Y-95472380D01*
X116628095Y-95520000D01*
X116580476Y-95567619D01*
X116151904Y-96472380D02*
X116151904Y-95805714D01*
X116151904Y-95996190D02*
X116104285Y-95900952D01*
X116056666Y-95853333D01*
X115961428Y-95805714D01*
X115866190Y-95805714D01*
X115151904Y-96424761D02*
X115247142Y-96472380D01*
X115437619Y-96472380D01*
X115532857Y-96424761D01*
X115580476Y-96329523D01*
X115580476Y-95948571D01*
X115532857Y-95853333D01*
X115437619Y-95805714D01*
X115247142Y-95805714D01*
X115151904Y-95853333D01*
X115104285Y-95948571D01*
X115104285Y-96043809D01*
X115580476Y-96139047D01*
X114723333Y-96424761D02*
X114628095Y-96472380D01*
X114437619Y-96472380D01*
X114342380Y-96424761D01*
X114294761Y-96329523D01*
X114294761Y-96281904D01*
X114342380Y-96186666D01*
X114437619Y-96139047D01*
X114580476Y-96139047D01*
X114675714Y-96091428D01*
X114723333Y-95996190D01*
X114723333Y-95948571D01*
X114675714Y-95853333D01*
X114580476Y-95805714D01*
X114437619Y-95805714D01*
X114342380Y-95853333D01*
X113437619Y-96424761D02*
X113532857Y-96472380D01*
X113723333Y-96472380D01*
X113818571Y-96424761D01*
X113866190Y-96377142D01*
X113913809Y-96281904D01*
X113913809Y-95996190D01*
X113866190Y-95900952D01*
X113818571Y-95853333D01*
X113723333Y-95805714D01*
X113532857Y-95805714D01*
X113437619Y-95853333D01*
X112628095Y-96424761D02*
X112723333Y-96472380D01*
X112913809Y-96472380D01*
X113009047Y-96424761D01*
X113056666Y-96329523D01*
X113056666Y-95948571D01*
X113009047Y-95853333D01*
X112913809Y-95805714D01*
X112723333Y-95805714D01*
X112628095Y-95853333D01*
X112580476Y-95948571D01*
X112580476Y-96043809D01*
X113056666Y-96139047D01*
X112151904Y-95805714D02*
X112151904Y-96472380D01*
X112151904Y-95900952D02*
X112104285Y-95853333D01*
X112009047Y-95805714D01*
X111866190Y-95805714D01*
X111770952Y-95853333D01*
X111723333Y-95948571D01*
X111723333Y-96472380D01*
X111390000Y-95805714D02*
X111009047Y-95805714D01*
X111247142Y-95472380D02*
X111247142Y-96329523D01*
X111199523Y-96424761D01*
X111104285Y-96472380D01*
X111009047Y-96472380D01*
%LPC*%
D11*
X103000000Y-97000000D03*
X103000000Y-78000000D03*
D12*
X127780000Y-77000000D03*
X125240000Y-77000000D03*
X122700000Y-77000000D03*
X120160000Y-77000000D03*
X117620000Y-77000000D03*
X115080000Y-77000000D03*
X112540000Y-77000000D03*
D13*
X110000000Y-77000000D03*
D14*
X105500000Y-84500000D03*
X105500000Y-86500000D03*
X105500000Y-88500000D03*
X105500000Y-90500000D03*
M02*
