G04 #@! TF.GenerationSoftware,KiCad,Pcbnew,(5.1.2)-1*
G04 #@! TF.CreationDate,2025-02-08T22:23:42+09:00*
G04 #@! TF.ProjectId,ss,73732e6b-6963-4616-945f-706362585858,rev?*
G04 #@! TF.SameCoordinates,Original*
G04 #@! TF.FileFunction,Paste,Top*
G04 #@! TF.FilePolarity,Positive*
%FSLAX46Y46*%
G04 Gerber Fmt 4.6, Leading zero omitted, Abs format (unit mm)*
G04 Created by KiCad (PCBNEW (5.1.2)-1) date 2025-02-08 22:23:42*
%MOMM*%
%LPD*%
G04 APERTURE LIST*
%ADD10R,0.250000X0.275000*%
%ADD11R,0.275000X0.250000*%
%ADD12R,0.650000X1.060000*%
%ADD13C,0.100000*%
%ADD14C,0.875000*%
%ADD15R,0.800000X0.900000*%
%ADD16R,0.900000X0.800000*%
%ADD17C,0.975000*%
G04 APERTURE END LIST*
D10*
X118750000Y-86750000D03*
X119250000Y-86750000D03*
D11*
X119750000Y-86750000D03*
X119750000Y-87250000D03*
X119750000Y-87750000D03*
X119750000Y-88250000D03*
D10*
X119250000Y-88250000D03*
X118750000Y-88250000D03*
D11*
X118250000Y-88250000D03*
X118250000Y-87750000D03*
X118250000Y-87250000D03*
X118250000Y-86750000D03*
D12*
X110550000Y-83400000D03*
X112450000Y-83400000D03*
X112450000Y-85600000D03*
X111500000Y-85600000D03*
X110550000Y-85600000D03*
D13*
G36*
X119352691Y-92326053D02*
G01*
X119373926Y-92329203D01*
X119394750Y-92334419D01*
X119414962Y-92341651D01*
X119434368Y-92350830D01*
X119452781Y-92361866D01*
X119470024Y-92374654D01*
X119485930Y-92389070D01*
X119500346Y-92404976D01*
X119513134Y-92422219D01*
X119524170Y-92440632D01*
X119533349Y-92460038D01*
X119540581Y-92480250D01*
X119545797Y-92501074D01*
X119548947Y-92522309D01*
X119550000Y-92543750D01*
X119550000Y-93056250D01*
X119548947Y-93077691D01*
X119545797Y-93098926D01*
X119540581Y-93119750D01*
X119533349Y-93139962D01*
X119524170Y-93159368D01*
X119513134Y-93177781D01*
X119500346Y-93195024D01*
X119485930Y-93210930D01*
X119470024Y-93225346D01*
X119452781Y-93238134D01*
X119434368Y-93249170D01*
X119414962Y-93258349D01*
X119394750Y-93265581D01*
X119373926Y-93270797D01*
X119352691Y-93273947D01*
X119331250Y-93275000D01*
X118893750Y-93275000D01*
X118872309Y-93273947D01*
X118851074Y-93270797D01*
X118830250Y-93265581D01*
X118810038Y-93258349D01*
X118790632Y-93249170D01*
X118772219Y-93238134D01*
X118754976Y-93225346D01*
X118739070Y-93210930D01*
X118724654Y-93195024D01*
X118711866Y-93177781D01*
X118700830Y-93159368D01*
X118691651Y-93139962D01*
X118684419Y-93119750D01*
X118679203Y-93098926D01*
X118676053Y-93077691D01*
X118675000Y-93056250D01*
X118675000Y-92543750D01*
X118676053Y-92522309D01*
X118679203Y-92501074D01*
X118684419Y-92480250D01*
X118691651Y-92460038D01*
X118700830Y-92440632D01*
X118711866Y-92422219D01*
X118724654Y-92404976D01*
X118739070Y-92389070D01*
X118754976Y-92374654D01*
X118772219Y-92361866D01*
X118790632Y-92350830D01*
X118810038Y-92341651D01*
X118830250Y-92334419D01*
X118851074Y-92329203D01*
X118872309Y-92326053D01*
X118893750Y-92325000D01*
X119331250Y-92325000D01*
X119352691Y-92326053D01*
X119352691Y-92326053D01*
G37*
D14*
X119112500Y-92800000D03*
D13*
G36*
X120927691Y-92326053D02*
G01*
X120948926Y-92329203D01*
X120969750Y-92334419D01*
X120989962Y-92341651D01*
X121009368Y-92350830D01*
X121027781Y-92361866D01*
X121045024Y-92374654D01*
X121060930Y-92389070D01*
X121075346Y-92404976D01*
X121088134Y-92422219D01*
X121099170Y-92440632D01*
X121108349Y-92460038D01*
X121115581Y-92480250D01*
X121120797Y-92501074D01*
X121123947Y-92522309D01*
X121125000Y-92543750D01*
X121125000Y-93056250D01*
X121123947Y-93077691D01*
X121120797Y-93098926D01*
X121115581Y-93119750D01*
X121108349Y-93139962D01*
X121099170Y-93159368D01*
X121088134Y-93177781D01*
X121075346Y-93195024D01*
X121060930Y-93210930D01*
X121045024Y-93225346D01*
X121027781Y-93238134D01*
X121009368Y-93249170D01*
X120989962Y-93258349D01*
X120969750Y-93265581D01*
X120948926Y-93270797D01*
X120927691Y-93273947D01*
X120906250Y-93275000D01*
X120468750Y-93275000D01*
X120447309Y-93273947D01*
X120426074Y-93270797D01*
X120405250Y-93265581D01*
X120385038Y-93258349D01*
X120365632Y-93249170D01*
X120347219Y-93238134D01*
X120329976Y-93225346D01*
X120314070Y-93210930D01*
X120299654Y-93195024D01*
X120286866Y-93177781D01*
X120275830Y-93159368D01*
X120266651Y-93139962D01*
X120259419Y-93119750D01*
X120254203Y-93098926D01*
X120251053Y-93077691D01*
X120250000Y-93056250D01*
X120250000Y-92543750D01*
X120251053Y-92522309D01*
X120254203Y-92501074D01*
X120259419Y-92480250D01*
X120266651Y-92460038D01*
X120275830Y-92440632D01*
X120286866Y-92422219D01*
X120299654Y-92404976D01*
X120314070Y-92389070D01*
X120329976Y-92374654D01*
X120347219Y-92361866D01*
X120365632Y-92350830D01*
X120385038Y-92341651D01*
X120405250Y-92334419D01*
X120426074Y-92329203D01*
X120447309Y-92326053D01*
X120468750Y-92325000D01*
X120906250Y-92325000D01*
X120927691Y-92326053D01*
X120927691Y-92326053D01*
G37*
D14*
X120687500Y-92800000D03*
D13*
G36*
X113352691Y-92326053D02*
G01*
X113373926Y-92329203D01*
X113394750Y-92334419D01*
X113414962Y-92341651D01*
X113434368Y-92350830D01*
X113452781Y-92361866D01*
X113470024Y-92374654D01*
X113485930Y-92389070D01*
X113500346Y-92404976D01*
X113513134Y-92422219D01*
X113524170Y-92440632D01*
X113533349Y-92460038D01*
X113540581Y-92480250D01*
X113545797Y-92501074D01*
X113548947Y-92522309D01*
X113550000Y-92543750D01*
X113550000Y-93056250D01*
X113548947Y-93077691D01*
X113545797Y-93098926D01*
X113540581Y-93119750D01*
X113533349Y-93139962D01*
X113524170Y-93159368D01*
X113513134Y-93177781D01*
X113500346Y-93195024D01*
X113485930Y-93210930D01*
X113470024Y-93225346D01*
X113452781Y-93238134D01*
X113434368Y-93249170D01*
X113414962Y-93258349D01*
X113394750Y-93265581D01*
X113373926Y-93270797D01*
X113352691Y-93273947D01*
X113331250Y-93275000D01*
X112893750Y-93275000D01*
X112872309Y-93273947D01*
X112851074Y-93270797D01*
X112830250Y-93265581D01*
X112810038Y-93258349D01*
X112790632Y-93249170D01*
X112772219Y-93238134D01*
X112754976Y-93225346D01*
X112739070Y-93210930D01*
X112724654Y-93195024D01*
X112711866Y-93177781D01*
X112700830Y-93159368D01*
X112691651Y-93139962D01*
X112684419Y-93119750D01*
X112679203Y-93098926D01*
X112676053Y-93077691D01*
X112675000Y-93056250D01*
X112675000Y-92543750D01*
X112676053Y-92522309D01*
X112679203Y-92501074D01*
X112684419Y-92480250D01*
X112691651Y-92460038D01*
X112700830Y-92440632D01*
X112711866Y-92422219D01*
X112724654Y-92404976D01*
X112739070Y-92389070D01*
X112754976Y-92374654D01*
X112772219Y-92361866D01*
X112790632Y-92350830D01*
X112810038Y-92341651D01*
X112830250Y-92334419D01*
X112851074Y-92329203D01*
X112872309Y-92326053D01*
X112893750Y-92325000D01*
X113331250Y-92325000D01*
X113352691Y-92326053D01*
X113352691Y-92326053D01*
G37*
D14*
X113112500Y-92800000D03*
D13*
G36*
X114927691Y-92326053D02*
G01*
X114948926Y-92329203D01*
X114969750Y-92334419D01*
X114989962Y-92341651D01*
X115009368Y-92350830D01*
X115027781Y-92361866D01*
X115045024Y-92374654D01*
X115060930Y-92389070D01*
X115075346Y-92404976D01*
X115088134Y-92422219D01*
X115099170Y-92440632D01*
X115108349Y-92460038D01*
X115115581Y-92480250D01*
X115120797Y-92501074D01*
X115123947Y-92522309D01*
X115125000Y-92543750D01*
X115125000Y-93056250D01*
X115123947Y-93077691D01*
X115120797Y-93098926D01*
X115115581Y-93119750D01*
X115108349Y-93139962D01*
X115099170Y-93159368D01*
X115088134Y-93177781D01*
X115075346Y-93195024D01*
X115060930Y-93210930D01*
X115045024Y-93225346D01*
X115027781Y-93238134D01*
X115009368Y-93249170D01*
X114989962Y-93258349D01*
X114969750Y-93265581D01*
X114948926Y-93270797D01*
X114927691Y-93273947D01*
X114906250Y-93275000D01*
X114468750Y-93275000D01*
X114447309Y-93273947D01*
X114426074Y-93270797D01*
X114405250Y-93265581D01*
X114385038Y-93258349D01*
X114365632Y-93249170D01*
X114347219Y-93238134D01*
X114329976Y-93225346D01*
X114314070Y-93210930D01*
X114299654Y-93195024D01*
X114286866Y-93177781D01*
X114275830Y-93159368D01*
X114266651Y-93139962D01*
X114259419Y-93119750D01*
X114254203Y-93098926D01*
X114251053Y-93077691D01*
X114250000Y-93056250D01*
X114250000Y-92543750D01*
X114251053Y-92522309D01*
X114254203Y-92501074D01*
X114259419Y-92480250D01*
X114266651Y-92460038D01*
X114275830Y-92440632D01*
X114286866Y-92422219D01*
X114299654Y-92404976D01*
X114314070Y-92389070D01*
X114329976Y-92374654D01*
X114347219Y-92361866D01*
X114365632Y-92350830D01*
X114385038Y-92341651D01*
X114405250Y-92334419D01*
X114426074Y-92329203D01*
X114447309Y-92326053D01*
X114468750Y-92325000D01*
X114906250Y-92325000D01*
X114927691Y-92326053D01*
X114927691Y-92326053D01*
G37*
D14*
X114687500Y-92800000D03*
D13*
G36*
X125352691Y-92326053D02*
G01*
X125373926Y-92329203D01*
X125394750Y-92334419D01*
X125414962Y-92341651D01*
X125434368Y-92350830D01*
X125452781Y-92361866D01*
X125470024Y-92374654D01*
X125485930Y-92389070D01*
X125500346Y-92404976D01*
X125513134Y-92422219D01*
X125524170Y-92440632D01*
X125533349Y-92460038D01*
X125540581Y-92480250D01*
X125545797Y-92501074D01*
X125548947Y-92522309D01*
X125550000Y-92543750D01*
X125550000Y-93056250D01*
X125548947Y-93077691D01*
X125545797Y-93098926D01*
X125540581Y-93119750D01*
X125533349Y-93139962D01*
X125524170Y-93159368D01*
X125513134Y-93177781D01*
X125500346Y-93195024D01*
X125485930Y-93210930D01*
X125470024Y-93225346D01*
X125452781Y-93238134D01*
X125434368Y-93249170D01*
X125414962Y-93258349D01*
X125394750Y-93265581D01*
X125373926Y-93270797D01*
X125352691Y-93273947D01*
X125331250Y-93275000D01*
X124893750Y-93275000D01*
X124872309Y-93273947D01*
X124851074Y-93270797D01*
X124830250Y-93265581D01*
X124810038Y-93258349D01*
X124790632Y-93249170D01*
X124772219Y-93238134D01*
X124754976Y-93225346D01*
X124739070Y-93210930D01*
X124724654Y-93195024D01*
X124711866Y-93177781D01*
X124700830Y-93159368D01*
X124691651Y-93139962D01*
X124684419Y-93119750D01*
X124679203Y-93098926D01*
X124676053Y-93077691D01*
X124675000Y-93056250D01*
X124675000Y-92543750D01*
X124676053Y-92522309D01*
X124679203Y-92501074D01*
X124684419Y-92480250D01*
X124691651Y-92460038D01*
X124700830Y-92440632D01*
X124711866Y-92422219D01*
X124724654Y-92404976D01*
X124739070Y-92389070D01*
X124754976Y-92374654D01*
X124772219Y-92361866D01*
X124790632Y-92350830D01*
X124810038Y-92341651D01*
X124830250Y-92334419D01*
X124851074Y-92329203D01*
X124872309Y-92326053D01*
X124893750Y-92325000D01*
X125331250Y-92325000D01*
X125352691Y-92326053D01*
X125352691Y-92326053D01*
G37*
D14*
X125112500Y-92800000D03*
D13*
G36*
X126927691Y-92326053D02*
G01*
X126948926Y-92329203D01*
X126969750Y-92334419D01*
X126989962Y-92341651D01*
X127009368Y-92350830D01*
X127027781Y-92361866D01*
X127045024Y-92374654D01*
X127060930Y-92389070D01*
X127075346Y-92404976D01*
X127088134Y-92422219D01*
X127099170Y-92440632D01*
X127108349Y-92460038D01*
X127115581Y-92480250D01*
X127120797Y-92501074D01*
X127123947Y-92522309D01*
X127125000Y-92543750D01*
X127125000Y-93056250D01*
X127123947Y-93077691D01*
X127120797Y-93098926D01*
X127115581Y-93119750D01*
X127108349Y-93139962D01*
X127099170Y-93159368D01*
X127088134Y-93177781D01*
X127075346Y-93195024D01*
X127060930Y-93210930D01*
X127045024Y-93225346D01*
X127027781Y-93238134D01*
X127009368Y-93249170D01*
X126989962Y-93258349D01*
X126969750Y-93265581D01*
X126948926Y-93270797D01*
X126927691Y-93273947D01*
X126906250Y-93275000D01*
X126468750Y-93275000D01*
X126447309Y-93273947D01*
X126426074Y-93270797D01*
X126405250Y-93265581D01*
X126385038Y-93258349D01*
X126365632Y-93249170D01*
X126347219Y-93238134D01*
X126329976Y-93225346D01*
X126314070Y-93210930D01*
X126299654Y-93195024D01*
X126286866Y-93177781D01*
X126275830Y-93159368D01*
X126266651Y-93139962D01*
X126259419Y-93119750D01*
X126254203Y-93098926D01*
X126251053Y-93077691D01*
X126250000Y-93056250D01*
X126250000Y-92543750D01*
X126251053Y-92522309D01*
X126254203Y-92501074D01*
X126259419Y-92480250D01*
X126266651Y-92460038D01*
X126275830Y-92440632D01*
X126286866Y-92422219D01*
X126299654Y-92404976D01*
X126314070Y-92389070D01*
X126329976Y-92374654D01*
X126347219Y-92361866D01*
X126365632Y-92350830D01*
X126385038Y-92341651D01*
X126405250Y-92334419D01*
X126426074Y-92329203D01*
X126447309Y-92326053D01*
X126468750Y-92325000D01*
X126906250Y-92325000D01*
X126927691Y-92326053D01*
X126927691Y-92326053D01*
G37*
D14*
X126687500Y-92800000D03*
D13*
G36*
X107852691Y-92326053D02*
G01*
X107873926Y-92329203D01*
X107894750Y-92334419D01*
X107914962Y-92341651D01*
X107934368Y-92350830D01*
X107952781Y-92361866D01*
X107970024Y-92374654D01*
X107985930Y-92389070D01*
X108000346Y-92404976D01*
X108013134Y-92422219D01*
X108024170Y-92440632D01*
X108033349Y-92460038D01*
X108040581Y-92480250D01*
X108045797Y-92501074D01*
X108048947Y-92522309D01*
X108050000Y-92543750D01*
X108050000Y-93056250D01*
X108048947Y-93077691D01*
X108045797Y-93098926D01*
X108040581Y-93119750D01*
X108033349Y-93139962D01*
X108024170Y-93159368D01*
X108013134Y-93177781D01*
X108000346Y-93195024D01*
X107985930Y-93210930D01*
X107970024Y-93225346D01*
X107952781Y-93238134D01*
X107934368Y-93249170D01*
X107914962Y-93258349D01*
X107894750Y-93265581D01*
X107873926Y-93270797D01*
X107852691Y-93273947D01*
X107831250Y-93275000D01*
X107393750Y-93275000D01*
X107372309Y-93273947D01*
X107351074Y-93270797D01*
X107330250Y-93265581D01*
X107310038Y-93258349D01*
X107290632Y-93249170D01*
X107272219Y-93238134D01*
X107254976Y-93225346D01*
X107239070Y-93210930D01*
X107224654Y-93195024D01*
X107211866Y-93177781D01*
X107200830Y-93159368D01*
X107191651Y-93139962D01*
X107184419Y-93119750D01*
X107179203Y-93098926D01*
X107176053Y-93077691D01*
X107175000Y-93056250D01*
X107175000Y-92543750D01*
X107176053Y-92522309D01*
X107179203Y-92501074D01*
X107184419Y-92480250D01*
X107191651Y-92460038D01*
X107200830Y-92440632D01*
X107211866Y-92422219D01*
X107224654Y-92404976D01*
X107239070Y-92389070D01*
X107254976Y-92374654D01*
X107272219Y-92361866D01*
X107290632Y-92350830D01*
X107310038Y-92341651D01*
X107330250Y-92334419D01*
X107351074Y-92329203D01*
X107372309Y-92326053D01*
X107393750Y-92325000D01*
X107831250Y-92325000D01*
X107852691Y-92326053D01*
X107852691Y-92326053D01*
G37*
D14*
X107612500Y-92800000D03*
D13*
G36*
X109427691Y-92326053D02*
G01*
X109448926Y-92329203D01*
X109469750Y-92334419D01*
X109489962Y-92341651D01*
X109509368Y-92350830D01*
X109527781Y-92361866D01*
X109545024Y-92374654D01*
X109560930Y-92389070D01*
X109575346Y-92404976D01*
X109588134Y-92422219D01*
X109599170Y-92440632D01*
X109608349Y-92460038D01*
X109615581Y-92480250D01*
X109620797Y-92501074D01*
X109623947Y-92522309D01*
X109625000Y-92543750D01*
X109625000Y-93056250D01*
X109623947Y-93077691D01*
X109620797Y-93098926D01*
X109615581Y-93119750D01*
X109608349Y-93139962D01*
X109599170Y-93159368D01*
X109588134Y-93177781D01*
X109575346Y-93195024D01*
X109560930Y-93210930D01*
X109545024Y-93225346D01*
X109527781Y-93238134D01*
X109509368Y-93249170D01*
X109489962Y-93258349D01*
X109469750Y-93265581D01*
X109448926Y-93270797D01*
X109427691Y-93273947D01*
X109406250Y-93275000D01*
X108968750Y-93275000D01*
X108947309Y-93273947D01*
X108926074Y-93270797D01*
X108905250Y-93265581D01*
X108885038Y-93258349D01*
X108865632Y-93249170D01*
X108847219Y-93238134D01*
X108829976Y-93225346D01*
X108814070Y-93210930D01*
X108799654Y-93195024D01*
X108786866Y-93177781D01*
X108775830Y-93159368D01*
X108766651Y-93139962D01*
X108759419Y-93119750D01*
X108754203Y-93098926D01*
X108751053Y-93077691D01*
X108750000Y-93056250D01*
X108750000Y-92543750D01*
X108751053Y-92522309D01*
X108754203Y-92501074D01*
X108759419Y-92480250D01*
X108766651Y-92460038D01*
X108775830Y-92440632D01*
X108786866Y-92422219D01*
X108799654Y-92404976D01*
X108814070Y-92389070D01*
X108829976Y-92374654D01*
X108847219Y-92361866D01*
X108865632Y-92350830D01*
X108885038Y-92341651D01*
X108905250Y-92334419D01*
X108926074Y-92329203D01*
X108947309Y-92326053D01*
X108968750Y-92325000D01*
X109406250Y-92325000D01*
X109427691Y-92326053D01*
X109427691Y-92326053D01*
G37*
D14*
X109187500Y-92800000D03*
D13*
G36*
X122277691Y-90051053D02*
G01*
X122298926Y-90054203D01*
X122319750Y-90059419D01*
X122339962Y-90066651D01*
X122359368Y-90075830D01*
X122377781Y-90086866D01*
X122395024Y-90099654D01*
X122410930Y-90114070D01*
X122425346Y-90129976D01*
X122438134Y-90147219D01*
X122449170Y-90165632D01*
X122458349Y-90185038D01*
X122465581Y-90205250D01*
X122470797Y-90226074D01*
X122473947Y-90247309D01*
X122475000Y-90268750D01*
X122475000Y-90706250D01*
X122473947Y-90727691D01*
X122470797Y-90748926D01*
X122465581Y-90769750D01*
X122458349Y-90789962D01*
X122449170Y-90809368D01*
X122438134Y-90827781D01*
X122425346Y-90845024D01*
X122410930Y-90860930D01*
X122395024Y-90875346D01*
X122377781Y-90888134D01*
X122359368Y-90899170D01*
X122339962Y-90908349D01*
X122319750Y-90915581D01*
X122298926Y-90920797D01*
X122277691Y-90923947D01*
X122256250Y-90925000D01*
X121743750Y-90925000D01*
X121722309Y-90923947D01*
X121701074Y-90920797D01*
X121680250Y-90915581D01*
X121660038Y-90908349D01*
X121640632Y-90899170D01*
X121622219Y-90888134D01*
X121604976Y-90875346D01*
X121589070Y-90860930D01*
X121574654Y-90845024D01*
X121561866Y-90827781D01*
X121550830Y-90809368D01*
X121541651Y-90789962D01*
X121534419Y-90769750D01*
X121529203Y-90748926D01*
X121526053Y-90727691D01*
X121525000Y-90706250D01*
X121525000Y-90268750D01*
X121526053Y-90247309D01*
X121529203Y-90226074D01*
X121534419Y-90205250D01*
X121541651Y-90185038D01*
X121550830Y-90165632D01*
X121561866Y-90147219D01*
X121574654Y-90129976D01*
X121589070Y-90114070D01*
X121604976Y-90099654D01*
X121622219Y-90086866D01*
X121640632Y-90075830D01*
X121660038Y-90066651D01*
X121680250Y-90059419D01*
X121701074Y-90054203D01*
X121722309Y-90051053D01*
X121743750Y-90050000D01*
X122256250Y-90050000D01*
X122277691Y-90051053D01*
X122277691Y-90051053D01*
G37*
D14*
X122000000Y-90487500D03*
D13*
G36*
X122277691Y-88476053D02*
G01*
X122298926Y-88479203D01*
X122319750Y-88484419D01*
X122339962Y-88491651D01*
X122359368Y-88500830D01*
X122377781Y-88511866D01*
X122395024Y-88524654D01*
X122410930Y-88539070D01*
X122425346Y-88554976D01*
X122438134Y-88572219D01*
X122449170Y-88590632D01*
X122458349Y-88610038D01*
X122465581Y-88630250D01*
X122470797Y-88651074D01*
X122473947Y-88672309D01*
X122475000Y-88693750D01*
X122475000Y-89131250D01*
X122473947Y-89152691D01*
X122470797Y-89173926D01*
X122465581Y-89194750D01*
X122458349Y-89214962D01*
X122449170Y-89234368D01*
X122438134Y-89252781D01*
X122425346Y-89270024D01*
X122410930Y-89285930D01*
X122395024Y-89300346D01*
X122377781Y-89313134D01*
X122359368Y-89324170D01*
X122339962Y-89333349D01*
X122319750Y-89340581D01*
X122298926Y-89345797D01*
X122277691Y-89348947D01*
X122256250Y-89350000D01*
X121743750Y-89350000D01*
X121722309Y-89348947D01*
X121701074Y-89345797D01*
X121680250Y-89340581D01*
X121660038Y-89333349D01*
X121640632Y-89324170D01*
X121622219Y-89313134D01*
X121604976Y-89300346D01*
X121589070Y-89285930D01*
X121574654Y-89270024D01*
X121561866Y-89252781D01*
X121550830Y-89234368D01*
X121541651Y-89214962D01*
X121534419Y-89194750D01*
X121529203Y-89173926D01*
X121526053Y-89152691D01*
X121525000Y-89131250D01*
X121525000Y-88693750D01*
X121526053Y-88672309D01*
X121529203Y-88651074D01*
X121534419Y-88630250D01*
X121541651Y-88610038D01*
X121550830Y-88590632D01*
X121561866Y-88572219D01*
X121574654Y-88554976D01*
X121589070Y-88539070D01*
X121604976Y-88524654D01*
X121622219Y-88511866D01*
X121640632Y-88500830D01*
X121660038Y-88491651D01*
X121680250Y-88484419D01*
X121701074Y-88479203D01*
X121722309Y-88476053D01*
X121743750Y-88475000D01*
X122256250Y-88475000D01*
X122277691Y-88476053D01*
X122277691Y-88476053D01*
G37*
D14*
X122000000Y-88912500D03*
D13*
G36*
X122277691Y-81951053D02*
G01*
X122298926Y-81954203D01*
X122319750Y-81959419D01*
X122339962Y-81966651D01*
X122359368Y-81975830D01*
X122377781Y-81986866D01*
X122395024Y-81999654D01*
X122410930Y-82014070D01*
X122425346Y-82029976D01*
X122438134Y-82047219D01*
X122449170Y-82065632D01*
X122458349Y-82085038D01*
X122465581Y-82105250D01*
X122470797Y-82126074D01*
X122473947Y-82147309D01*
X122475000Y-82168750D01*
X122475000Y-82606250D01*
X122473947Y-82627691D01*
X122470797Y-82648926D01*
X122465581Y-82669750D01*
X122458349Y-82689962D01*
X122449170Y-82709368D01*
X122438134Y-82727781D01*
X122425346Y-82745024D01*
X122410930Y-82760930D01*
X122395024Y-82775346D01*
X122377781Y-82788134D01*
X122359368Y-82799170D01*
X122339962Y-82808349D01*
X122319750Y-82815581D01*
X122298926Y-82820797D01*
X122277691Y-82823947D01*
X122256250Y-82825000D01*
X121743750Y-82825000D01*
X121722309Y-82823947D01*
X121701074Y-82820797D01*
X121680250Y-82815581D01*
X121660038Y-82808349D01*
X121640632Y-82799170D01*
X121622219Y-82788134D01*
X121604976Y-82775346D01*
X121589070Y-82760930D01*
X121574654Y-82745024D01*
X121561866Y-82727781D01*
X121550830Y-82709368D01*
X121541651Y-82689962D01*
X121534419Y-82669750D01*
X121529203Y-82648926D01*
X121526053Y-82627691D01*
X121525000Y-82606250D01*
X121525000Y-82168750D01*
X121526053Y-82147309D01*
X121529203Y-82126074D01*
X121534419Y-82105250D01*
X121541651Y-82085038D01*
X121550830Y-82065632D01*
X121561866Y-82047219D01*
X121574654Y-82029976D01*
X121589070Y-82014070D01*
X121604976Y-81999654D01*
X121622219Y-81986866D01*
X121640632Y-81975830D01*
X121660038Y-81966651D01*
X121680250Y-81959419D01*
X121701074Y-81954203D01*
X121722309Y-81951053D01*
X121743750Y-81950000D01*
X122256250Y-81950000D01*
X122277691Y-81951053D01*
X122277691Y-81951053D01*
G37*
D14*
X122000000Y-82387500D03*
D13*
G36*
X122277691Y-80376053D02*
G01*
X122298926Y-80379203D01*
X122319750Y-80384419D01*
X122339962Y-80391651D01*
X122359368Y-80400830D01*
X122377781Y-80411866D01*
X122395024Y-80424654D01*
X122410930Y-80439070D01*
X122425346Y-80454976D01*
X122438134Y-80472219D01*
X122449170Y-80490632D01*
X122458349Y-80510038D01*
X122465581Y-80530250D01*
X122470797Y-80551074D01*
X122473947Y-80572309D01*
X122475000Y-80593750D01*
X122475000Y-81031250D01*
X122473947Y-81052691D01*
X122470797Y-81073926D01*
X122465581Y-81094750D01*
X122458349Y-81114962D01*
X122449170Y-81134368D01*
X122438134Y-81152781D01*
X122425346Y-81170024D01*
X122410930Y-81185930D01*
X122395024Y-81200346D01*
X122377781Y-81213134D01*
X122359368Y-81224170D01*
X122339962Y-81233349D01*
X122319750Y-81240581D01*
X122298926Y-81245797D01*
X122277691Y-81248947D01*
X122256250Y-81250000D01*
X121743750Y-81250000D01*
X121722309Y-81248947D01*
X121701074Y-81245797D01*
X121680250Y-81240581D01*
X121660038Y-81233349D01*
X121640632Y-81224170D01*
X121622219Y-81213134D01*
X121604976Y-81200346D01*
X121589070Y-81185930D01*
X121574654Y-81170024D01*
X121561866Y-81152781D01*
X121550830Y-81134368D01*
X121541651Y-81114962D01*
X121534419Y-81094750D01*
X121529203Y-81073926D01*
X121526053Y-81052691D01*
X121525000Y-81031250D01*
X121525000Y-80593750D01*
X121526053Y-80572309D01*
X121529203Y-80551074D01*
X121534419Y-80530250D01*
X121541651Y-80510038D01*
X121550830Y-80490632D01*
X121561866Y-80472219D01*
X121574654Y-80454976D01*
X121589070Y-80439070D01*
X121604976Y-80424654D01*
X121622219Y-80411866D01*
X121640632Y-80400830D01*
X121660038Y-80391651D01*
X121680250Y-80384419D01*
X121701074Y-80379203D01*
X121722309Y-80376053D01*
X121743750Y-80375000D01*
X122256250Y-80375000D01*
X122277691Y-80376053D01*
X122277691Y-80376053D01*
G37*
D14*
X122000000Y-80812500D03*
D13*
G36*
X119352691Y-97826053D02*
G01*
X119373926Y-97829203D01*
X119394750Y-97834419D01*
X119414962Y-97841651D01*
X119434368Y-97850830D01*
X119452781Y-97861866D01*
X119470024Y-97874654D01*
X119485930Y-97889070D01*
X119500346Y-97904976D01*
X119513134Y-97922219D01*
X119524170Y-97940632D01*
X119533349Y-97960038D01*
X119540581Y-97980250D01*
X119545797Y-98001074D01*
X119548947Y-98022309D01*
X119550000Y-98043750D01*
X119550000Y-98556250D01*
X119548947Y-98577691D01*
X119545797Y-98598926D01*
X119540581Y-98619750D01*
X119533349Y-98639962D01*
X119524170Y-98659368D01*
X119513134Y-98677781D01*
X119500346Y-98695024D01*
X119485930Y-98710930D01*
X119470024Y-98725346D01*
X119452781Y-98738134D01*
X119434368Y-98749170D01*
X119414962Y-98758349D01*
X119394750Y-98765581D01*
X119373926Y-98770797D01*
X119352691Y-98773947D01*
X119331250Y-98775000D01*
X118893750Y-98775000D01*
X118872309Y-98773947D01*
X118851074Y-98770797D01*
X118830250Y-98765581D01*
X118810038Y-98758349D01*
X118790632Y-98749170D01*
X118772219Y-98738134D01*
X118754976Y-98725346D01*
X118739070Y-98710930D01*
X118724654Y-98695024D01*
X118711866Y-98677781D01*
X118700830Y-98659368D01*
X118691651Y-98639962D01*
X118684419Y-98619750D01*
X118679203Y-98598926D01*
X118676053Y-98577691D01*
X118675000Y-98556250D01*
X118675000Y-98043750D01*
X118676053Y-98022309D01*
X118679203Y-98001074D01*
X118684419Y-97980250D01*
X118691651Y-97960038D01*
X118700830Y-97940632D01*
X118711866Y-97922219D01*
X118724654Y-97904976D01*
X118739070Y-97889070D01*
X118754976Y-97874654D01*
X118772219Y-97861866D01*
X118790632Y-97850830D01*
X118810038Y-97841651D01*
X118830250Y-97834419D01*
X118851074Y-97829203D01*
X118872309Y-97826053D01*
X118893750Y-97825000D01*
X119331250Y-97825000D01*
X119352691Y-97826053D01*
X119352691Y-97826053D01*
G37*
D14*
X119112500Y-98300000D03*
D13*
G36*
X120927691Y-97826053D02*
G01*
X120948926Y-97829203D01*
X120969750Y-97834419D01*
X120989962Y-97841651D01*
X121009368Y-97850830D01*
X121027781Y-97861866D01*
X121045024Y-97874654D01*
X121060930Y-97889070D01*
X121075346Y-97904976D01*
X121088134Y-97922219D01*
X121099170Y-97940632D01*
X121108349Y-97960038D01*
X121115581Y-97980250D01*
X121120797Y-98001074D01*
X121123947Y-98022309D01*
X121125000Y-98043750D01*
X121125000Y-98556250D01*
X121123947Y-98577691D01*
X121120797Y-98598926D01*
X121115581Y-98619750D01*
X121108349Y-98639962D01*
X121099170Y-98659368D01*
X121088134Y-98677781D01*
X121075346Y-98695024D01*
X121060930Y-98710930D01*
X121045024Y-98725346D01*
X121027781Y-98738134D01*
X121009368Y-98749170D01*
X120989962Y-98758349D01*
X120969750Y-98765581D01*
X120948926Y-98770797D01*
X120927691Y-98773947D01*
X120906250Y-98775000D01*
X120468750Y-98775000D01*
X120447309Y-98773947D01*
X120426074Y-98770797D01*
X120405250Y-98765581D01*
X120385038Y-98758349D01*
X120365632Y-98749170D01*
X120347219Y-98738134D01*
X120329976Y-98725346D01*
X120314070Y-98710930D01*
X120299654Y-98695024D01*
X120286866Y-98677781D01*
X120275830Y-98659368D01*
X120266651Y-98639962D01*
X120259419Y-98619750D01*
X120254203Y-98598926D01*
X120251053Y-98577691D01*
X120250000Y-98556250D01*
X120250000Y-98043750D01*
X120251053Y-98022309D01*
X120254203Y-98001074D01*
X120259419Y-97980250D01*
X120266651Y-97960038D01*
X120275830Y-97940632D01*
X120286866Y-97922219D01*
X120299654Y-97904976D01*
X120314070Y-97889070D01*
X120329976Y-97874654D01*
X120347219Y-97861866D01*
X120365632Y-97850830D01*
X120385038Y-97841651D01*
X120405250Y-97834419D01*
X120426074Y-97829203D01*
X120447309Y-97826053D01*
X120468750Y-97825000D01*
X120906250Y-97825000D01*
X120927691Y-97826053D01*
X120927691Y-97826053D01*
G37*
D14*
X120687500Y-98300000D03*
D13*
G36*
X113352691Y-97826053D02*
G01*
X113373926Y-97829203D01*
X113394750Y-97834419D01*
X113414962Y-97841651D01*
X113434368Y-97850830D01*
X113452781Y-97861866D01*
X113470024Y-97874654D01*
X113485930Y-97889070D01*
X113500346Y-97904976D01*
X113513134Y-97922219D01*
X113524170Y-97940632D01*
X113533349Y-97960038D01*
X113540581Y-97980250D01*
X113545797Y-98001074D01*
X113548947Y-98022309D01*
X113550000Y-98043750D01*
X113550000Y-98556250D01*
X113548947Y-98577691D01*
X113545797Y-98598926D01*
X113540581Y-98619750D01*
X113533349Y-98639962D01*
X113524170Y-98659368D01*
X113513134Y-98677781D01*
X113500346Y-98695024D01*
X113485930Y-98710930D01*
X113470024Y-98725346D01*
X113452781Y-98738134D01*
X113434368Y-98749170D01*
X113414962Y-98758349D01*
X113394750Y-98765581D01*
X113373926Y-98770797D01*
X113352691Y-98773947D01*
X113331250Y-98775000D01*
X112893750Y-98775000D01*
X112872309Y-98773947D01*
X112851074Y-98770797D01*
X112830250Y-98765581D01*
X112810038Y-98758349D01*
X112790632Y-98749170D01*
X112772219Y-98738134D01*
X112754976Y-98725346D01*
X112739070Y-98710930D01*
X112724654Y-98695024D01*
X112711866Y-98677781D01*
X112700830Y-98659368D01*
X112691651Y-98639962D01*
X112684419Y-98619750D01*
X112679203Y-98598926D01*
X112676053Y-98577691D01*
X112675000Y-98556250D01*
X112675000Y-98043750D01*
X112676053Y-98022309D01*
X112679203Y-98001074D01*
X112684419Y-97980250D01*
X112691651Y-97960038D01*
X112700830Y-97940632D01*
X112711866Y-97922219D01*
X112724654Y-97904976D01*
X112739070Y-97889070D01*
X112754976Y-97874654D01*
X112772219Y-97861866D01*
X112790632Y-97850830D01*
X112810038Y-97841651D01*
X112830250Y-97834419D01*
X112851074Y-97829203D01*
X112872309Y-97826053D01*
X112893750Y-97825000D01*
X113331250Y-97825000D01*
X113352691Y-97826053D01*
X113352691Y-97826053D01*
G37*
D14*
X113112500Y-98300000D03*
D13*
G36*
X114927691Y-97826053D02*
G01*
X114948926Y-97829203D01*
X114969750Y-97834419D01*
X114989962Y-97841651D01*
X115009368Y-97850830D01*
X115027781Y-97861866D01*
X115045024Y-97874654D01*
X115060930Y-97889070D01*
X115075346Y-97904976D01*
X115088134Y-97922219D01*
X115099170Y-97940632D01*
X115108349Y-97960038D01*
X115115581Y-97980250D01*
X115120797Y-98001074D01*
X115123947Y-98022309D01*
X115125000Y-98043750D01*
X115125000Y-98556250D01*
X115123947Y-98577691D01*
X115120797Y-98598926D01*
X115115581Y-98619750D01*
X115108349Y-98639962D01*
X115099170Y-98659368D01*
X115088134Y-98677781D01*
X115075346Y-98695024D01*
X115060930Y-98710930D01*
X115045024Y-98725346D01*
X115027781Y-98738134D01*
X115009368Y-98749170D01*
X114989962Y-98758349D01*
X114969750Y-98765581D01*
X114948926Y-98770797D01*
X114927691Y-98773947D01*
X114906250Y-98775000D01*
X114468750Y-98775000D01*
X114447309Y-98773947D01*
X114426074Y-98770797D01*
X114405250Y-98765581D01*
X114385038Y-98758349D01*
X114365632Y-98749170D01*
X114347219Y-98738134D01*
X114329976Y-98725346D01*
X114314070Y-98710930D01*
X114299654Y-98695024D01*
X114286866Y-98677781D01*
X114275830Y-98659368D01*
X114266651Y-98639962D01*
X114259419Y-98619750D01*
X114254203Y-98598926D01*
X114251053Y-98577691D01*
X114250000Y-98556250D01*
X114250000Y-98043750D01*
X114251053Y-98022309D01*
X114254203Y-98001074D01*
X114259419Y-97980250D01*
X114266651Y-97960038D01*
X114275830Y-97940632D01*
X114286866Y-97922219D01*
X114299654Y-97904976D01*
X114314070Y-97889070D01*
X114329976Y-97874654D01*
X114347219Y-97861866D01*
X114365632Y-97850830D01*
X114385038Y-97841651D01*
X114405250Y-97834419D01*
X114426074Y-97829203D01*
X114447309Y-97826053D01*
X114468750Y-97825000D01*
X114906250Y-97825000D01*
X114927691Y-97826053D01*
X114927691Y-97826053D01*
G37*
D14*
X114687500Y-98300000D03*
D13*
G36*
X125352691Y-97826053D02*
G01*
X125373926Y-97829203D01*
X125394750Y-97834419D01*
X125414962Y-97841651D01*
X125434368Y-97850830D01*
X125452781Y-97861866D01*
X125470024Y-97874654D01*
X125485930Y-97889070D01*
X125500346Y-97904976D01*
X125513134Y-97922219D01*
X125524170Y-97940632D01*
X125533349Y-97960038D01*
X125540581Y-97980250D01*
X125545797Y-98001074D01*
X125548947Y-98022309D01*
X125550000Y-98043750D01*
X125550000Y-98556250D01*
X125548947Y-98577691D01*
X125545797Y-98598926D01*
X125540581Y-98619750D01*
X125533349Y-98639962D01*
X125524170Y-98659368D01*
X125513134Y-98677781D01*
X125500346Y-98695024D01*
X125485930Y-98710930D01*
X125470024Y-98725346D01*
X125452781Y-98738134D01*
X125434368Y-98749170D01*
X125414962Y-98758349D01*
X125394750Y-98765581D01*
X125373926Y-98770797D01*
X125352691Y-98773947D01*
X125331250Y-98775000D01*
X124893750Y-98775000D01*
X124872309Y-98773947D01*
X124851074Y-98770797D01*
X124830250Y-98765581D01*
X124810038Y-98758349D01*
X124790632Y-98749170D01*
X124772219Y-98738134D01*
X124754976Y-98725346D01*
X124739070Y-98710930D01*
X124724654Y-98695024D01*
X124711866Y-98677781D01*
X124700830Y-98659368D01*
X124691651Y-98639962D01*
X124684419Y-98619750D01*
X124679203Y-98598926D01*
X124676053Y-98577691D01*
X124675000Y-98556250D01*
X124675000Y-98043750D01*
X124676053Y-98022309D01*
X124679203Y-98001074D01*
X124684419Y-97980250D01*
X124691651Y-97960038D01*
X124700830Y-97940632D01*
X124711866Y-97922219D01*
X124724654Y-97904976D01*
X124739070Y-97889070D01*
X124754976Y-97874654D01*
X124772219Y-97861866D01*
X124790632Y-97850830D01*
X124810038Y-97841651D01*
X124830250Y-97834419D01*
X124851074Y-97829203D01*
X124872309Y-97826053D01*
X124893750Y-97825000D01*
X125331250Y-97825000D01*
X125352691Y-97826053D01*
X125352691Y-97826053D01*
G37*
D14*
X125112500Y-98300000D03*
D13*
G36*
X126927691Y-97826053D02*
G01*
X126948926Y-97829203D01*
X126969750Y-97834419D01*
X126989962Y-97841651D01*
X127009368Y-97850830D01*
X127027781Y-97861866D01*
X127045024Y-97874654D01*
X127060930Y-97889070D01*
X127075346Y-97904976D01*
X127088134Y-97922219D01*
X127099170Y-97940632D01*
X127108349Y-97960038D01*
X127115581Y-97980250D01*
X127120797Y-98001074D01*
X127123947Y-98022309D01*
X127125000Y-98043750D01*
X127125000Y-98556250D01*
X127123947Y-98577691D01*
X127120797Y-98598926D01*
X127115581Y-98619750D01*
X127108349Y-98639962D01*
X127099170Y-98659368D01*
X127088134Y-98677781D01*
X127075346Y-98695024D01*
X127060930Y-98710930D01*
X127045024Y-98725346D01*
X127027781Y-98738134D01*
X127009368Y-98749170D01*
X126989962Y-98758349D01*
X126969750Y-98765581D01*
X126948926Y-98770797D01*
X126927691Y-98773947D01*
X126906250Y-98775000D01*
X126468750Y-98775000D01*
X126447309Y-98773947D01*
X126426074Y-98770797D01*
X126405250Y-98765581D01*
X126385038Y-98758349D01*
X126365632Y-98749170D01*
X126347219Y-98738134D01*
X126329976Y-98725346D01*
X126314070Y-98710930D01*
X126299654Y-98695024D01*
X126286866Y-98677781D01*
X126275830Y-98659368D01*
X126266651Y-98639962D01*
X126259419Y-98619750D01*
X126254203Y-98598926D01*
X126251053Y-98577691D01*
X126250000Y-98556250D01*
X126250000Y-98043750D01*
X126251053Y-98022309D01*
X126254203Y-98001074D01*
X126259419Y-97980250D01*
X126266651Y-97960038D01*
X126275830Y-97940632D01*
X126286866Y-97922219D01*
X126299654Y-97904976D01*
X126314070Y-97889070D01*
X126329976Y-97874654D01*
X126347219Y-97861866D01*
X126365632Y-97850830D01*
X126385038Y-97841651D01*
X126405250Y-97834419D01*
X126426074Y-97829203D01*
X126447309Y-97826053D01*
X126468750Y-97825000D01*
X126906250Y-97825000D01*
X126927691Y-97826053D01*
X126927691Y-97826053D01*
G37*
D14*
X126687500Y-98300000D03*
D13*
G36*
X107852691Y-97826053D02*
G01*
X107873926Y-97829203D01*
X107894750Y-97834419D01*
X107914962Y-97841651D01*
X107934368Y-97850830D01*
X107952781Y-97861866D01*
X107970024Y-97874654D01*
X107985930Y-97889070D01*
X108000346Y-97904976D01*
X108013134Y-97922219D01*
X108024170Y-97940632D01*
X108033349Y-97960038D01*
X108040581Y-97980250D01*
X108045797Y-98001074D01*
X108048947Y-98022309D01*
X108050000Y-98043750D01*
X108050000Y-98556250D01*
X108048947Y-98577691D01*
X108045797Y-98598926D01*
X108040581Y-98619750D01*
X108033349Y-98639962D01*
X108024170Y-98659368D01*
X108013134Y-98677781D01*
X108000346Y-98695024D01*
X107985930Y-98710930D01*
X107970024Y-98725346D01*
X107952781Y-98738134D01*
X107934368Y-98749170D01*
X107914962Y-98758349D01*
X107894750Y-98765581D01*
X107873926Y-98770797D01*
X107852691Y-98773947D01*
X107831250Y-98775000D01*
X107393750Y-98775000D01*
X107372309Y-98773947D01*
X107351074Y-98770797D01*
X107330250Y-98765581D01*
X107310038Y-98758349D01*
X107290632Y-98749170D01*
X107272219Y-98738134D01*
X107254976Y-98725346D01*
X107239070Y-98710930D01*
X107224654Y-98695024D01*
X107211866Y-98677781D01*
X107200830Y-98659368D01*
X107191651Y-98639962D01*
X107184419Y-98619750D01*
X107179203Y-98598926D01*
X107176053Y-98577691D01*
X107175000Y-98556250D01*
X107175000Y-98043750D01*
X107176053Y-98022309D01*
X107179203Y-98001074D01*
X107184419Y-97980250D01*
X107191651Y-97960038D01*
X107200830Y-97940632D01*
X107211866Y-97922219D01*
X107224654Y-97904976D01*
X107239070Y-97889070D01*
X107254976Y-97874654D01*
X107272219Y-97861866D01*
X107290632Y-97850830D01*
X107310038Y-97841651D01*
X107330250Y-97834419D01*
X107351074Y-97829203D01*
X107372309Y-97826053D01*
X107393750Y-97825000D01*
X107831250Y-97825000D01*
X107852691Y-97826053D01*
X107852691Y-97826053D01*
G37*
D14*
X107612500Y-98300000D03*
D13*
G36*
X109427691Y-97826053D02*
G01*
X109448926Y-97829203D01*
X109469750Y-97834419D01*
X109489962Y-97841651D01*
X109509368Y-97850830D01*
X109527781Y-97861866D01*
X109545024Y-97874654D01*
X109560930Y-97889070D01*
X109575346Y-97904976D01*
X109588134Y-97922219D01*
X109599170Y-97940632D01*
X109608349Y-97960038D01*
X109615581Y-97980250D01*
X109620797Y-98001074D01*
X109623947Y-98022309D01*
X109625000Y-98043750D01*
X109625000Y-98556250D01*
X109623947Y-98577691D01*
X109620797Y-98598926D01*
X109615581Y-98619750D01*
X109608349Y-98639962D01*
X109599170Y-98659368D01*
X109588134Y-98677781D01*
X109575346Y-98695024D01*
X109560930Y-98710930D01*
X109545024Y-98725346D01*
X109527781Y-98738134D01*
X109509368Y-98749170D01*
X109489962Y-98758349D01*
X109469750Y-98765581D01*
X109448926Y-98770797D01*
X109427691Y-98773947D01*
X109406250Y-98775000D01*
X108968750Y-98775000D01*
X108947309Y-98773947D01*
X108926074Y-98770797D01*
X108905250Y-98765581D01*
X108885038Y-98758349D01*
X108865632Y-98749170D01*
X108847219Y-98738134D01*
X108829976Y-98725346D01*
X108814070Y-98710930D01*
X108799654Y-98695024D01*
X108786866Y-98677781D01*
X108775830Y-98659368D01*
X108766651Y-98639962D01*
X108759419Y-98619750D01*
X108754203Y-98598926D01*
X108751053Y-98577691D01*
X108750000Y-98556250D01*
X108750000Y-98043750D01*
X108751053Y-98022309D01*
X108754203Y-98001074D01*
X108759419Y-97980250D01*
X108766651Y-97960038D01*
X108775830Y-97940632D01*
X108786866Y-97922219D01*
X108799654Y-97904976D01*
X108814070Y-97889070D01*
X108829976Y-97874654D01*
X108847219Y-97861866D01*
X108865632Y-97850830D01*
X108885038Y-97841651D01*
X108905250Y-97834419D01*
X108926074Y-97829203D01*
X108947309Y-97826053D01*
X108968750Y-97825000D01*
X109406250Y-97825000D01*
X109427691Y-97826053D01*
X109427691Y-97826053D01*
G37*
D14*
X109187500Y-98300000D03*
D13*
G36*
X128277691Y-90051053D02*
G01*
X128298926Y-90054203D01*
X128319750Y-90059419D01*
X128339962Y-90066651D01*
X128359368Y-90075830D01*
X128377781Y-90086866D01*
X128395024Y-90099654D01*
X128410930Y-90114070D01*
X128425346Y-90129976D01*
X128438134Y-90147219D01*
X128449170Y-90165632D01*
X128458349Y-90185038D01*
X128465581Y-90205250D01*
X128470797Y-90226074D01*
X128473947Y-90247309D01*
X128475000Y-90268750D01*
X128475000Y-90706250D01*
X128473947Y-90727691D01*
X128470797Y-90748926D01*
X128465581Y-90769750D01*
X128458349Y-90789962D01*
X128449170Y-90809368D01*
X128438134Y-90827781D01*
X128425346Y-90845024D01*
X128410930Y-90860930D01*
X128395024Y-90875346D01*
X128377781Y-90888134D01*
X128359368Y-90899170D01*
X128339962Y-90908349D01*
X128319750Y-90915581D01*
X128298926Y-90920797D01*
X128277691Y-90923947D01*
X128256250Y-90925000D01*
X127743750Y-90925000D01*
X127722309Y-90923947D01*
X127701074Y-90920797D01*
X127680250Y-90915581D01*
X127660038Y-90908349D01*
X127640632Y-90899170D01*
X127622219Y-90888134D01*
X127604976Y-90875346D01*
X127589070Y-90860930D01*
X127574654Y-90845024D01*
X127561866Y-90827781D01*
X127550830Y-90809368D01*
X127541651Y-90789962D01*
X127534419Y-90769750D01*
X127529203Y-90748926D01*
X127526053Y-90727691D01*
X127525000Y-90706250D01*
X127525000Y-90268750D01*
X127526053Y-90247309D01*
X127529203Y-90226074D01*
X127534419Y-90205250D01*
X127541651Y-90185038D01*
X127550830Y-90165632D01*
X127561866Y-90147219D01*
X127574654Y-90129976D01*
X127589070Y-90114070D01*
X127604976Y-90099654D01*
X127622219Y-90086866D01*
X127640632Y-90075830D01*
X127660038Y-90066651D01*
X127680250Y-90059419D01*
X127701074Y-90054203D01*
X127722309Y-90051053D01*
X127743750Y-90050000D01*
X128256250Y-90050000D01*
X128277691Y-90051053D01*
X128277691Y-90051053D01*
G37*
D14*
X128000000Y-90487500D03*
D13*
G36*
X128277691Y-88476053D02*
G01*
X128298926Y-88479203D01*
X128319750Y-88484419D01*
X128339962Y-88491651D01*
X128359368Y-88500830D01*
X128377781Y-88511866D01*
X128395024Y-88524654D01*
X128410930Y-88539070D01*
X128425346Y-88554976D01*
X128438134Y-88572219D01*
X128449170Y-88590632D01*
X128458349Y-88610038D01*
X128465581Y-88630250D01*
X128470797Y-88651074D01*
X128473947Y-88672309D01*
X128475000Y-88693750D01*
X128475000Y-89131250D01*
X128473947Y-89152691D01*
X128470797Y-89173926D01*
X128465581Y-89194750D01*
X128458349Y-89214962D01*
X128449170Y-89234368D01*
X128438134Y-89252781D01*
X128425346Y-89270024D01*
X128410930Y-89285930D01*
X128395024Y-89300346D01*
X128377781Y-89313134D01*
X128359368Y-89324170D01*
X128339962Y-89333349D01*
X128319750Y-89340581D01*
X128298926Y-89345797D01*
X128277691Y-89348947D01*
X128256250Y-89350000D01*
X127743750Y-89350000D01*
X127722309Y-89348947D01*
X127701074Y-89345797D01*
X127680250Y-89340581D01*
X127660038Y-89333349D01*
X127640632Y-89324170D01*
X127622219Y-89313134D01*
X127604976Y-89300346D01*
X127589070Y-89285930D01*
X127574654Y-89270024D01*
X127561866Y-89252781D01*
X127550830Y-89234368D01*
X127541651Y-89214962D01*
X127534419Y-89194750D01*
X127529203Y-89173926D01*
X127526053Y-89152691D01*
X127525000Y-89131250D01*
X127525000Y-88693750D01*
X127526053Y-88672309D01*
X127529203Y-88651074D01*
X127534419Y-88630250D01*
X127541651Y-88610038D01*
X127550830Y-88590632D01*
X127561866Y-88572219D01*
X127574654Y-88554976D01*
X127589070Y-88539070D01*
X127604976Y-88524654D01*
X127622219Y-88511866D01*
X127640632Y-88500830D01*
X127660038Y-88491651D01*
X127680250Y-88484419D01*
X127701074Y-88479203D01*
X127722309Y-88476053D01*
X127743750Y-88475000D01*
X128256250Y-88475000D01*
X128277691Y-88476053D01*
X128277691Y-88476053D01*
G37*
D14*
X128000000Y-88912500D03*
D13*
G36*
X128277691Y-81951053D02*
G01*
X128298926Y-81954203D01*
X128319750Y-81959419D01*
X128339962Y-81966651D01*
X128359368Y-81975830D01*
X128377781Y-81986866D01*
X128395024Y-81999654D01*
X128410930Y-82014070D01*
X128425346Y-82029976D01*
X128438134Y-82047219D01*
X128449170Y-82065632D01*
X128458349Y-82085038D01*
X128465581Y-82105250D01*
X128470797Y-82126074D01*
X128473947Y-82147309D01*
X128475000Y-82168750D01*
X128475000Y-82606250D01*
X128473947Y-82627691D01*
X128470797Y-82648926D01*
X128465581Y-82669750D01*
X128458349Y-82689962D01*
X128449170Y-82709368D01*
X128438134Y-82727781D01*
X128425346Y-82745024D01*
X128410930Y-82760930D01*
X128395024Y-82775346D01*
X128377781Y-82788134D01*
X128359368Y-82799170D01*
X128339962Y-82808349D01*
X128319750Y-82815581D01*
X128298926Y-82820797D01*
X128277691Y-82823947D01*
X128256250Y-82825000D01*
X127743750Y-82825000D01*
X127722309Y-82823947D01*
X127701074Y-82820797D01*
X127680250Y-82815581D01*
X127660038Y-82808349D01*
X127640632Y-82799170D01*
X127622219Y-82788134D01*
X127604976Y-82775346D01*
X127589070Y-82760930D01*
X127574654Y-82745024D01*
X127561866Y-82727781D01*
X127550830Y-82709368D01*
X127541651Y-82689962D01*
X127534419Y-82669750D01*
X127529203Y-82648926D01*
X127526053Y-82627691D01*
X127525000Y-82606250D01*
X127525000Y-82168750D01*
X127526053Y-82147309D01*
X127529203Y-82126074D01*
X127534419Y-82105250D01*
X127541651Y-82085038D01*
X127550830Y-82065632D01*
X127561866Y-82047219D01*
X127574654Y-82029976D01*
X127589070Y-82014070D01*
X127604976Y-81999654D01*
X127622219Y-81986866D01*
X127640632Y-81975830D01*
X127660038Y-81966651D01*
X127680250Y-81959419D01*
X127701074Y-81954203D01*
X127722309Y-81951053D01*
X127743750Y-81950000D01*
X128256250Y-81950000D01*
X128277691Y-81951053D01*
X128277691Y-81951053D01*
G37*
D14*
X128000000Y-82387500D03*
D13*
G36*
X128277691Y-80376053D02*
G01*
X128298926Y-80379203D01*
X128319750Y-80384419D01*
X128339962Y-80391651D01*
X128359368Y-80400830D01*
X128377781Y-80411866D01*
X128395024Y-80424654D01*
X128410930Y-80439070D01*
X128425346Y-80454976D01*
X128438134Y-80472219D01*
X128449170Y-80490632D01*
X128458349Y-80510038D01*
X128465581Y-80530250D01*
X128470797Y-80551074D01*
X128473947Y-80572309D01*
X128475000Y-80593750D01*
X128475000Y-81031250D01*
X128473947Y-81052691D01*
X128470797Y-81073926D01*
X128465581Y-81094750D01*
X128458349Y-81114962D01*
X128449170Y-81134368D01*
X128438134Y-81152781D01*
X128425346Y-81170024D01*
X128410930Y-81185930D01*
X128395024Y-81200346D01*
X128377781Y-81213134D01*
X128359368Y-81224170D01*
X128339962Y-81233349D01*
X128319750Y-81240581D01*
X128298926Y-81245797D01*
X128277691Y-81248947D01*
X128256250Y-81250000D01*
X127743750Y-81250000D01*
X127722309Y-81248947D01*
X127701074Y-81245797D01*
X127680250Y-81240581D01*
X127660038Y-81233349D01*
X127640632Y-81224170D01*
X127622219Y-81213134D01*
X127604976Y-81200346D01*
X127589070Y-81185930D01*
X127574654Y-81170024D01*
X127561866Y-81152781D01*
X127550830Y-81134368D01*
X127541651Y-81114962D01*
X127534419Y-81094750D01*
X127529203Y-81073926D01*
X127526053Y-81052691D01*
X127525000Y-81031250D01*
X127525000Y-80593750D01*
X127526053Y-80572309D01*
X127529203Y-80551074D01*
X127534419Y-80530250D01*
X127541651Y-80510038D01*
X127550830Y-80490632D01*
X127561866Y-80472219D01*
X127574654Y-80454976D01*
X127589070Y-80439070D01*
X127604976Y-80424654D01*
X127622219Y-80411866D01*
X127640632Y-80400830D01*
X127660038Y-80391651D01*
X127680250Y-80384419D01*
X127701074Y-80379203D01*
X127722309Y-80376053D01*
X127743750Y-80375000D01*
X128256250Y-80375000D01*
X128277691Y-80376053D01*
X128277691Y-80376053D01*
G37*
D14*
X128000000Y-80812500D03*
D15*
X108400000Y-96600000D03*
X107450000Y-94600000D03*
X109350000Y-94600000D03*
X113900000Y-96600000D03*
X112950000Y-94600000D03*
X114850000Y-94600000D03*
X125900000Y-96600000D03*
X124950000Y-94600000D03*
X126850000Y-94600000D03*
X119900000Y-96600000D03*
X118950000Y-94600000D03*
X120850000Y-94600000D03*
D16*
X126000000Y-89700000D03*
X124000000Y-90650000D03*
X124000000Y-88750000D03*
X126000000Y-81600000D03*
X124000000Y-82550000D03*
X124000000Y-80650000D03*
D13*
G36*
X125827691Y-84126053D02*
G01*
X125848926Y-84129203D01*
X125869750Y-84134419D01*
X125889962Y-84141651D01*
X125909368Y-84150830D01*
X125927781Y-84161866D01*
X125945024Y-84174654D01*
X125960930Y-84189070D01*
X125975346Y-84204976D01*
X125988134Y-84222219D01*
X125999170Y-84240632D01*
X126008349Y-84260038D01*
X126015581Y-84280250D01*
X126020797Y-84301074D01*
X126023947Y-84322309D01*
X126025000Y-84343750D01*
X126025000Y-84856250D01*
X126023947Y-84877691D01*
X126020797Y-84898926D01*
X126015581Y-84919750D01*
X126008349Y-84939962D01*
X125999170Y-84959368D01*
X125988134Y-84977781D01*
X125975346Y-84995024D01*
X125960930Y-85010930D01*
X125945024Y-85025346D01*
X125927781Y-85038134D01*
X125909368Y-85049170D01*
X125889962Y-85058349D01*
X125869750Y-85065581D01*
X125848926Y-85070797D01*
X125827691Y-85073947D01*
X125806250Y-85075000D01*
X125368750Y-85075000D01*
X125347309Y-85073947D01*
X125326074Y-85070797D01*
X125305250Y-85065581D01*
X125285038Y-85058349D01*
X125265632Y-85049170D01*
X125247219Y-85038134D01*
X125229976Y-85025346D01*
X125214070Y-85010930D01*
X125199654Y-84995024D01*
X125186866Y-84977781D01*
X125175830Y-84959368D01*
X125166651Y-84939962D01*
X125159419Y-84919750D01*
X125154203Y-84898926D01*
X125151053Y-84877691D01*
X125150000Y-84856250D01*
X125150000Y-84343750D01*
X125151053Y-84322309D01*
X125154203Y-84301074D01*
X125159419Y-84280250D01*
X125166651Y-84260038D01*
X125175830Y-84240632D01*
X125186866Y-84222219D01*
X125199654Y-84204976D01*
X125214070Y-84189070D01*
X125229976Y-84174654D01*
X125247219Y-84161866D01*
X125265632Y-84150830D01*
X125285038Y-84141651D01*
X125305250Y-84134419D01*
X125326074Y-84129203D01*
X125347309Y-84126053D01*
X125368750Y-84125000D01*
X125806250Y-84125000D01*
X125827691Y-84126053D01*
X125827691Y-84126053D01*
G37*
D14*
X125587500Y-84600000D03*
D13*
G36*
X124252691Y-84126053D02*
G01*
X124273926Y-84129203D01*
X124294750Y-84134419D01*
X124314962Y-84141651D01*
X124334368Y-84150830D01*
X124352781Y-84161866D01*
X124370024Y-84174654D01*
X124385930Y-84189070D01*
X124400346Y-84204976D01*
X124413134Y-84222219D01*
X124424170Y-84240632D01*
X124433349Y-84260038D01*
X124440581Y-84280250D01*
X124445797Y-84301074D01*
X124448947Y-84322309D01*
X124450000Y-84343750D01*
X124450000Y-84856250D01*
X124448947Y-84877691D01*
X124445797Y-84898926D01*
X124440581Y-84919750D01*
X124433349Y-84939962D01*
X124424170Y-84959368D01*
X124413134Y-84977781D01*
X124400346Y-84995024D01*
X124385930Y-85010930D01*
X124370024Y-85025346D01*
X124352781Y-85038134D01*
X124334368Y-85049170D01*
X124314962Y-85058349D01*
X124294750Y-85065581D01*
X124273926Y-85070797D01*
X124252691Y-85073947D01*
X124231250Y-85075000D01*
X123793750Y-85075000D01*
X123772309Y-85073947D01*
X123751074Y-85070797D01*
X123730250Y-85065581D01*
X123710038Y-85058349D01*
X123690632Y-85049170D01*
X123672219Y-85038134D01*
X123654976Y-85025346D01*
X123639070Y-85010930D01*
X123624654Y-84995024D01*
X123611866Y-84977781D01*
X123600830Y-84959368D01*
X123591651Y-84939962D01*
X123584419Y-84919750D01*
X123579203Y-84898926D01*
X123576053Y-84877691D01*
X123575000Y-84856250D01*
X123575000Y-84343750D01*
X123576053Y-84322309D01*
X123579203Y-84301074D01*
X123584419Y-84280250D01*
X123591651Y-84260038D01*
X123600830Y-84240632D01*
X123611866Y-84222219D01*
X123624654Y-84204976D01*
X123639070Y-84189070D01*
X123654976Y-84174654D01*
X123672219Y-84161866D01*
X123690632Y-84150830D01*
X123710038Y-84141651D01*
X123730250Y-84134419D01*
X123751074Y-84129203D01*
X123772309Y-84126053D01*
X123793750Y-84125000D01*
X124231250Y-84125000D01*
X124252691Y-84126053D01*
X124252691Y-84126053D01*
G37*
D14*
X124012500Y-84600000D03*
D13*
G36*
X125827691Y-86126053D02*
G01*
X125848926Y-86129203D01*
X125869750Y-86134419D01*
X125889962Y-86141651D01*
X125909368Y-86150830D01*
X125927781Y-86161866D01*
X125945024Y-86174654D01*
X125960930Y-86189070D01*
X125975346Y-86204976D01*
X125988134Y-86222219D01*
X125999170Y-86240632D01*
X126008349Y-86260038D01*
X126015581Y-86280250D01*
X126020797Y-86301074D01*
X126023947Y-86322309D01*
X126025000Y-86343750D01*
X126025000Y-86856250D01*
X126023947Y-86877691D01*
X126020797Y-86898926D01*
X126015581Y-86919750D01*
X126008349Y-86939962D01*
X125999170Y-86959368D01*
X125988134Y-86977781D01*
X125975346Y-86995024D01*
X125960930Y-87010930D01*
X125945024Y-87025346D01*
X125927781Y-87038134D01*
X125909368Y-87049170D01*
X125889962Y-87058349D01*
X125869750Y-87065581D01*
X125848926Y-87070797D01*
X125827691Y-87073947D01*
X125806250Y-87075000D01*
X125368750Y-87075000D01*
X125347309Y-87073947D01*
X125326074Y-87070797D01*
X125305250Y-87065581D01*
X125285038Y-87058349D01*
X125265632Y-87049170D01*
X125247219Y-87038134D01*
X125229976Y-87025346D01*
X125214070Y-87010930D01*
X125199654Y-86995024D01*
X125186866Y-86977781D01*
X125175830Y-86959368D01*
X125166651Y-86939962D01*
X125159419Y-86919750D01*
X125154203Y-86898926D01*
X125151053Y-86877691D01*
X125150000Y-86856250D01*
X125150000Y-86343750D01*
X125151053Y-86322309D01*
X125154203Y-86301074D01*
X125159419Y-86280250D01*
X125166651Y-86260038D01*
X125175830Y-86240632D01*
X125186866Y-86222219D01*
X125199654Y-86204976D01*
X125214070Y-86189070D01*
X125229976Y-86174654D01*
X125247219Y-86161866D01*
X125265632Y-86150830D01*
X125285038Y-86141651D01*
X125305250Y-86134419D01*
X125326074Y-86129203D01*
X125347309Y-86126053D01*
X125368750Y-86125000D01*
X125806250Y-86125000D01*
X125827691Y-86126053D01*
X125827691Y-86126053D01*
G37*
D14*
X125587500Y-86600000D03*
D13*
G36*
X124252691Y-86126053D02*
G01*
X124273926Y-86129203D01*
X124294750Y-86134419D01*
X124314962Y-86141651D01*
X124334368Y-86150830D01*
X124352781Y-86161866D01*
X124370024Y-86174654D01*
X124385930Y-86189070D01*
X124400346Y-86204976D01*
X124413134Y-86222219D01*
X124424170Y-86240632D01*
X124433349Y-86260038D01*
X124440581Y-86280250D01*
X124445797Y-86301074D01*
X124448947Y-86322309D01*
X124450000Y-86343750D01*
X124450000Y-86856250D01*
X124448947Y-86877691D01*
X124445797Y-86898926D01*
X124440581Y-86919750D01*
X124433349Y-86939962D01*
X124424170Y-86959368D01*
X124413134Y-86977781D01*
X124400346Y-86995024D01*
X124385930Y-87010930D01*
X124370024Y-87025346D01*
X124352781Y-87038134D01*
X124334368Y-87049170D01*
X124314962Y-87058349D01*
X124294750Y-87065581D01*
X124273926Y-87070797D01*
X124252691Y-87073947D01*
X124231250Y-87075000D01*
X123793750Y-87075000D01*
X123772309Y-87073947D01*
X123751074Y-87070797D01*
X123730250Y-87065581D01*
X123710038Y-87058349D01*
X123690632Y-87049170D01*
X123672219Y-87038134D01*
X123654976Y-87025346D01*
X123639070Y-87010930D01*
X123624654Y-86995024D01*
X123611866Y-86977781D01*
X123600830Y-86959368D01*
X123591651Y-86939962D01*
X123584419Y-86919750D01*
X123579203Y-86898926D01*
X123576053Y-86877691D01*
X123575000Y-86856250D01*
X123575000Y-86343750D01*
X123576053Y-86322309D01*
X123579203Y-86301074D01*
X123584419Y-86280250D01*
X123591651Y-86260038D01*
X123600830Y-86240632D01*
X123611866Y-86222219D01*
X123624654Y-86204976D01*
X123639070Y-86189070D01*
X123654976Y-86174654D01*
X123672219Y-86161866D01*
X123690632Y-86150830D01*
X123710038Y-86141651D01*
X123730250Y-86134419D01*
X123751074Y-86129203D01*
X123772309Y-86126053D01*
X123793750Y-86125000D01*
X124231250Y-86125000D01*
X124252691Y-86126053D01*
X124252691Y-86126053D01*
G37*
D14*
X124012500Y-86600000D03*
D13*
G36*
X112705142Y-80301174D02*
G01*
X112728803Y-80304684D01*
X112752007Y-80310496D01*
X112774529Y-80318554D01*
X112796153Y-80328782D01*
X112816670Y-80341079D01*
X112835883Y-80355329D01*
X112853607Y-80371393D01*
X112869671Y-80389117D01*
X112883921Y-80408330D01*
X112896218Y-80428847D01*
X112906446Y-80450471D01*
X112914504Y-80472993D01*
X112920316Y-80496197D01*
X112923826Y-80519858D01*
X112925000Y-80543750D01*
X112925000Y-81456250D01*
X112923826Y-81480142D01*
X112920316Y-81503803D01*
X112914504Y-81527007D01*
X112906446Y-81549529D01*
X112896218Y-81571153D01*
X112883921Y-81591670D01*
X112869671Y-81610883D01*
X112853607Y-81628607D01*
X112835883Y-81644671D01*
X112816670Y-81658921D01*
X112796153Y-81671218D01*
X112774529Y-81681446D01*
X112752007Y-81689504D01*
X112728803Y-81695316D01*
X112705142Y-81698826D01*
X112681250Y-81700000D01*
X112193750Y-81700000D01*
X112169858Y-81698826D01*
X112146197Y-81695316D01*
X112122993Y-81689504D01*
X112100471Y-81681446D01*
X112078847Y-81671218D01*
X112058330Y-81658921D01*
X112039117Y-81644671D01*
X112021393Y-81628607D01*
X112005329Y-81610883D01*
X111991079Y-81591670D01*
X111978782Y-81571153D01*
X111968554Y-81549529D01*
X111960496Y-81527007D01*
X111954684Y-81503803D01*
X111951174Y-81480142D01*
X111950000Y-81456250D01*
X111950000Y-80543750D01*
X111951174Y-80519858D01*
X111954684Y-80496197D01*
X111960496Y-80472993D01*
X111968554Y-80450471D01*
X111978782Y-80428847D01*
X111991079Y-80408330D01*
X112005329Y-80389117D01*
X112021393Y-80371393D01*
X112039117Y-80355329D01*
X112058330Y-80341079D01*
X112078847Y-80328782D01*
X112100471Y-80318554D01*
X112122993Y-80310496D01*
X112146197Y-80304684D01*
X112169858Y-80301174D01*
X112193750Y-80300000D01*
X112681250Y-80300000D01*
X112705142Y-80301174D01*
X112705142Y-80301174D01*
G37*
D17*
X112437500Y-81000000D03*
D13*
G36*
X110830142Y-80301174D02*
G01*
X110853803Y-80304684D01*
X110877007Y-80310496D01*
X110899529Y-80318554D01*
X110921153Y-80328782D01*
X110941670Y-80341079D01*
X110960883Y-80355329D01*
X110978607Y-80371393D01*
X110994671Y-80389117D01*
X111008921Y-80408330D01*
X111021218Y-80428847D01*
X111031446Y-80450471D01*
X111039504Y-80472993D01*
X111045316Y-80496197D01*
X111048826Y-80519858D01*
X111050000Y-80543750D01*
X111050000Y-81456250D01*
X111048826Y-81480142D01*
X111045316Y-81503803D01*
X111039504Y-81527007D01*
X111031446Y-81549529D01*
X111021218Y-81571153D01*
X111008921Y-81591670D01*
X110994671Y-81610883D01*
X110978607Y-81628607D01*
X110960883Y-81644671D01*
X110941670Y-81658921D01*
X110921153Y-81671218D01*
X110899529Y-81681446D01*
X110877007Y-81689504D01*
X110853803Y-81695316D01*
X110830142Y-81698826D01*
X110806250Y-81700000D01*
X110318750Y-81700000D01*
X110294858Y-81698826D01*
X110271197Y-81695316D01*
X110247993Y-81689504D01*
X110225471Y-81681446D01*
X110203847Y-81671218D01*
X110183330Y-81658921D01*
X110164117Y-81644671D01*
X110146393Y-81628607D01*
X110130329Y-81610883D01*
X110116079Y-81591670D01*
X110103782Y-81571153D01*
X110093554Y-81549529D01*
X110085496Y-81527007D01*
X110079684Y-81503803D01*
X110076174Y-81480142D01*
X110075000Y-81456250D01*
X110075000Y-80543750D01*
X110076174Y-80519858D01*
X110079684Y-80496197D01*
X110085496Y-80472993D01*
X110093554Y-80450471D01*
X110103782Y-80428847D01*
X110116079Y-80408330D01*
X110130329Y-80389117D01*
X110146393Y-80371393D01*
X110164117Y-80355329D01*
X110183330Y-80341079D01*
X110203847Y-80328782D01*
X110225471Y-80318554D01*
X110247993Y-80310496D01*
X110271197Y-80304684D01*
X110294858Y-80301174D01*
X110318750Y-80300000D01*
X110806250Y-80300000D01*
X110830142Y-80301174D01*
X110830142Y-80301174D01*
G37*
D17*
X110562500Y-81000000D03*
D13*
G36*
X114777691Y-84851053D02*
G01*
X114798926Y-84854203D01*
X114819750Y-84859419D01*
X114839962Y-84866651D01*
X114859368Y-84875830D01*
X114877781Y-84886866D01*
X114895024Y-84899654D01*
X114910930Y-84914070D01*
X114925346Y-84929976D01*
X114938134Y-84947219D01*
X114949170Y-84965632D01*
X114958349Y-84985038D01*
X114965581Y-85005250D01*
X114970797Y-85026074D01*
X114973947Y-85047309D01*
X114975000Y-85068750D01*
X114975000Y-85506250D01*
X114973947Y-85527691D01*
X114970797Y-85548926D01*
X114965581Y-85569750D01*
X114958349Y-85589962D01*
X114949170Y-85609368D01*
X114938134Y-85627781D01*
X114925346Y-85645024D01*
X114910930Y-85660930D01*
X114895024Y-85675346D01*
X114877781Y-85688134D01*
X114859368Y-85699170D01*
X114839962Y-85708349D01*
X114819750Y-85715581D01*
X114798926Y-85720797D01*
X114777691Y-85723947D01*
X114756250Y-85725000D01*
X114243750Y-85725000D01*
X114222309Y-85723947D01*
X114201074Y-85720797D01*
X114180250Y-85715581D01*
X114160038Y-85708349D01*
X114140632Y-85699170D01*
X114122219Y-85688134D01*
X114104976Y-85675346D01*
X114089070Y-85660930D01*
X114074654Y-85645024D01*
X114061866Y-85627781D01*
X114050830Y-85609368D01*
X114041651Y-85589962D01*
X114034419Y-85569750D01*
X114029203Y-85548926D01*
X114026053Y-85527691D01*
X114025000Y-85506250D01*
X114025000Y-85068750D01*
X114026053Y-85047309D01*
X114029203Y-85026074D01*
X114034419Y-85005250D01*
X114041651Y-84985038D01*
X114050830Y-84965632D01*
X114061866Y-84947219D01*
X114074654Y-84929976D01*
X114089070Y-84914070D01*
X114104976Y-84899654D01*
X114122219Y-84886866D01*
X114140632Y-84875830D01*
X114160038Y-84866651D01*
X114180250Y-84859419D01*
X114201074Y-84854203D01*
X114222309Y-84851053D01*
X114243750Y-84850000D01*
X114756250Y-84850000D01*
X114777691Y-84851053D01*
X114777691Y-84851053D01*
G37*
D14*
X114500000Y-85287500D03*
D13*
G36*
X114777691Y-83276053D02*
G01*
X114798926Y-83279203D01*
X114819750Y-83284419D01*
X114839962Y-83291651D01*
X114859368Y-83300830D01*
X114877781Y-83311866D01*
X114895024Y-83324654D01*
X114910930Y-83339070D01*
X114925346Y-83354976D01*
X114938134Y-83372219D01*
X114949170Y-83390632D01*
X114958349Y-83410038D01*
X114965581Y-83430250D01*
X114970797Y-83451074D01*
X114973947Y-83472309D01*
X114975000Y-83493750D01*
X114975000Y-83931250D01*
X114973947Y-83952691D01*
X114970797Y-83973926D01*
X114965581Y-83994750D01*
X114958349Y-84014962D01*
X114949170Y-84034368D01*
X114938134Y-84052781D01*
X114925346Y-84070024D01*
X114910930Y-84085930D01*
X114895024Y-84100346D01*
X114877781Y-84113134D01*
X114859368Y-84124170D01*
X114839962Y-84133349D01*
X114819750Y-84140581D01*
X114798926Y-84145797D01*
X114777691Y-84148947D01*
X114756250Y-84150000D01*
X114243750Y-84150000D01*
X114222309Y-84148947D01*
X114201074Y-84145797D01*
X114180250Y-84140581D01*
X114160038Y-84133349D01*
X114140632Y-84124170D01*
X114122219Y-84113134D01*
X114104976Y-84100346D01*
X114089070Y-84085930D01*
X114074654Y-84070024D01*
X114061866Y-84052781D01*
X114050830Y-84034368D01*
X114041651Y-84014962D01*
X114034419Y-83994750D01*
X114029203Y-83973926D01*
X114026053Y-83952691D01*
X114025000Y-83931250D01*
X114025000Y-83493750D01*
X114026053Y-83472309D01*
X114029203Y-83451074D01*
X114034419Y-83430250D01*
X114041651Y-83410038D01*
X114050830Y-83390632D01*
X114061866Y-83372219D01*
X114074654Y-83354976D01*
X114089070Y-83339070D01*
X114104976Y-83324654D01*
X114122219Y-83311866D01*
X114140632Y-83300830D01*
X114160038Y-83291651D01*
X114180250Y-83284419D01*
X114201074Y-83279203D01*
X114222309Y-83276053D01*
X114243750Y-83275000D01*
X114756250Y-83275000D01*
X114777691Y-83276053D01*
X114777691Y-83276053D01*
G37*
D14*
X114500000Y-83712500D03*
D13*
G36*
X120027691Y-90526053D02*
G01*
X120048926Y-90529203D01*
X120069750Y-90534419D01*
X120089962Y-90541651D01*
X120109368Y-90550830D01*
X120127781Y-90561866D01*
X120145024Y-90574654D01*
X120160930Y-90589070D01*
X120175346Y-90604976D01*
X120188134Y-90622219D01*
X120199170Y-90640632D01*
X120208349Y-90660038D01*
X120215581Y-90680250D01*
X120220797Y-90701074D01*
X120223947Y-90722309D01*
X120225000Y-90743750D01*
X120225000Y-91256250D01*
X120223947Y-91277691D01*
X120220797Y-91298926D01*
X120215581Y-91319750D01*
X120208349Y-91339962D01*
X120199170Y-91359368D01*
X120188134Y-91377781D01*
X120175346Y-91395024D01*
X120160930Y-91410930D01*
X120145024Y-91425346D01*
X120127781Y-91438134D01*
X120109368Y-91449170D01*
X120089962Y-91458349D01*
X120069750Y-91465581D01*
X120048926Y-91470797D01*
X120027691Y-91473947D01*
X120006250Y-91475000D01*
X119568750Y-91475000D01*
X119547309Y-91473947D01*
X119526074Y-91470797D01*
X119505250Y-91465581D01*
X119485038Y-91458349D01*
X119465632Y-91449170D01*
X119447219Y-91438134D01*
X119429976Y-91425346D01*
X119414070Y-91410930D01*
X119399654Y-91395024D01*
X119386866Y-91377781D01*
X119375830Y-91359368D01*
X119366651Y-91339962D01*
X119359419Y-91319750D01*
X119354203Y-91298926D01*
X119351053Y-91277691D01*
X119350000Y-91256250D01*
X119350000Y-90743750D01*
X119351053Y-90722309D01*
X119354203Y-90701074D01*
X119359419Y-90680250D01*
X119366651Y-90660038D01*
X119375830Y-90640632D01*
X119386866Y-90622219D01*
X119399654Y-90604976D01*
X119414070Y-90589070D01*
X119429976Y-90574654D01*
X119447219Y-90561866D01*
X119465632Y-90550830D01*
X119485038Y-90541651D01*
X119505250Y-90534419D01*
X119526074Y-90529203D01*
X119547309Y-90526053D01*
X119568750Y-90525000D01*
X120006250Y-90525000D01*
X120027691Y-90526053D01*
X120027691Y-90526053D01*
G37*
D14*
X119787500Y-91000000D03*
D13*
G36*
X118452691Y-90526053D02*
G01*
X118473926Y-90529203D01*
X118494750Y-90534419D01*
X118514962Y-90541651D01*
X118534368Y-90550830D01*
X118552781Y-90561866D01*
X118570024Y-90574654D01*
X118585930Y-90589070D01*
X118600346Y-90604976D01*
X118613134Y-90622219D01*
X118624170Y-90640632D01*
X118633349Y-90660038D01*
X118640581Y-90680250D01*
X118645797Y-90701074D01*
X118648947Y-90722309D01*
X118650000Y-90743750D01*
X118650000Y-91256250D01*
X118648947Y-91277691D01*
X118645797Y-91298926D01*
X118640581Y-91319750D01*
X118633349Y-91339962D01*
X118624170Y-91359368D01*
X118613134Y-91377781D01*
X118600346Y-91395024D01*
X118585930Y-91410930D01*
X118570024Y-91425346D01*
X118552781Y-91438134D01*
X118534368Y-91449170D01*
X118514962Y-91458349D01*
X118494750Y-91465581D01*
X118473926Y-91470797D01*
X118452691Y-91473947D01*
X118431250Y-91475000D01*
X117993750Y-91475000D01*
X117972309Y-91473947D01*
X117951074Y-91470797D01*
X117930250Y-91465581D01*
X117910038Y-91458349D01*
X117890632Y-91449170D01*
X117872219Y-91438134D01*
X117854976Y-91425346D01*
X117839070Y-91410930D01*
X117824654Y-91395024D01*
X117811866Y-91377781D01*
X117800830Y-91359368D01*
X117791651Y-91339962D01*
X117784419Y-91319750D01*
X117779203Y-91298926D01*
X117776053Y-91277691D01*
X117775000Y-91256250D01*
X117775000Y-90743750D01*
X117776053Y-90722309D01*
X117779203Y-90701074D01*
X117784419Y-90680250D01*
X117791651Y-90660038D01*
X117800830Y-90640632D01*
X117811866Y-90622219D01*
X117824654Y-90604976D01*
X117839070Y-90589070D01*
X117854976Y-90574654D01*
X117872219Y-90561866D01*
X117890632Y-90550830D01*
X117910038Y-90541651D01*
X117930250Y-90534419D01*
X117951074Y-90529203D01*
X117972309Y-90526053D01*
X117993750Y-90525000D01*
X118431250Y-90525000D01*
X118452691Y-90526053D01*
X118452691Y-90526053D01*
G37*
D14*
X118212500Y-91000000D03*
D13*
G36*
X112705142Y-87301174D02*
G01*
X112728803Y-87304684D01*
X112752007Y-87310496D01*
X112774529Y-87318554D01*
X112796153Y-87328782D01*
X112816670Y-87341079D01*
X112835883Y-87355329D01*
X112853607Y-87371393D01*
X112869671Y-87389117D01*
X112883921Y-87408330D01*
X112896218Y-87428847D01*
X112906446Y-87450471D01*
X112914504Y-87472993D01*
X112920316Y-87496197D01*
X112923826Y-87519858D01*
X112925000Y-87543750D01*
X112925000Y-88456250D01*
X112923826Y-88480142D01*
X112920316Y-88503803D01*
X112914504Y-88527007D01*
X112906446Y-88549529D01*
X112896218Y-88571153D01*
X112883921Y-88591670D01*
X112869671Y-88610883D01*
X112853607Y-88628607D01*
X112835883Y-88644671D01*
X112816670Y-88658921D01*
X112796153Y-88671218D01*
X112774529Y-88681446D01*
X112752007Y-88689504D01*
X112728803Y-88695316D01*
X112705142Y-88698826D01*
X112681250Y-88700000D01*
X112193750Y-88700000D01*
X112169858Y-88698826D01*
X112146197Y-88695316D01*
X112122993Y-88689504D01*
X112100471Y-88681446D01*
X112078847Y-88671218D01*
X112058330Y-88658921D01*
X112039117Y-88644671D01*
X112021393Y-88628607D01*
X112005329Y-88610883D01*
X111991079Y-88591670D01*
X111978782Y-88571153D01*
X111968554Y-88549529D01*
X111960496Y-88527007D01*
X111954684Y-88503803D01*
X111951174Y-88480142D01*
X111950000Y-88456250D01*
X111950000Y-87543750D01*
X111951174Y-87519858D01*
X111954684Y-87496197D01*
X111960496Y-87472993D01*
X111968554Y-87450471D01*
X111978782Y-87428847D01*
X111991079Y-87408330D01*
X112005329Y-87389117D01*
X112021393Y-87371393D01*
X112039117Y-87355329D01*
X112058330Y-87341079D01*
X112078847Y-87328782D01*
X112100471Y-87318554D01*
X112122993Y-87310496D01*
X112146197Y-87304684D01*
X112169858Y-87301174D01*
X112193750Y-87300000D01*
X112681250Y-87300000D01*
X112705142Y-87301174D01*
X112705142Y-87301174D01*
G37*
D17*
X112437500Y-88000000D03*
D13*
G36*
X110830142Y-87301174D02*
G01*
X110853803Y-87304684D01*
X110877007Y-87310496D01*
X110899529Y-87318554D01*
X110921153Y-87328782D01*
X110941670Y-87341079D01*
X110960883Y-87355329D01*
X110978607Y-87371393D01*
X110994671Y-87389117D01*
X111008921Y-87408330D01*
X111021218Y-87428847D01*
X111031446Y-87450471D01*
X111039504Y-87472993D01*
X111045316Y-87496197D01*
X111048826Y-87519858D01*
X111050000Y-87543750D01*
X111050000Y-88456250D01*
X111048826Y-88480142D01*
X111045316Y-88503803D01*
X111039504Y-88527007D01*
X111031446Y-88549529D01*
X111021218Y-88571153D01*
X111008921Y-88591670D01*
X110994671Y-88610883D01*
X110978607Y-88628607D01*
X110960883Y-88644671D01*
X110941670Y-88658921D01*
X110921153Y-88671218D01*
X110899529Y-88681446D01*
X110877007Y-88689504D01*
X110853803Y-88695316D01*
X110830142Y-88698826D01*
X110806250Y-88700000D01*
X110318750Y-88700000D01*
X110294858Y-88698826D01*
X110271197Y-88695316D01*
X110247993Y-88689504D01*
X110225471Y-88681446D01*
X110203847Y-88671218D01*
X110183330Y-88658921D01*
X110164117Y-88644671D01*
X110146393Y-88628607D01*
X110130329Y-88610883D01*
X110116079Y-88591670D01*
X110103782Y-88571153D01*
X110093554Y-88549529D01*
X110085496Y-88527007D01*
X110079684Y-88503803D01*
X110076174Y-88480142D01*
X110075000Y-88456250D01*
X110075000Y-87543750D01*
X110076174Y-87519858D01*
X110079684Y-87496197D01*
X110085496Y-87472993D01*
X110093554Y-87450471D01*
X110103782Y-87428847D01*
X110116079Y-87408330D01*
X110130329Y-87389117D01*
X110146393Y-87371393D01*
X110164117Y-87355329D01*
X110183330Y-87341079D01*
X110203847Y-87328782D01*
X110225471Y-87318554D01*
X110247993Y-87310496D01*
X110271197Y-87304684D01*
X110294858Y-87301174D01*
X110318750Y-87300000D01*
X110806250Y-87300000D01*
X110830142Y-87301174D01*
X110830142Y-87301174D01*
G37*
D17*
X110562500Y-88000000D03*
M02*
