G04 #@! TF.GenerationSoftware,KiCad,Pcbnew,(5.1.2)-1*
G04 #@! TF.CreationDate,2025-02-08T22:23:42+09:00*
G04 #@! TF.ProjectId,ss,73732e6b-6963-4616-945f-706362585858,rev?*
G04 #@! TF.SameCoordinates,Original*
G04 #@! TF.FileFunction,Legend,Top*
G04 #@! TF.FilePolarity,Positive*
%FSLAX46Y46*%
G04 Gerber Fmt 4.6, Leading zero omitted, Abs format (unit mm)*
G04 Created by KiCad (PCBNEW (5.1.2)-1) date 2025-02-08 22:23:42*
%MOMM*%
%LPD*%
G04 APERTURE LIST*
%ADD10C,0.150000*%
%ADD11C,0.120000*%
%ADD12C,3.302000*%
%ADD13R,0.248000X0.273000*%
%ADD14R,0.273000X0.248000*%
%ADD15R,0.752000X1.162000*%
%ADD16C,0.100000*%
%ADD17C,0.977000*%
%ADD18R,0.902000X1.002000*%
%ADD19R,1.002000X0.902000*%
%ADD20O,1.802000X1.802000*%
%ADD21R,1.802000X1.802000*%
%ADD22O,1.902000X1.626000*%
%ADD23C,1.077000*%
G04 APERTURE END LIST*
D10*
X116238095Y-80685714D02*
X116761904Y-80685714D01*
X116238095Y-81352380D01*
X116761904Y-81352380D01*
X116261904Y-84385714D02*
X116500000Y-85052380D01*
X116738095Y-84385714D02*
X116500000Y-85052380D01*
X116404761Y-85290476D01*
X116357142Y-85338095D01*
X116261904Y-85385714D01*
X118738095Y-82352380D02*
X119261904Y-81685714D01*
X118738095Y-81685714D02*
X119261904Y-82352380D01*
D11*
X116500000Y-82000000D02*
X116500000Y-82000000D01*
X116816228Y-82000000D02*
G75*
G03X116816228Y-82000000I-316228J0D01*
G01*
X118500000Y-82000000D02*
X118100000Y-82400000D01*
X118500000Y-82000000D02*
X118100000Y-81600000D01*
X116816227Y-82000000D02*
X118500000Y-82000000D01*
X116500000Y-84000000D02*
X116900000Y-83500000D01*
X116500000Y-84000000D02*
X116100000Y-83500000D01*
X116500000Y-82316227D02*
X116500000Y-84000000D01*
X127071428Y-79371428D02*
X127071428Y-78771428D01*
X127357142Y-79371428D02*
X127357142Y-78771428D01*
X127700000Y-79371428D01*
X127700000Y-78771428D01*
X127900000Y-78771428D02*
X128242857Y-78771428D01*
X128071428Y-79371428D02*
X128071428Y-78771428D01*
X128414285Y-78828571D02*
X128442857Y-78800000D01*
X128500000Y-78771428D01*
X128642857Y-78771428D01*
X128700000Y-78800000D01*
X128728571Y-78828571D01*
X128757142Y-78885714D01*
X128757142Y-78942857D01*
X128728571Y-79028571D01*
X128385714Y-79371428D01*
X128757142Y-79371428D01*
X124571428Y-79371428D02*
X124571428Y-78771428D01*
X124857142Y-79371428D02*
X124857142Y-78771428D01*
X125200000Y-79371428D01*
X125200000Y-78771428D01*
X125400000Y-78771428D02*
X125742857Y-78771428D01*
X125571428Y-79371428D02*
X125571428Y-78771428D01*
X126257142Y-79371428D02*
X125914285Y-79371428D01*
X126085714Y-79371428D02*
X126085714Y-78771428D01*
X126028571Y-78857142D01*
X125971428Y-78914285D01*
X125914285Y-78942857D01*
X121814285Y-79371428D02*
X121814285Y-78771428D01*
X122100000Y-79371428D02*
X122100000Y-78771428D01*
X122442857Y-79371428D01*
X122442857Y-78771428D01*
X122642857Y-78771428D02*
X122985714Y-78771428D01*
X122814285Y-79371428D02*
X122814285Y-78771428D01*
X123185714Y-79371428D02*
X123185714Y-78771428D01*
X123385714Y-79200000D01*
X123585714Y-78771428D01*
X123585714Y-79371428D01*
X119966666Y-79485714D02*
X119928571Y-79523809D01*
X119814285Y-79561904D01*
X119738095Y-79561904D01*
X119623809Y-79523809D01*
X119547619Y-79447619D01*
X119509523Y-79371428D01*
X119471428Y-79219047D01*
X119471428Y-79104761D01*
X119509523Y-78952380D01*
X119547619Y-78876190D01*
X119623809Y-78800000D01*
X119738095Y-78761904D01*
X119814285Y-78761904D01*
X119928571Y-78800000D01*
X119966666Y-78838095D01*
X120271428Y-79523809D02*
X120385714Y-79561904D01*
X120576190Y-79561904D01*
X120652380Y-79523809D01*
X120690476Y-79485714D01*
X120728571Y-79409523D01*
X120728571Y-79333333D01*
X120690476Y-79257142D01*
X120652380Y-79219047D01*
X120576190Y-79180952D01*
X120423809Y-79142857D01*
X120347619Y-79104761D01*
X120309523Y-79066666D01*
X120271428Y-78990476D01*
X120271428Y-78914285D01*
X120309523Y-78838095D01*
X120347619Y-78800000D01*
X120423809Y-78761904D01*
X120614285Y-78761904D01*
X120728571Y-78800000D01*
X116728571Y-79523809D02*
X116842857Y-79561904D01*
X117033333Y-79561904D01*
X117109523Y-79523809D01*
X117147619Y-79485714D01*
X117185714Y-79409523D01*
X117185714Y-79333333D01*
X117147619Y-79257142D01*
X117109523Y-79219047D01*
X117033333Y-79180952D01*
X116880952Y-79142857D01*
X116804761Y-79104761D01*
X116766666Y-79066666D01*
X116728571Y-78990476D01*
X116728571Y-78914285D01*
X116766666Y-78838095D01*
X116804761Y-78800000D01*
X116880952Y-78761904D01*
X117071428Y-78761904D01*
X117185714Y-78800000D01*
X117528571Y-79561904D02*
X117528571Y-78761904D01*
X117719047Y-78761904D01*
X117833333Y-78800000D01*
X117909523Y-78876190D01*
X117947619Y-78952380D01*
X117985714Y-79104761D01*
X117985714Y-79219047D01*
X117947619Y-79371428D01*
X117909523Y-79447619D01*
X117833333Y-79523809D01*
X117719047Y-79561904D01*
X117528571Y-79561904D01*
X118290476Y-79333333D02*
X118671428Y-79333333D01*
X118214285Y-79561904D02*
X118480952Y-78761904D01*
X118747619Y-79561904D01*
X114247619Y-79523809D02*
X114361904Y-79561904D01*
X114552380Y-79561904D01*
X114628571Y-79523809D01*
X114666666Y-79485714D01*
X114704761Y-79409523D01*
X114704761Y-79333333D01*
X114666666Y-79257142D01*
X114628571Y-79219047D01*
X114552380Y-79180952D01*
X114400000Y-79142857D01*
X114323809Y-79104761D01*
X114285714Y-79066666D01*
X114247619Y-78990476D01*
X114247619Y-78914285D01*
X114285714Y-78838095D01*
X114323809Y-78800000D01*
X114400000Y-78761904D01*
X114590476Y-78761904D01*
X114704761Y-78800000D01*
X115504761Y-79485714D02*
X115466666Y-79523809D01*
X115352380Y-79561904D01*
X115276190Y-79561904D01*
X115161904Y-79523809D01*
X115085714Y-79447619D01*
X115047619Y-79371428D01*
X115009523Y-79219047D01*
X115009523Y-79104761D01*
X115047619Y-78952380D01*
X115085714Y-78876190D01*
X115161904Y-78800000D01*
X115276190Y-78761904D01*
X115352380Y-78761904D01*
X115466666Y-78800000D01*
X115504761Y-78838095D01*
X116228571Y-79561904D02*
X115847619Y-79561904D01*
X115847619Y-78761904D01*
X111790476Y-78800000D02*
X111714285Y-78761904D01*
X111600000Y-78761904D01*
X111485714Y-78800000D01*
X111409523Y-78876190D01*
X111371428Y-78952380D01*
X111333333Y-79104761D01*
X111333333Y-79219047D01*
X111371428Y-79371428D01*
X111409523Y-79447619D01*
X111485714Y-79523809D01*
X111600000Y-79561904D01*
X111676190Y-79561904D01*
X111790476Y-79523809D01*
X111828571Y-79485714D01*
X111828571Y-79219047D01*
X111676190Y-79219047D01*
X112171428Y-79561904D02*
X112171428Y-78761904D01*
X112628571Y-79561904D01*
X112628571Y-78761904D01*
X113009523Y-79561904D02*
X113009523Y-78761904D01*
X113200000Y-78761904D01*
X113314285Y-78800000D01*
X113390476Y-78876190D01*
X113428571Y-78952380D01*
X113466666Y-79104761D01*
X113466666Y-79219047D01*
X113428571Y-79371428D01*
X113390476Y-79447619D01*
X113314285Y-79523809D01*
X113200000Y-79561904D01*
X113009523Y-79561904D01*
X108933333Y-78761904D02*
X109200000Y-79561904D01*
X109466666Y-78761904D01*
X110190476Y-79485714D02*
X110152380Y-79523809D01*
X110038095Y-79561904D01*
X109961904Y-79561904D01*
X109847619Y-79523809D01*
X109771428Y-79447619D01*
X109733333Y-79371428D01*
X109695238Y-79219047D01*
X109695238Y-79104761D01*
X109733333Y-78952380D01*
X109771428Y-78876190D01*
X109847619Y-78800000D01*
X109961904Y-78761904D01*
X110038095Y-78761904D01*
X110152380Y-78800000D01*
X110190476Y-78838095D01*
X110990476Y-79485714D02*
X110952380Y-79523809D01*
X110838095Y-79561904D01*
X110761904Y-79561904D01*
X110647619Y-79523809D01*
X110571428Y-79447619D01*
X110533333Y-79371428D01*
X110495238Y-79219047D01*
X110495238Y-79104761D01*
X110533333Y-78952380D01*
X110571428Y-78876190D01*
X110647619Y-78800000D01*
X110761904Y-78761904D01*
X110838095Y-78761904D01*
X110952380Y-78800000D01*
X110990476Y-78838095D01*
X117700000Y-86230000D02*
X117700000Y-86230000D01*
X109890000Y-83600000D02*
X109890000Y-86050000D01*
X113110000Y-85400000D02*
X113110000Y-83600000D01*
X120062779Y-92290000D02*
X119737221Y-92290000D01*
X120062779Y-93310000D02*
X119737221Y-93310000D01*
X114062779Y-92290000D02*
X113737221Y-92290000D01*
X114062779Y-93310000D02*
X113737221Y-93310000D01*
X126062779Y-92290000D02*
X125737221Y-92290000D01*
X126062779Y-93310000D02*
X125737221Y-93310000D01*
X108562779Y-92290000D02*
X108237221Y-92290000D01*
X108562779Y-93310000D02*
X108237221Y-93310000D01*
X121490000Y-89537221D02*
X121490000Y-89862779D01*
X122510000Y-89537221D02*
X122510000Y-89862779D01*
X121490000Y-81437221D02*
X121490000Y-81762779D01*
X122510000Y-81437221D02*
X122510000Y-81762779D01*
X120062779Y-97790000D02*
X119737221Y-97790000D01*
X120062779Y-98810000D02*
X119737221Y-98810000D01*
X114062779Y-97790000D02*
X113737221Y-97790000D01*
X114062779Y-98810000D02*
X113737221Y-98810000D01*
X126062779Y-97790000D02*
X125737221Y-97790000D01*
X126062779Y-98810000D02*
X125737221Y-98810000D01*
X108562779Y-97790000D02*
X108237221Y-97790000D01*
X108562779Y-98810000D02*
X108237221Y-98810000D01*
X127490000Y-89537221D02*
X127490000Y-89862779D01*
X128510000Y-89537221D02*
X128510000Y-89862779D01*
X127490000Y-81437221D02*
X127490000Y-81762779D01*
X128510000Y-81437221D02*
X128510000Y-81762779D01*
X106820000Y-96360000D02*
X106820000Y-94900000D01*
X109980000Y-96360000D02*
X109980000Y-94200000D01*
X109980000Y-96360000D02*
X109050000Y-96360000D01*
X106820000Y-96360000D02*
X107750000Y-96360000D01*
X112320000Y-96360000D02*
X112320000Y-94900000D01*
X115480000Y-96360000D02*
X115480000Y-94200000D01*
X115480000Y-96360000D02*
X114550000Y-96360000D01*
X112320000Y-96360000D02*
X113250000Y-96360000D01*
X124320000Y-96360000D02*
X124320000Y-94900000D01*
X127480000Y-96360000D02*
X127480000Y-94200000D01*
X127480000Y-96360000D02*
X126550000Y-96360000D01*
X124320000Y-96360000D02*
X125250000Y-96360000D01*
X118320000Y-96360000D02*
X118320000Y-94900000D01*
X121480000Y-96360000D02*
X121480000Y-94200000D01*
X121480000Y-96360000D02*
X120550000Y-96360000D01*
X118320000Y-96360000D02*
X119250000Y-96360000D01*
X125760000Y-91280000D02*
X124300000Y-91280000D01*
X125760000Y-88120000D02*
X123600000Y-88120000D01*
X125760000Y-88120000D02*
X125760000Y-89050000D01*
X125760000Y-91280000D02*
X125760000Y-90350000D01*
X125760000Y-83180000D02*
X124300000Y-83180000D01*
X125760000Y-80020000D02*
X123600000Y-80020000D01*
X125760000Y-80020000D02*
X125760000Y-80950000D01*
X125760000Y-83180000D02*
X125760000Y-82250000D01*
X108670000Y-78330000D02*
X108670000Y-77000000D01*
X110000000Y-78330000D02*
X108670000Y-78330000D01*
X111270000Y-78330000D02*
X111270000Y-75670000D01*
X111270000Y-75670000D02*
X129110000Y-75670000D01*
X111270000Y-78330000D02*
X129110000Y-78330000D01*
X129110000Y-78330000D02*
X129110000Y-75670000D01*
D10*
X107000000Y-83000000D02*
X107000000Y-87500000D01*
X104000000Y-83000000D02*
X107000000Y-83000000D01*
X104000000Y-92000000D02*
X104000000Y-83000000D01*
X107000000Y-92000000D02*
X104000000Y-92000000D01*
X107000000Y-87500000D02*
X107000000Y-92000000D01*
X106500000Y-89500000D02*
X107000000Y-89500000D01*
X106500000Y-85500000D02*
X106500000Y-89500000D01*
X107000000Y-85500000D02*
X106500000Y-85500000D01*
D11*
X124637221Y-85110000D02*
X124962779Y-85110000D01*
X124637221Y-84090000D02*
X124962779Y-84090000D01*
X124637221Y-87110000D02*
X124962779Y-87110000D01*
X124637221Y-86090000D02*
X124962779Y-86090000D01*
X111241422Y-81710000D02*
X111758578Y-81710000D01*
X111241422Y-80290000D02*
X111758578Y-80290000D01*
X113990000Y-84337221D02*
X113990000Y-84662779D01*
X115010000Y-84337221D02*
X115010000Y-84662779D01*
X118837221Y-91510000D02*
X119162779Y-91510000D01*
X118837221Y-90490000D02*
X119162779Y-90490000D01*
X111241422Y-88710000D02*
X111758578Y-88710000D01*
X111241422Y-87290000D02*
X111758578Y-87290000D01*
D10*
X115552380Y-88261904D02*
X116361904Y-88261904D01*
X116457142Y-88214285D01*
X116504761Y-88166666D01*
X116552380Y-88071428D01*
X116552380Y-87880952D01*
X116504761Y-87785714D01*
X116457142Y-87738095D01*
X116361904Y-87690476D01*
X115552380Y-87690476D01*
X115647619Y-87261904D02*
X115600000Y-87214285D01*
X115552380Y-87119047D01*
X115552380Y-86880952D01*
X115600000Y-86785714D01*
X115647619Y-86738095D01*
X115742857Y-86690476D01*
X115838095Y-86690476D01*
X115980952Y-86738095D01*
X116552380Y-87309523D01*
X116552380Y-86690476D01*
X108452380Y-83761904D02*
X109261904Y-83761904D01*
X109357142Y-83714285D01*
X109404761Y-83666666D01*
X109452380Y-83571428D01*
X109452380Y-83380952D01*
X109404761Y-83285714D01*
X109357142Y-83238095D01*
X109261904Y-83190476D01*
X108452380Y-83190476D01*
X109452380Y-82190476D02*
X109452380Y-82761904D01*
X109452380Y-82476190D02*
X108452380Y-82476190D01*
X108595238Y-82571428D01*
X108690476Y-82666666D01*
X108738095Y-82761904D01*
X122057142Y-93252380D02*
X121723809Y-92776190D01*
X121485714Y-93252380D02*
X121485714Y-92252380D01*
X121866666Y-92252380D01*
X121961904Y-92300000D01*
X122009523Y-92347619D01*
X122057142Y-92442857D01*
X122057142Y-92585714D01*
X122009523Y-92680952D01*
X121961904Y-92728571D01*
X121866666Y-92776190D01*
X121485714Y-92776190D01*
X123009523Y-93252380D02*
X122438095Y-93252380D01*
X122723809Y-93252380D02*
X122723809Y-92252380D01*
X122628571Y-92395238D01*
X122533333Y-92490476D01*
X122438095Y-92538095D01*
X123390476Y-92347619D02*
X123438095Y-92300000D01*
X123533333Y-92252380D01*
X123771428Y-92252380D01*
X123866666Y-92300000D01*
X123914285Y-92347619D01*
X123961904Y-92442857D01*
X123961904Y-92538095D01*
X123914285Y-92680952D01*
X123342857Y-93252380D01*
X123961904Y-93252380D01*
X116057142Y-93352380D02*
X115723809Y-92876190D01*
X115485714Y-93352380D02*
X115485714Y-92352380D01*
X115866666Y-92352380D01*
X115961904Y-92400000D01*
X116009523Y-92447619D01*
X116057142Y-92542857D01*
X116057142Y-92685714D01*
X116009523Y-92780952D01*
X115961904Y-92828571D01*
X115866666Y-92876190D01*
X115485714Y-92876190D01*
X117009523Y-93352380D02*
X116438095Y-93352380D01*
X116723809Y-93352380D02*
X116723809Y-92352380D01*
X116628571Y-92495238D01*
X116533333Y-92590476D01*
X116438095Y-92638095D01*
X117961904Y-93352380D02*
X117390476Y-93352380D01*
X117676190Y-93352380D02*
X117676190Y-92352380D01*
X117580952Y-92495238D01*
X117485714Y-92590476D01*
X117390476Y-92638095D01*
X127957142Y-93252380D02*
X127623809Y-92776190D01*
X127385714Y-93252380D02*
X127385714Y-92252380D01*
X127766666Y-92252380D01*
X127861904Y-92300000D01*
X127909523Y-92347619D01*
X127957142Y-92442857D01*
X127957142Y-92585714D01*
X127909523Y-92680952D01*
X127861904Y-92728571D01*
X127766666Y-92776190D01*
X127385714Y-92776190D01*
X128909523Y-93252380D02*
X128338095Y-93252380D01*
X128623809Y-93252380D02*
X128623809Y-92252380D01*
X128528571Y-92395238D01*
X128433333Y-92490476D01*
X128338095Y-92538095D01*
X129528571Y-92252380D02*
X129623809Y-92252380D01*
X129719047Y-92300000D01*
X129766666Y-92347619D01*
X129814285Y-92442857D01*
X129861904Y-92633333D01*
X129861904Y-92871428D01*
X129814285Y-93061904D01*
X129766666Y-93157142D01*
X129719047Y-93204761D01*
X129623809Y-93252380D01*
X129528571Y-93252380D01*
X129433333Y-93204761D01*
X129385714Y-93157142D01*
X129338095Y-93061904D01*
X129290476Y-92871428D01*
X129290476Y-92633333D01*
X129338095Y-92442857D01*
X129385714Y-92347619D01*
X129433333Y-92300000D01*
X129528571Y-92252380D01*
X110533333Y-93252380D02*
X110200000Y-92776190D01*
X109961904Y-93252380D02*
X109961904Y-92252380D01*
X110342857Y-92252380D01*
X110438095Y-92300000D01*
X110485714Y-92347619D01*
X110533333Y-92442857D01*
X110533333Y-92585714D01*
X110485714Y-92680952D01*
X110438095Y-92728571D01*
X110342857Y-92776190D01*
X109961904Y-92776190D01*
X111009523Y-93252380D02*
X111200000Y-93252380D01*
X111295238Y-93204761D01*
X111342857Y-93157142D01*
X111438095Y-93014285D01*
X111485714Y-92823809D01*
X111485714Y-92442857D01*
X111438095Y-92347619D01*
X111390476Y-92300000D01*
X111295238Y-92252380D01*
X111104761Y-92252380D01*
X111009523Y-92300000D01*
X110961904Y-92347619D01*
X110914285Y-92442857D01*
X110914285Y-92680952D01*
X110961904Y-92776190D01*
X111009523Y-92823809D01*
X111104761Y-92871428D01*
X111295238Y-92871428D01*
X111390476Y-92823809D01*
X111438095Y-92776190D01*
X111485714Y-92680952D01*
X122552380Y-87366666D02*
X122076190Y-87700000D01*
X122552380Y-87938095D02*
X121552380Y-87938095D01*
X121552380Y-87557142D01*
X121600000Y-87461904D01*
X121647619Y-87414285D01*
X121742857Y-87366666D01*
X121885714Y-87366666D01*
X121980952Y-87414285D01*
X122028571Y-87461904D01*
X122076190Y-87557142D01*
X122076190Y-87938095D01*
X121980952Y-86795238D02*
X121933333Y-86890476D01*
X121885714Y-86938095D01*
X121790476Y-86985714D01*
X121742857Y-86985714D01*
X121647619Y-86938095D01*
X121600000Y-86890476D01*
X121552380Y-86795238D01*
X121552380Y-86604761D01*
X121600000Y-86509523D01*
X121647619Y-86461904D01*
X121742857Y-86414285D01*
X121790476Y-86414285D01*
X121885714Y-86461904D01*
X121933333Y-86509523D01*
X121980952Y-86604761D01*
X121980952Y-86795238D01*
X122028571Y-86890476D01*
X122076190Y-86938095D01*
X122171428Y-86985714D01*
X122361904Y-86985714D01*
X122457142Y-86938095D01*
X122504761Y-86890476D01*
X122552380Y-86795238D01*
X122552380Y-86604761D01*
X122504761Y-86509523D01*
X122457142Y-86461904D01*
X122361904Y-86414285D01*
X122171428Y-86414285D01*
X122076190Y-86461904D01*
X122028571Y-86509523D01*
X121980952Y-86604761D01*
X121252380Y-81766666D02*
X120776190Y-82100000D01*
X121252380Y-82338095D02*
X120252380Y-82338095D01*
X120252380Y-81957142D01*
X120300000Y-81861904D01*
X120347619Y-81814285D01*
X120442857Y-81766666D01*
X120585714Y-81766666D01*
X120680952Y-81814285D01*
X120728571Y-81861904D01*
X120776190Y-81957142D01*
X120776190Y-82338095D01*
X120252380Y-81433333D02*
X120252380Y-80766666D01*
X121252380Y-81195238D01*
X122133333Y-98752380D02*
X121800000Y-98276190D01*
X121561904Y-98752380D02*
X121561904Y-97752380D01*
X121942857Y-97752380D01*
X122038095Y-97800000D01*
X122085714Y-97847619D01*
X122133333Y-97942857D01*
X122133333Y-98085714D01*
X122085714Y-98180952D01*
X122038095Y-98228571D01*
X121942857Y-98276190D01*
X121561904Y-98276190D01*
X122990476Y-97752380D02*
X122800000Y-97752380D01*
X122704761Y-97800000D01*
X122657142Y-97847619D01*
X122561904Y-97990476D01*
X122514285Y-98180952D01*
X122514285Y-98561904D01*
X122561904Y-98657142D01*
X122609523Y-98704761D01*
X122704761Y-98752380D01*
X122895238Y-98752380D01*
X122990476Y-98704761D01*
X123038095Y-98657142D01*
X123085714Y-98561904D01*
X123085714Y-98323809D01*
X123038095Y-98228571D01*
X122990476Y-98180952D01*
X122895238Y-98133333D01*
X122704761Y-98133333D01*
X122609523Y-98180952D01*
X122561904Y-98228571D01*
X122514285Y-98323809D01*
X116033333Y-98852380D02*
X115700000Y-98376190D01*
X115461904Y-98852380D02*
X115461904Y-97852380D01*
X115842857Y-97852380D01*
X115938095Y-97900000D01*
X115985714Y-97947619D01*
X116033333Y-98042857D01*
X116033333Y-98185714D01*
X115985714Y-98280952D01*
X115938095Y-98328571D01*
X115842857Y-98376190D01*
X115461904Y-98376190D01*
X116938095Y-97852380D02*
X116461904Y-97852380D01*
X116414285Y-98328571D01*
X116461904Y-98280952D01*
X116557142Y-98233333D01*
X116795238Y-98233333D01*
X116890476Y-98280952D01*
X116938095Y-98328571D01*
X116985714Y-98423809D01*
X116985714Y-98661904D01*
X116938095Y-98757142D01*
X116890476Y-98804761D01*
X116795238Y-98852380D01*
X116557142Y-98852380D01*
X116461904Y-98804761D01*
X116414285Y-98757142D01*
X128133333Y-98852380D02*
X127800000Y-98376190D01*
X127561904Y-98852380D02*
X127561904Y-97852380D01*
X127942857Y-97852380D01*
X128038095Y-97900000D01*
X128085714Y-97947619D01*
X128133333Y-98042857D01*
X128133333Y-98185714D01*
X128085714Y-98280952D01*
X128038095Y-98328571D01*
X127942857Y-98376190D01*
X127561904Y-98376190D01*
X128990476Y-98185714D02*
X128990476Y-98852380D01*
X128752380Y-97804761D02*
X128514285Y-98519047D01*
X129133333Y-98519047D01*
X110533333Y-98852380D02*
X110200000Y-98376190D01*
X109961904Y-98852380D02*
X109961904Y-97852380D01*
X110342857Y-97852380D01*
X110438095Y-97900000D01*
X110485714Y-97947619D01*
X110533333Y-98042857D01*
X110533333Y-98185714D01*
X110485714Y-98280952D01*
X110438095Y-98328571D01*
X110342857Y-98376190D01*
X109961904Y-98376190D01*
X110866666Y-97852380D02*
X111485714Y-97852380D01*
X111152380Y-98233333D01*
X111295238Y-98233333D01*
X111390476Y-98280952D01*
X111438095Y-98328571D01*
X111485714Y-98423809D01*
X111485714Y-98661904D01*
X111438095Y-98757142D01*
X111390476Y-98804761D01*
X111295238Y-98852380D01*
X111009523Y-98852380D01*
X110914285Y-98804761D01*
X110866666Y-98757142D01*
X129712380Y-89906666D02*
X129236190Y-90240000D01*
X129712380Y-90478095D02*
X128712380Y-90478095D01*
X128712380Y-90097142D01*
X128760000Y-90001904D01*
X128807619Y-89954285D01*
X128902857Y-89906666D01*
X129045714Y-89906666D01*
X129140952Y-89954285D01*
X129188571Y-90001904D01*
X129236190Y-90097142D01*
X129236190Y-90478095D01*
X128807619Y-89525714D02*
X128760000Y-89478095D01*
X128712380Y-89382857D01*
X128712380Y-89144761D01*
X128760000Y-89049523D01*
X128807619Y-89001904D01*
X128902857Y-88954285D01*
X128998095Y-88954285D01*
X129140952Y-89001904D01*
X129712380Y-89573333D01*
X129712380Y-88954285D01*
X129712380Y-81746666D02*
X129236190Y-82080000D01*
X129712380Y-82318095D02*
X128712380Y-82318095D01*
X128712380Y-81937142D01*
X128760000Y-81841904D01*
X128807619Y-81794285D01*
X128902857Y-81746666D01*
X129045714Y-81746666D01*
X129140952Y-81794285D01*
X129188571Y-81841904D01*
X129236190Y-81937142D01*
X129236190Y-82318095D01*
X129712380Y-80794285D02*
X129712380Y-81365714D01*
X129712380Y-81080000D02*
X128712380Y-81080000D01*
X128855238Y-81175238D01*
X128950476Y-81270476D01*
X128998095Y-81365714D01*
X111447619Y-95695238D02*
X111400000Y-95790476D01*
X111304761Y-95885714D01*
X111161904Y-96028571D01*
X111114285Y-96123809D01*
X111114285Y-96219047D01*
X111352380Y-96171428D02*
X111304761Y-96266666D01*
X111209523Y-96361904D01*
X111019047Y-96409523D01*
X110685714Y-96409523D01*
X110495238Y-96361904D01*
X110400000Y-96266666D01*
X110352380Y-96171428D01*
X110352380Y-95980952D01*
X110400000Y-95885714D01*
X110495238Y-95790476D01*
X110685714Y-95742857D01*
X111019047Y-95742857D01*
X111209523Y-95790476D01*
X111304761Y-95885714D01*
X111352380Y-95980952D01*
X111352380Y-96171428D01*
X110352380Y-94885714D02*
X110352380Y-95076190D01*
X110400000Y-95171428D01*
X110447619Y-95219047D01*
X110590476Y-95314285D01*
X110780952Y-95361904D01*
X111161904Y-95361904D01*
X111257142Y-95314285D01*
X111304761Y-95266666D01*
X111352380Y-95171428D01*
X111352380Y-94980952D01*
X111304761Y-94885714D01*
X111257142Y-94838095D01*
X111161904Y-94790476D01*
X110923809Y-94790476D01*
X110828571Y-94838095D01*
X110780952Y-94885714D01*
X110733333Y-94980952D01*
X110733333Y-95171428D01*
X110780952Y-95266666D01*
X110828571Y-95314285D01*
X110923809Y-95361904D01*
X116947619Y-95695238D02*
X116900000Y-95790476D01*
X116804761Y-95885714D01*
X116661904Y-96028571D01*
X116614285Y-96123809D01*
X116614285Y-96219047D01*
X116852380Y-96171428D02*
X116804761Y-96266666D01*
X116709523Y-96361904D01*
X116519047Y-96409523D01*
X116185714Y-96409523D01*
X115995238Y-96361904D01*
X115900000Y-96266666D01*
X115852380Y-96171428D01*
X115852380Y-95980952D01*
X115900000Y-95885714D01*
X115995238Y-95790476D01*
X116185714Y-95742857D01*
X116519047Y-95742857D01*
X116709523Y-95790476D01*
X116804761Y-95885714D01*
X116852380Y-95980952D01*
X116852380Y-96171428D01*
X115852380Y-94838095D02*
X115852380Y-95314285D01*
X116328571Y-95361904D01*
X116280952Y-95314285D01*
X116233333Y-95219047D01*
X116233333Y-94980952D01*
X116280952Y-94885714D01*
X116328571Y-94838095D01*
X116423809Y-94790476D01*
X116661904Y-94790476D01*
X116757142Y-94838095D01*
X116804761Y-94885714D01*
X116852380Y-94980952D01*
X116852380Y-95219047D01*
X116804761Y-95314285D01*
X116757142Y-95361904D01*
X128947619Y-95695238D02*
X128900000Y-95790476D01*
X128804761Y-95885714D01*
X128661904Y-96028571D01*
X128614285Y-96123809D01*
X128614285Y-96219047D01*
X128852380Y-96171428D02*
X128804761Y-96266666D01*
X128709523Y-96361904D01*
X128519047Y-96409523D01*
X128185714Y-96409523D01*
X127995238Y-96361904D01*
X127900000Y-96266666D01*
X127852380Y-96171428D01*
X127852380Y-95980952D01*
X127900000Y-95885714D01*
X127995238Y-95790476D01*
X128185714Y-95742857D01*
X128519047Y-95742857D01*
X128709523Y-95790476D01*
X128804761Y-95885714D01*
X128852380Y-95980952D01*
X128852380Y-96171428D01*
X128185714Y-94885714D02*
X128852380Y-94885714D01*
X127804761Y-95123809D02*
X128519047Y-95361904D01*
X128519047Y-94742857D01*
X122947619Y-95695238D02*
X122900000Y-95790476D01*
X122804761Y-95885714D01*
X122661904Y-96028571D01*
X122614285Y-96123809D01*
X122614285Y-96219047D01*
X122852380Y-96171428D02*
X122804761Y-96266666D01*
X122709523Y-96361904D01*
X122519047Y-96409523D01*
X122185714Y-96409523D01*
X121995238Y-96361904D01*
X121900000Y-96266666D01*
X121852380Y-96171428D01*
X121852380Y-95980952D01*
X121900000Y-95885714D01*
X121995238Y-95790476D01*
X122185714Y-95742857D01*
X122519047Y-95742857D01*
X122709523Y-95790476D01*
X122804761Y-95885714D01*
X122852380Y-95980952D01*
X122852380Y-96171428D01*
X121852380Y-95409523D02*
X121852380Y-94790476D01*
X122233333Y-95123809D01*
X122233333Y-94980952D01*
X122280952Y-94885714D01*
X122328571Y-94838095D01*
X122423809Y-94790476D01*
X122661904Y-94790476D01*
X122757142Y-94838095D01*
X122804761Y-94885714D01*
X122852380Y-94980952D01*
X122852380Y-95266666D01*
X122804761Y-95361904D01*
X122757142Y-95409523D01*
X128804761Y-88047619D02*
X128709523Y-88000000D01*
X128614285Y-87904761D01*
X128471428Y-87761904D01*
X128376190Y-87714285D01*
X128280952Y-87714285D01*
X128328571Y-87952380D02*
X128233333Y-87904761D01*
X128138095Y-87809523D01*
X128090476Y-87619047D01*
X128090476Y-87285714D01*
X128138095Y-87095238D01*
X128233333Y-87000000D01*
X128328571Y-86952380D01*
X128519047Y-86952380D01*
X128614285Y-87000000D01*
X128709523Y-87095238D01*
X128757142Y-87285714D01*
X128757142Y-87619047D01*
X128709523Y-87809523D01*
X128614285Y-87904761D01*
X128519047Y-87952380D01*
X128328571Y-87952380D01*
X129138095Y-87047619D02*
X129185714Y-87000000D01*
X129280952Y-86952380D01*
X129519047Y-86952380D01*
X129614285Y-87000000D01*
X129661904Y-87047619D01*
X129709523Y-87142857D01*
X129709523Y-87238095D01*
X129661904Y-87380952D01*
X129090476Y-87952380D01*
X129709523Y-87952380D01*
X122204761Y-84347619D02*
X122109523Y-84300000D01*
X122014285Y-84204761D01*
X121871428Y-84061904D01*
X121776190Y-84014285D01*
X121680952Y-84014285D01*
X121728571Y-84252380D02*
X121633333Y-84204761D01*
X121538095Y-84109523D01*
X121490476Y-83919047D01*
X121490476Y-83585714D01*
X121538095Y-83395238D01*
X121633333Y-83300000D01*
X121728571Y-83252380D01*
X121919047Y-83252380D01*
X122014285Y-83300000D01*
X122109523Y-83395238D01*
X122157142Y-83585714D01*
X122157142Y-83919047D01*
X122109523Y-84109523D01*
X122014285Y-84204761D01*
X121919047Y-84252380D01*
X121728571Y-84252380D01*
X123109523Y-84252380D02*
X122538095Y-84252380D01*
X122823809Y-84252380D02*
X122823809Y-83252380D01*
X122728571Y-83395238D01*
X122633333Y-83490476D01*
X122538095Y-83538095D01*
X107122380Y-77333333D02*
X107836666Y-77333333D01*
X107979523Y-77380952D01*
X108074761Y-77476190D01*
X108122380Y-77619047D01*
X108122380Y-77714285D01*
X107217619Y-76904761D02*
X107170000Y-76857142D01*
X107122380Y-76761904D01*
X107122380Y-76523809D01*
X107170000Y-76428571D01*
X107217619Y-76380952D01*
X107312857Y-76333333D01*
X107408095Y-76333333D01*
X107550952Y-76380952D01*
X108122380Y-76952380D01*
X108122380Y-76333333D01*
X105166666Y-92452380D02*
X105166666Y-93166666D01*
X105119047Y-93309523D01*
X105023809Y-93404761D01*
X104880952Y-93452380D01*
X104785714Y-93452380D01*
X106166666Y-93452380D02*
X105595238Y-93452380D01*
X105880952Y-93452380D02*
X105880952Y-92452380D01*
X105785714Y-92595238D01*
X105690476Y-92690476D01*
X105595238Y-92738095D01*
X107500000Y-84238095D02*
X107452380Y-84333333D01*
X107452380Y-84476190D01*
X107500000Y-84619047D01*
X107595238Y-84714285D01*
X107690476Y-84761904D01*
X107880952Y-84809523D01*
X108023809Y-84809523D01*
X108214285Y-84761904D01*
X108309523Y-84714285D01*
X108404761Y-84619047D01*
X108452380Y-84476190D01*
X108452380Y-84380952D01*
X108404761Y-84238095D01*
X108357142Y-84190476D01*
X108023809Y-84190476D01*
X108023809Y-84380952D01*
X107452380Y-86833333D02*
X108452380Y-86500000D01*
X107452380Y-86166666D01*
X108452380Y-88761904D02*
X107452380Y-88761904D01*
X107452380Y-88523809D01*
X107500000Y-88380952D01*
X107595238Y-88285714D01*
X107690476Y-88238095D01*
X107880952Y-88190476D01*
X108023809Y-88190476D01*
X108214285Y-88238095D01*
X108309523Y-88285714D01*
X108404761Y-88380952D01*
X108452380Y-88523809D01*
X108452380Y-88761904D01*
X108357142Y-90190476D02*
X108404761Y-90238095D01*
X108452380Y-90380952D01*
X108452380Y-90476190D01*
X108404761Y-90619047D01*
X108309523Y-90714285D01*
X108214285Y-90761904D01*
X108023809Y-90809523D01*
X107880952Y-90809523D01*
X107690476Y-90761904D01*
X107595238Y-90714285D01*
X107500000Y-90619047D01*
X107452380Y-90476190D01*
X107452380Y-90380952D01*
X107500000Y-90238095D01*
X107547619Y-90190476D01*
X127033333Y-84957142D02*
X126985714Y-85004761D01*
X126842857Y-85052380D01*
X126747619Y-85052380D01*
X126604761Y-85004761D01*
X126509523Y-84909523D01*
X126461904Y-84814285D01*
X126414285Y-84623809D01*
X126414285Y-84480952D01*
X126461904Y-84290476D01*
X126509523Y-84195238D01*
X126604761Y-84100000D01*
X126747619Y-84052380D01*
X126842857Y-84052380D01*
X126985714Y-84100000D01*
X127033333Y-84147619D01*
X127890476Y-84052380D02*
X127700000Y-84052380D01*
X127604761Y-84100000D01*
X127557142Y-84147619D01*
X127461904Y-84290476D01*
X127414285Y-84480952D01*
X127414285Y-84861904D01*
X127461904Y-84957142D01*
X127509523Y-85004761D01*
X127604761Y-85052380D01*
X127795238Y-85052380D01*
X127890476Y-85004761D01*
X127938095Y-84957142D01*
X127985714Y-84861904D01*
X127985714Y-84623809D01*
X127938095Y-84528571D01*
X127890476Y-84480952D01*
X127795238Y-84433333D01*
X127604761Y-84433333D01*
X127509523Y-84480952D01*
X127461904Y-84528571D01*
X127414285Y-84623809D01*
X127033333Y-86957142D02*
X126985714Y-87004761D01*
X126842857Y-87052380D01*
X126747619Y-87052380D01*
X126604761Y-87004761D01*
X126509523Y-86909523D01*
X126461904Y-86814285D01*
X126414285Y-86623809D01*
X126414285Y-86480952D01*
X126461904Y-86290476D01*
X126509523Y-86195238D01*
X126604761Y-86100000D01*
X126747619Y-86052380D01*
X126842857Y-86052380D01*
X126985714Y-86100000D01*
X127033333Y-86147619D01*
X127938095Y-86052380D02*
X127461904Y-86052380D01*
X127414285Y-86528571D01*
X127461904Y-86480952D01*
X127557142Y-86433333D01*
X127795238Y-86433333D01*
X127890476Y-86480952D01*
X127938095Y-86528571D01*
X127985714Y-86623809D01*
X127985714Y-86861904D01*
X127938095Y-86957142D01*
X127890476Y-87004761D01*
X127795238Y-87052380D01*
X127557142Y-87052380D01*
X127461904Y-87004761D01*
X127414285Y-86957142D01*
X108633333Y-81457142D02*
X108585714Y-81504761D01*
X108442857Y-81552380D01*
X108347619Y-81552380D01*
X108204761Y-81504761D01*
X108109523Y-81409523D01*
X108061904Y-81314285D01*
X108014285Y-81123809D01*
X108014285Y-80980952D01*
X108061904Y-80790476D01*
X108109523Y-80695238D01*
X108204761Y-80600000D01*
X108347619Y-80552380D01*
X108442857Y-80552380D01*
X108585714Y-80600000D01*
X108633333Y-80647619D01*
X109490476Y-80885714D02*
X109490476Y-81552380D01*
X109252380Y-80504761D02*
X109014285Y-81219047D01*
X109633333Y-81219047D01*
X114857142Y-87166666D02*
X114904761Y-87214285D01*
X114952380Y-87357142D01*
X114952380Y-87452380D01*
X114904761Y-87595238D01*
X114809523Y-87690476D01*
X114714285Y-87738095D01*
X114523809Y-87785714D01*
X114380952Y-87785714D01*
X114190476Y-87738095D01*
X114095238Y-87690476D01*
X114000000Y-87595238D01*
X113952380Y-87452380D01*
X113952380Y-87357142D01*
X114000000Y-87214285D01*
X114047619Y-87166666D01*
X113952380Y-86833333D02*
X113952380Y-86214285D01*
X114333333Y-86547619D01*
X114333333Y-86404761D01*
X114380952Y-86309523D01*
X114428571Y-86261904D01*
X114523809Y-86214285D01*
X114761904Y-86214285D01*
X114857142Y-86261904D01*
X114904761Y-86309523D01*
X114952380Y-86404761D01*
X114952380Y-86690476D01*
X114904761Y-86785714D01*
X114857142Y-86833333D01*
X116333333Y-91357142D02*
X116285714Y-91404761D01*
X116142857Y-91452380D01*
X116047619Y-91452380D01*
X115904761Y-91404761D01*
X115809523Y-91309523D01*
X115761904Y-91214285D01*
X115714285Y-91023809D01*
X115714285Y-90880952D01*
X115761904Y-90690476D01*
X115809523Y-90595238D01*
X115904761Y-90500000D01*
X116047619Y-90452380D01*
X116142857Y-90452380D01*
X116285714Y-90500000D01*
X116333333Y-90547619D01*
X116714285Y-90547619D02*
X116761904Y-90500000D01*
X116857142Y-90452380D01*
X117095238Y-90452380D01*
X117190476Y-90500000D01*
X117238095Y-90547619D01*
X117285714Y-90642857D01*
X117285714Y-90738095D01*
X117238095Y-90880952D01*
X116666666Y-91452380D01*
X117285714Y-91452380D01*
X111333333Y-90057142D02*
X111285714Y-90104761D01*
X111142857Y-90152380D01*
X111047619Y-90152380D01*
X110904761Y-90104761D01*
X110809523Y-90009523D01*
X110761904Y-89914285D01*
X110714285Y-89723809D01*
X110714285Y-89580952D01*
X110761904Y-89390476D01*
X110809523Y-89295238D01*
X110904761Y-89200000D01*
X111047619Y-89152380D01*
X111142857Y-89152380D01*
X111285714Y-89200000D01*
X111333333Y-89247619D01*
X112285714Y-90152380D02*
X111714285Y-90152380D01*
X112000000Y-90152380D02*
X112000000Y-89152380D01*
X111904761Y-89295238D01*
X111809523Y-89390476D01*
X111714285Y-89438095D01*
%LPC*%
D12*
X103000000Y-97000000D03*
X103000000Y-78000000D03*
D13*
X118750000Y-86750000D03*
X119250000Y-86750000D03*
D14*
X119750000Y-86750000D03*
X119750000Y-87250000D03*
X119750000Y-87750000D03*
X119750000Y-88250000D03*
D13*
X119250000Y-88250000D03*
X118750000Y-88250000D03*
D14*
X118250000Y-88250000D03*
X118250000Y-87750000D03*
X118250000Y-87250000D03*
X118250000Y-86750000D03*
D15*
X110550000Y-83400000D03*
X112450000Y-83400000D03*
X112450000Y-85600000D03*
X111500000Y-85600000D03*
X110550000Y-85600000D03*
D16*
G36*
X119380691Y-92275176D02*
G01*
X119404401Y-92278693D01*
X119427652Y-92284517D01*
X119450220Y-92292592D01*
X119471889Y-92302841D01*
X119492448Y-92315164D01*
X119511701Y-92329442D01*
X119529461Y-92345539D01*
X119545558Y-92363299D01*
X119559836Y-92382552D01*
X119572159Y-92403111D01*
X119582408Y-92424780D01*
X119590483Y-92447348D01*
X119596307Y-92470599D01*
X119599824Y-92494309D01*
X119601000Y-92518250D01*
X119601000Y-93081750D01*
X119599824Y-93105691D01*
X119596307Y-93129401D01*
X119590483Y-93152652D01*
X119582408Y-93175220D01*
X119572159Y-93196889D01*
X119559836Y-93217448D01*
X119545558Y-93236701D01*
X119529461Y-93254461D01*
X119511701Y-93270558D01*
X119492448Y-93284836D01*
X119471889Y-93297159D01*
X119450220Y-93307408D01*
X119427652Y-93315483D01*
X119404401Y-93321307D01*
X119380691Y-93324824D01*
X119356750Y-93326000D01*
X118868250Y-93326000D01*
X118844309Y-93324824D01*
X118820599Y-93321307D01*
X118797348Y-93315483D01*
X118774780Y-93307408D01*
X118753111Y-93297159D01*
X118732552Y-93284836D01*
X118713299Y-93270558D01*
X118695539Y-93254461D01*
X118679442Y-93236701D01*
X118665164Y-93217448D01*
X118652841Y-93196889D01*
X118642592Y-93175220D01*
X118634517Y-93152652D01*
X118628693Y-93129401D01*
X118625176Y-93105691D01*
X118624000Y-93081750D01*
X118624000Y-92518250D01*
X118625176Y-92494309D01*
X118628693Y-92470599D01*
X118634517Y-92447348D01*
X118642592Y-92424780D01*
X118652841Y-92403111D01*
X118665164Y-92382552D01*
X118679442Y-92363299D01*
X118695539Y-92345539D01*
X118713299Y-92329442D01*
X118732552Y-92315164D01*
X118753111Y-92302841D01*
X118774780Y-92292592D01*
X118797348Y-92284517D01*
X118820599Y-92278693D01*
X118844309Y-92275176D01*
X118868250Y-92274000D01*
X119356750Y-92274000D01*
X119380691Y-92275176D01*
X119380691Y-92275176D01*
G37*
D17*
X119112500Y-92800000D03*
D16*
G36*
X120955691Y-92275176D02*
G01*
X120979401Y-92278693D01*
X121002652Y-92284517D01*
X121025220Y-92292592D01*
X121046889Y-92302841D01*
X121067448Y-92315164D01*
X121086701Y-92329442D01*
X121104461Y-92345539D01*
X121120558Y-92363299D01*
X121134836Y-92382552D01*
X121147159Y-92403111D01*
X121157408Y-92424780D01*
X121165483Y-92447348D01*
X121171307Y-92470599D01*
X121174824Y-92494309D01*
X121176000Y-92518250D01*
X121176000Y-93081750D01*
X121174824Y-93105691D01*
X121171307Y-93129401D01*
X121165483Y-93152652D01*
X121157408Y-93175220D01*
X121147159Y-93196889D01*
X121134836Y-93217448D01*
X121120558Y-93236701D01*
X121104461Y-93254461D01*
X121086701Y-93270558D01*
X121067448Y-93284836D01*
X121046889Y-93297159D01*
X121025220Y-93307408D01*
X121002652Y-93315483D01*
X120979401Y-93321307D01*
X120955691Y-93324824D01*
X120931750Y-93326000D01*
X120443250Y-93326000D01*
X120419309Y-93324824D01*
X120395599Y-93321307D01*
X120372348Y-93315483D01*
X120349780Y-93307408D01*
X120328111Y-93297159D01*
X120307552Y-93284836D01*
X120288299Y-93270558D01*
X120270539Y-93254461D01*
X120254442Y-93236701D01*
X120240164Y-93217448D01*
X120227841Y-93196889D01*
X120217592Y-93175220D01*
X120209517Y-93152652D01*
X120203693Y-93129401D01*
X120200176Y-93105691D01*
X120199000Y-93081750D01*
X120199000Y-92518250D01*
X120200176Y-92494309D01*
X120203693Y-92470599D01*
X120209517Y-92447348D01*
X120217592Y-92424780D01*
X120227841Y-92403111D01*
X120240164Y-92382552D01*
X120254442Y-92363299D01*
X120270539Y-92345539D01*
X120288299Y-92329442D01*
X120307552Y-92315164D01*
X120328111Y-92302841D01*
X120349780Y-92292592D01*
X120372348Y-92284517D01*
X120395599Y-92278693D01*
X120419309Y-92275176D01*
X120443250Y-92274000D01*
X120931750Y-92274000D01*
X120955691Y-92275176D01*
X120955691Y-92275176D01*
G37*
D17*
X120687500Y-92800000D03*
D16*
G36*
X113380691Y-92275176D02*
G01*
X113404401Y-92278693D01*
X113427652Y-92284517D01*
X113450220Y-92292592D01*
X113471889Y-92302841D01*
X113492448Y-92315164D01*
X113511701Y-92329442D01*
X113529461Y-92345539D01*
X113545558Y-92363299D01*
X113559836Y-92382552D01*
X113572159Y-92403111D01*
X113582408Y-92424780D01*
X113590483Y-92447348D01*
X113596307Y-92470599D01*
X113599824Y-92494309D01*
X113601000Y-92518250D01*
X113601000Y-93081750D01*
X113599824Y-93105691D01*
X113596307Y-93129401D01*
X113590483Y-93152652D01*
X113582408Y-93175220D01*
X113572159Y-93196889D01*
X113559836Y-93217448D01*
X113545558Y-93236701D01*
X113529461Y-93254461D01*
X113511701Y-93270558D01*
X113492448Y-93284836D01*
X113471889Y-93297159D01*
X113450220Y-93307408D01*
X113427652Y-93315483D01*
X113404401Y-93321307D01*
X113380691Y-93324824D01*
X113356750Y-93326000D01*
X112868250Y-93326000D01*
X112844309Y-93324824D01*
X112820599Y-93321307D01*
X112797348Y-93315483D01*
X112774780Y-93307408D01*
X112753111Y-93297159D01*
X112732552Y-93284836D01*
X112713299Y-93270558D01*
X112695539Y-93254461D01*
X112679442Y-93236701D01*
X112665164Y-93217448D01*
X112652841Y-93196889D01*
X112642592Y-93175220D01*
X112634517Y-93152652D01*
X112628693Y-93129401D01*
X112625176Y-93105691D01*
X112624000Y-93081750D01*
X112624000Y-92518250D01*
X112625176Y-92494309D01*
X112628693Y-92470599D01*
X112634517Y-92447348D01*
X112642592Y-92424780D01*
X112652841Y-92403111D01*
X112665164Y-92382552D01*
X112679442Y-92363299D01*
X112695539Y-92345539D01*
X112713299Y-92329442D01*
X112732552Y-92315164D01*
X112753111Y-92302841D01*
X112774780Y-92292592D01*
X112797348Y-92284517D01*
X112820599Y-92278693D01*
X112844309Y-92275176D01*
X112868250Y-92274000D01*
X113356750Y-92274000D01*
X113380691Y-92275176D01*
X113380691Y-92275176D01*
G37*
D17*
X113112500Y-92800000D03*
D16*
G36*
X114955691Y-92275176D02*
G01*
X114979401Y-92278693D01*
X115002652Y-92284517D01*
X115025220Y-92292592D01*
X115046889Y-92302841D01*
X115067448Y-92315164D01*
X115086701Y-92329442D01*
X115104461Y-92345539D01*
X115120558Y-92363299D01*
X115134836Y-92382552D01*
X115147159Y-92403111D01*
X115157408Y-92424780D01*
X115165483Y-92447348D01*
X115171307Y-92470599D01*
X115174824Y-92494309D01*
X115176000Y-92518250D01*
X115176000Y-93081750D01*
X115174824Y-93105691D01*
X115171307Y-93129401D01*
X115165483Y-93152652D01*
X115157408Y-93175220D01*
X115147159Y-93196889D01*
X115134836Y-93217448D01*
X115120558Y-93236701D01*
X115104461Y-93254461D01*
X115086701Y-93270558D01*
X115067448Y-93284836D01*
X115046889Y-93297159D01*
X115025220Y-93307408D01*
X115002652Y-93315483D01*
X114979401Y-93321307D01*
X114955691Y-93324824D01*
X114931750Y-93326000D01*
X114443250Y-93326000D01*
X114419309Y-93324824D01*
X114395599Y-93321307D01*
X114372348Y-93315483D01*
X114349780Y-93307408D01*
X114328111Y-93297159D01*
X114307552Y-93284836D01*
X114288299Y-93270558D01*
X114270539Y-93254461D01*
X114254442Y-93236701D01*
X114240164Y-93217448D01*
X114227841Y-93196889D01*
X114217592Y-93175220D01*
X114209517Y-93152652D01*
X114203693Y-93129401D01*
X114200176Y-93105691D01*
X114199000Y-93081750D01*
X114199000Y-92518250D01*
X114200176Y-92494309D01*
X114203693Y-92470599D01*
X114209517Y-92447348D01*
X114217592Y-92424780D01*
X114227841Y-92403111D01*
X114240164Y-92382552D01*
X114254442Y-92363299D01*
X114270539Y-92345539D01*
X114288299Y-92329442D01*
X114307552Y-92315164D01*
X114328111Y-92302841D01*
X114349780Y-92292592D01*
X114372348Y-92284517D01*
X114395599Y-92278693D01*
X114419309Y-92275176D01*
X114443250Y-92274000D01*
X114931750Y-92274000D01*
X114955691Y-92275176D01*
X114955691Y-92275176D01*
G37*
D17*
X114687500Y-92800000D03*
D16*
G36*
X125380691Y-92275176D02*
G01*
X125404401Y-92278693D01*
X125427652Y-92284517D01*
X125450220Y-92292592D01*
X125471889Y-92302841D01*
X125492448Y-92315164D01*
X125511701Y-92329442D01*
X125529461Y-92345539D01*
X125545558Y-92363299D01*
X125559836Y-92382552D01*
X125572159Y-92403111D01*
X125582408Y-92424780D01*
X125590483Y-92447348D01*
X125596307Y-92470599D01*
X125599824Y-92494309D01*
X125601000Y-92518250D01*
X125601000Y-93081750D01*
X125599824Y-93105691D01*
X125596307Y-93129401D01*
X125590483Y-93152652D01*
X125582408Y-93175220D01*
X125572159Y-93196889D01*
X125559836Y-93217448D01*
X125545558Y-93236701D01*
X125529461Y-93254461D01*
X125511701Y-93270558D01*
X125492448Y-93284836D01*
X125471889Y-93297159D01*
X125450220Y-93307408D01*
X125427652Y-93315483D01*
X125404401Y-93321307D01*
X125380691Y-93324824D01*
X125356750Y-93326000D01*
X124868250Y-93326000D01*
X124844309Y-93324824D01*
X124820599Y-93321307D01*
X124797348Y-93315483D01*
X124774780Y-93307408D01*
X124753111Y-93297159D01*
X124732552Y-93284836D01*
X124713299Y-93270558D01*
X124695539Y-93254461D01*
X124679442Y-93236701D01*
X124665164Y-93217448D01*
X124652841Y-93196889D01*
X124642592Y-93175220D01*
X124634517Y-93152652D01*
X124628693Y-93129401D01*
X124625176Y-93105691D01*
X124624000Y-93081750D01*
X124624000Y-92518250D01*
X124625176Y-92494309D01*
X124628693Y-92470599D01*
X124634517Y-92447348D01*
X124642592Y-92424780D01*
X124652841Y-92403111D01*
X124665164Y-92382552D01*
X124679442Y-92363299D01*
X124695539Y-92345539D01*
X124713299Y-92329442D01*
X124732552Y-92315164D01*
X124753111Y-92302841D01*
X124774780Y-92292592D01*
X124797348Y-92284517D01*
X124820599Y-92278693D01*
X124844309Y-92275176D01*
X124868250Y-92274000D01*
X125356750Y-92274000D01*
X125380691Y-92275176D01*
X125380691Y-92275176D01*
G37*
D17*
X125112500Y-92800000D03*
D16*
G36*
X126955691Y-92275176D02*
G01*
X126979401Y-92278693D01*
X127002652Y-92284517D01*
X127025220Y-92292592D01*
X127046889Y-92302841D01*
X127067448Y-92315164D01*
X127086701Y-92329442D01*
X127104461Y-92345539D01*
X127120558Y-92363299D01*
X127134836Y-92382552D01*
X127147159Y-92403111D01*
X127157408Y-92424780D01*
X127165483Y-92447348D01*
X127171307Y-92470599D01*
X127174824Y-92494309D01*
X127176000Y-92518250D01*
X127176000Y-93081750D01*
X127174824Y-93105691D01*
X127171307Y-93129401D01*
X127165483Y-93152652D01*
X127157408Y-93175220D01*
X127147159Y-93196889D01*
X127134836Y-93217448D01*
X127120558Y-93236701D01*
X127104461Y-93254461D01*
X127086701Y-93270558D01*
X127067448Y-93284836D01*
X127046889Y-93297159D01*
X127025220Y-93307408D01*
X127002652Y-93315483D01*
X126979401Y-93321307D01*
X126955691Y-93324824D01*
X126931750Y-93326000D01*
X126443250Y-93326000D01*
X126419309Y-93324824D01*
X126395599Y-93321307D01*
X126372348Y-93315483D01*
X126349780Y-93307408D01*
X126328111Y-93297159D01*
X126307552Y-93284836D01*
X126288299Y-93270558D01*
X126270539Y-93254461D01*
X126254442Y-93236701D01*
X126240164Y-93217448D01*
X126227841Y-93196889D01*
X126217592Y-93175220D01*
X126209517Y-93152652D01*
X126203693Y-93129401D01*
X126200176Y-93105691D01*
X126199000Y-93081750D01*
X126199000Y-92518250D01*
X126200176Y-92494309D01*
X126203693Y-92470599D01*
X126209517Y-92447348D01*
X126217592Y-92424780D01*
X126227841Y-92403111D01*
X126240164Y-92382552D01*
X126254442Y-92363299D01*
X126270539Y-92345539D01*
X126288299Y-92329442D01*
X126307552Y-92315164D01*
X126328111Y-92302841D01*
X126349780Y-92292592D01*
X126372348Y-92284517D01*
X126395599Y-92278693D01*
X126419309Y-92275176D01*
X126443250Y-92274000D01*
X126931750Y-92274000D01*
X126955691Y-92275176D01*
X126955691Y-92275176D01*
G37*
D17*
X126687500Y-92800000D03*
D16*
G36*
X107880691Y-92275176D02*
G01*
X107904401Y-92278693D01*
X107927652Y-92284517D01*
X107950220Y-92292592D01*
X107971889Y-92302841D01*
X107992448Y-92315164D01*
X108011701Y-92329442D01*
X108029461Y-92345539D01*
X108045558Y-92363299D01*
X108059836Y-92382552D01*
X108072159Y-92403111D01*
X108082408Y-92424780D01*
X108090483Y-92447348D01*
X108096307Y-92470599D01*
X108099824Y-92494309D01*
X108101000Y-92518250D01*
X108101000Y-93081750D01*
X108099824Y-93105691D01*
X108096307Y-93129401D01*
X108090483Y-93152652D01*
X108082408Y-93175220D01*
X108072159Y-93196889D01*
X108059836Y-93217448D01*
X108045558Y-93236701D01*
X108029461Y-93254461D01*
X108011701Y-93270558D01*
X107992448Y-93284836D01*
X107971889Y-93297159D01*
X107950220Y-93307408D01*
X107927652Y-93315483D01*
X107904401Y-93321307D01*
X107880691Y-93324824D01*
X107856750Y-93326000D01*
X107368250Y-93326000D01*
X107344309Y-93324824D01*
X107320599Y-93321307D01*
X107297348Y-93315483D01*
X107274780Y-93307408D01*
X107253111Y-93297159D01*
X107232552Y-93284836D01*
X107213299Y-93270558D01*
X107195539Y-93254461D01*
X107179442Y-93236701D01*
X107165164Y-93217448D01*
X107152841Y-93196889D01*
X107142592Y-93175220D01*
X107134517Y-93152652D01*
X107128693Y-93129401D01*
X107125176Y-93105691D01*
X107124000Y-93081750D01*
X107124000Y-92518250D01*
X107125176Y-92494309D01*
X107128693Y-92470599D01*
X107134517Y-92447348D01*
X107142592Y-92424780D01*
X107152841Y-92403111D01*
X107165164Y-92382552D01*
X107179442Y-92363299D01*
X107195539Y-92345539D01*
X107213299Y-92329442D01*
X107232552Y-92315164D01*
X107253111Y-92302841D01*
X107274780Y-92292592D01*
X107297348Y-92284517D01*
X107320599Y-92278693D01*
X107344309Y-92275176D01*
X107368250Y-92274000D01*
X107856750Y-92274000D01*
X107880691Y-92275176D01*
X107880691Y-92275176D01*
G37*
D17*
X107612500Y-92800000D03*
D16*
G36*
X109455691Y-92275176D02*
G01*
X109479401Y-92278693D01*
X109502652Y-92284517D01*
X109525220Y-92292592D01*
X109546889Y-92302841D01*
X109567448Y-92315164D01*
X109586701Y-92329442D01*
X109604461Y-92345539D01*
X109620558Y-92363299D01*
X109634836Y-92382552D01*
X109647159Y-92403111D01*
X109657408Y-92424780D01*
X109665483Y-92447348D01*
X109671307Y-92470599D01*
X109674824Y-92494309D01*
X109676000Y-92518250D01*
X109676000Y-93081750D01*
X109674824Y-93105691D01*
X109671307Y-93129401D01*
X109665483Y-93152652D01*
X109657408Y-93175220D01*
X109647159Y-93196889D01*
X109634836Y-93217448D01*
X109620558Y-93236701D01*
X109604461Y-93254461D01*
X109586701Y-93270558D01*
X109567448Y-93284836D01*
X109546889Y-93297159D01*
X109525220Y-93307408D01*
X109502652Y-93315483D01*
X109479401Y-93321307D01*
X109455691Y-93324824D01*
X109431750Y-93326000D01*
X108943250Y-93326000D01*
X108919309Y-93324824D01*
X108895599Y-93321307D01*
X108872348Y-93315483D01*
X108849780Y-93307408D01*
X108828111Y-93297159D01*
X108807552Y-93284836D01*
X108788299Y-93270558D01*
X108770539Y-93254461D01*
X108754442Y-93236701D01*
X108740164Y-93217448D01*
X108727841Y-93196889D01*
X108717592Y-93175220D01*
X108709517Y-93152652D01*
X108703693Y-93129401D01*
X108700176Y-93105691D01*
X108699000Y-93081750D01*
X108699000Y-92518250D01*
X108700176Y-92494309D01*
X108703693Y-92470599D01*
X108709517Y-92447348D01*
X108717592Y-92424780D01*
X108727841Y-92403111D01*
X108740164Y-92382552D01*
X108754442Y-92363299D01*
X108770539Y-92345539D01*
X108788299Y-92329442D01*
X108807552Y-92315164D01*
X108828111Y-92302841D01*
X108849780Y-92292592D01*
X108872348Y-92284517D01*
X108895599Y-92278693D01*
X108919309Y-92275176D01*
X108943250Y-92274000D01*
X109431750Y-92274000D01*
X109455691Y-92275176D01*
X109455691Y-92275176D01*
G37*
D17*
X109187500Y-92800000D03*
D16*
G36*
X122305691Y-90000176D02*
G01*
X122329401Y-90003693D01*
X122352652Y-90009517D01*
X122375220Y-90017592D01*
X122396889Y-90027841D01*
X122417448Y-90040164D01*
X122436701Y-90054442D01*
X122454461Y-90070539D01*
X122470558Y-90088299D01*
X122484836Y-90107552D01*
X122497159Y-90128111D01*
X122507408Y-90149780D01*
X122515483Y-90172348D01*
X122521307Y-90195599D01*
X122524824Y-90219309D01*
X122526000Y-90243250D01*
X122526000Y-90731750D01*
X122524824Y-90755691D01*
X122521307Y-90779401D01*
X122515483Y-90802652D01*
X122507408Y-90825220D01*
X122497159Y-90846889D01*
X122484836Y-90867448D01*
X122470558Y-90886701D01*
X122454461Y-90904461D01*
X122436701Y-90920558D01*
X122417448Y-90934836D01*
X122396889Y-90947159D01*
X122375220Y-90957408D01*
X122352652Y-90965483D01*
X122329401Y-90971307D01*
X122305691Y-90974824D01*
X122281750Y-90976000D01*
X121718250Y-90976000D01*
X121694309Y-90974824D01*
X121670599Y-90971307D01*
X121647348Y-90965483D01*
X121624780Y-90957408D01*
X121603111Y-90947159D01*
X121582552Y-90934836D01*
X121563299Y-90920558D01*
X121545539Y-90904461D01*
X121529442Y-90886701D01*
X121515164Y-90867448D01*
X121502841Y-90846889D01*
X121492592Y-90825220D01*
X121484517Y-90802652D01*
X121478693Y-90779401D01*
X121475176Y-90755691D01*
X121474000Y-90731750D01*
X121474000Y-90243250D01*
X121475176Y-90219309D01*
X121478693Y-90195599D01*
X121484517Y-90172348D01*
X121492592Y-90149780D01*
X121502841Y-90128111D01*
X121515164Y-90107552D01*
X121529442Y-90088299D01*
X121545539Y-90070539D01*
X121563299Y-90054442D01*
X121582552Y-90040164D01*
X121603111Y-90027841D01*
X121624780Y-90017592D01*
X121647348Y-90009517D01*
X121670599Y-90003693D01*
X121694309Y-90000176D01*
X121718250Y-89999000D01*
X122281750Y-89999000D01*
X122305691Y-90000176D01*
X122305691Y-90000176D01*
G37*
D17*
X122000000Y-90487500D03*
D16*
G36*
X122305691Y-88425176D02*
G01*
X122329401Y-88428693D01*
X122352652Y-88434517D01*
X122375220Y-88442592D01*
X122396889Y-88452841D01*
X122417448Y-88465164D01*
X122436701Y-88479442D01*
X122454461Y-88495539D01*
X122470558Y-88513299D01*
X122484836Y-88532552D01*
X122497159Y-88553111D01*
X122507408Y-88574780D01*
X122515483Y-88597348D01*
X122521307Y-88620599D01*
X122524824Y-88644309D01*
X122526000Y-88668250D01*
X122526000Y-89156750D01*
X122524824Y-89180691D01*
X122521307Y-89204401D01*
X122515483Y-89227652D01*
X122507408Y-89250220D01*
X122497159Y-89271889D01*
X122484836Y-89292448D01*
X122470558Y-89311701D01*
X122454461Y-89329461D01*
X122436701Y-89345558D01*
X122417448Y-89359836D01*
X122396889Y-89372159D01*
X122375220Y-89382408D01*
X122352652Y-89390483D01*
X122329401Y-89396307D01*
X122305691Y-89399824D01*
X122281750Y-89401000D01*
X121718250Y-89401000D01*
X121694309Y-89399824D01*
X121670599Y-89396307D01*
X121647348Y-89390483D01*
X121624780Y-89382408D01*
X121603111Y-89372159D01*
X121582552Y-89359836D01*
X121563299Y-89345558D01*
X121545539Y-89329461D01*
X121529442Y-89311701D01*
X121515164Y-89292448D01*
X121502841Y-89271889D01*
X121492592Y-89250220D01*
X121484517Y-89227652D01*
X121478693Y-89204401D01*
X121475176Y-89180691D01*
X121474000Y-89156750D01*
X121474000Y-88668250D01*
X121475176Y-88644309D01*
X121478693Y-88620599D01*
X121484517Y-88597348D01*
X121492592Y-88574780D01*
X121502841Y-88553111D01*
X121515164Y-88532552D01*
X121529442Y-88513299D01*
X121545539Y-88495539D01*
X121563299Y-88479442D01*
X121582552Y-88465164D01*
X121603111Y-88452841D01*
X121624780Y-88442592D01*
X121647348Y-88434517D01*
X121670599Y-88428693D01*
X121694309Y-88425176D01*
X121718250Y-88424000D01*
X122281750Y-88424000D01*
X122305691Y-88425176D01*
X122305691Y-88425176D01*
G37*
D17*
X122000000Y-88912500D03*
D16*
G36*
X122305691Y-81900176D02*
G01*
X122329401Y-81903693D01*
X122352652Y-81909517D01*
X122375220Y-81917592D01*
X122396889Y-81927841D01*
X122417448Y-81940164D01*
X122436701Y-81954442D01*
X122454461Y-81970539D01*
X122470558Y-81988299D01*
X122484836Y-82007552D01*
X122497159Y-82028111D01*
X122507408Y-82049780D01*
X122515483Y-82072348D01*
X122521307Y-82095599D01*
X122524824Y-82119309D01*
X122526000Y-82143250D01*
X122526000Y-82631750D01*
X122524824Y-82655691D01*
X122521307Y-82679401D01*
X122515483Y-82702652D01*
X122507408Y-82725220D01*
X122497159Y-82746889D01*
X122484836Y-82767448D01*
X122470558Y-82786701D01*
X122454461Y-82804461D01*
X122436701Y-82820558D01*
X122417448Y-82834836D01*
X122396889Y-82847159D01*
X122375220Y-82857408D01*
X122352652Y-82865483D01*
X122329401Y-82871307D01*
X122305691Y-82874824D01*
X122281750Y-82876000D01*
X121718250Y-82876000D01*
X121694309Y-82874824D01*
X121670599Y-82871307D01*
X121647348Y-82865483D01*
X121624780Y-82857408D01*
X121603111Y-82847159D01*
X121582552Y-82834836D01*
X121563299Y-82820558D01*
X121545539Y-82804461D01*
X121529442Y-82786701D01*
X121515164Y-82767448D01*
X121502841Y-82746889D01*
X121492592Y-82725220D01*
X121484517Y-82702652D01*
X121478693Y-82679401D01*
X121475176Y-82655691D01*
X121474000Y-82631750D01*
X121474000Y-82143250D01*
X121475176Y-82119309D01*
X121478693Y-82095599D01*
X121484517Y-82072348D01*
X121492592Y-82049780D01*
X121502841Y-82028111D01*
X121515164Y-82007552D01*
X121529442Y-81988299D01*
X121545539Y-81970539D01*
X121563299Y-81954442D01*
X121582552Y-81940164D01*
X121603111Y-81927841D01*
X121624780Y-81917592D01*
X121647348Y-81909517D01*
X121670599Y-81903693D01*
X121694309Y-81900176D01*
X121718250Y-81899000D01*
X122281750Y-81899000D01*
X122305691Y-81900176D01*
X122305691Y-81900176D01*
G37*
D17*
X122000000Y-82387500D03*
D16*
G36*
X122305691Y-80325176D02*
G01*
X122329401Y-80328693D01*
X122352652Y-80334517D01*
X122375220Y-80342592D01*
X122396889Y-80352841D01*
X122417448Y-80365164D01*
X122436701Y-80379442D01*
X122454461Y-80395539D01*
X122470558Y-80413299D01*
X122484836Y-80432552D01*
X122497159Y-80453111D01*
X122507408Y-80474780D01*
X122515483Y-80497348D01*
X122521307Y-80520599D01*
X122524824Y-80544309D01*
X122526000Y-80568250D01*
X122526000Y-81056750D01*
X122524824Y-81080691D01*
X122521307Y-81104401D01*
X122515483Y-81127652D01*
X122507408Y-81150220D01*
X122497159Y-81171889D01*
X122484836Y-81192448D01*
X122470558Y-81211701D01*
X122454461Y-81229461D01*
X122436701Y-81245558D01*
X122417448Y-81259836D01*
X122396889Y-81272159D01*
X122375220Y-81282408D01*
X122352652Y-81290483D01*
X122329401Y-81296307D01*
X122305691Y-81299824D01*
X122281750Y-81301000D01*
X121718250Y-81301000D01*
X121694309Y-81299824D01*
X121670599Y-81296307D01*
X121647348Y-81290483D01*
X121624780Y-81282408D01*
X121603111Y-81272159D01*
X121582552Y-81259836D01*
X121563299Y-81245558D01*
X121545539Y-81229461D01*
X121529442Y-81211701D01*
X121515164Y-81192448D01*
X121502841Y-81171889D01*
X121492592Y-81150220D01*
X121484517Y-81127652D01*
X121478693Y-81104401D01*
X121475176Y-81080691D01*
X121474000Y-81056750D01*
X121474000Y-80568250D01*
X121475176Y-80544309D01*
X121478693Y-80520599D01*
X121484517Y-80497348D01*
X121492592Y-80474780D01*
X121502841Y-80453111D01*
X121515164Y-80432552D01*
X121529442Y-80413299D01*
X121545539Y-80395539D01*
X121563299Y-80379442D01*
X121582552Y-80365164D01*
X121603111Y-80352841D01*
X121624780Y-80342592D01*
X121647348Y-80334517D01*
X121670599Y-80328693D01*
X121694309Y-80325176D01*
X121718250Y-80324000D01*
X122281750Y-80324000D01*
X122305691Y-80325176D01*
X122305691Y-80325176D01*
G37*
D17*
X122000000Y-80812500D03*
D16*
G36*
X119380691Y-97775176D02*
G01*
X119404401Y-97778693D01*
X119427652Y-97784517D01*
X119450220Y-97792592D01*
X119471889Y-97802841D01*
X119492448Y-97815164D01*
X119511701Y-97829442D01*
X119529461Y-97845539D01*
X119545558Y-97863299D01*
X119559836Y-97882552D01*
X119572159Y-97903111D01*
X119582408Y-97924780D01*
X119590483Y-97947348D01*
X119596307Y-97970599D01*
X119599824Y-97994309D01*
X119601000Y-98018250D01*
X119601000Y-98581750D01*
X119599824Y-98605691D01*
X119596307Y-98629401D01*
X119590483Y-98652652D01*
X119582408Y-98675220D01*
X119572159Y-98696889D01*
X119559836Y-98717448D01*
X119545558Y-98736701D01*
X119529461Y-98754461D01*
X119511701Y-98770558D01*
X119492448Y-98784836D01*
X119471889Y-98797159D01*
X119450220Y-98807408D01*
X119427652Y-98815483D01*
X119404401Y-98821307D01*
X119380691Y-98824824D01*
X119356750Y-98826000D01*
X118868250Y-98826000D01*
X118844309Y-98824824D01*
X118820599Y-98821307D01*
X118797348Y-98815483D01*
X118774780Y-98807408D01*
X118753111Y-98797159D01*
X118732552Y-98784836D01*
X118713299Y-98770558D01*
X118695539Y-98754461D01*
X118679442Y-98736701D01*
X118665164Y-98717448D01*
X118652841Y-98696889D01*
X118642592Y-98675220D01*
X118634517Y-98652652D01*
X118628693Y-98629401D01*
X118625176Y-98605691D01*
X118624000Y-98581750D01*
X118624000Y-98018250D01*
X118625176Y-97994309D01*
X118628693Y-97970599D01*
X118634517Y-97947348D01*
X118642592Y-97924780D01*
X118652841Y-97903111D01*
X118665164Y-97882552D01*
X118679442Y-97863299D01*
X118695539Y-97845539D01*
X118713299Y-97829442D01*
X118732552Y-97815164D01*
X118753111Y-97802841D01*
X118774780Y-97792592D01*
X118797348Y-97784517D01*
X118820599Y-97778693D01*
X118844309Y-97775176D01*
X118868250Y-97774000D01*
X119356750Y-97774000D01*
X119380691Y-97775176D01*
X119380691Y-97775176D01*
G37*
D17*
X119112500Y-98300000D03*
D16*
G36*
X120955691Y-97775176D02*
G01*
X120979401Y-97778693D01*
X121002652Y-97784517D01*
X121025220Y-97792592D01*
X121046889Y-97802841D01*
X121067448Y-97815164D01*
X121086701Y-97829442D01*
X121104461Y-97845539D01*
X121120558Y-97863299D01*
X121134836Y-97882552D01*
X121147159Y-97903111D01*
X121157408Y-97924780D01*
X121165483Y-97947348D01*
X121171307Y-97970599D01*
X121174824Y-97994309D01*
X121176000Y-98018250D01*
X121176000Y-98581750D01*
X121174824Y-98605691D01*
X121171307Y-98629401D01*
X121165483Y-98652652D01*
X121157408Y-98675220D01*
X121147159Y-98696889D01*
X121134836Y-98717448D01*
X121120558Y-98736701D01*
X121104461Y-98754461D01*
X121086701Y-98770558D01*
X121067448Y-98784836D01*
X121046889Y-98797159D01*
X121025220Y-98807408D01*
X121002652Y-98815483D01*
X120979401Y-98821307D01*
X120955691Y-98824824D01*
X120931750Y-98826000D01*
X120443250Y-98826000D01*
X120419309Y-98824824D01*
X120395599Y-98821307D01*
X120372348Y-98815483D01*
X120349780Y-98807408D01*
X120328111Y-98797159D01*
X120307552Y-98784836D01*
X120288299Y-98770558D01*
X120270539Y-98754461D01*
X120254442Y-98736701D01*
X120240164Y-98717448D01*
X120227841Y-98696889D01*
X120217592Y-98675220D01*
X120209517Y-98652652D01*
X120203693Y-98629401D01*
X120200176Y-98605691D01*
X120199000Y-98581750D01*
X120199000Y-98018250D01*
X120200176Y-97994309D01*
X120203693Y-97970599D01*
X120209517Y-97947348D01*
X120217592Y-97924780D01*
X120227841Y-97903111D01*
X120240164Y-97882552D01*
X120254442Y-97863299D01*
X120270539Y-97845539D01*
X120288299Y-97829442D01*
X120307552Y-97815164D01*
X120328111Y-97802841D01*
X120349780Y-97792592D01*
X120372348Y-97784517D01*
X120395599Y-97778693D01*
X120419309Y-97775176D01*
X120443250Y-97774000D01*
X120931750Y-97774000D01*
X120955691Y-97775176D01*
X120955691Y-97775176D01*
G37*
D17*
X120687500Y-98300000D03*
D16*
G36*
X113380691Y-97775176D02*
G01*
X113404401Y-97778693D01*
X113427652Y-97784517D01*
X113450220Y-97792592D01*
X113471889Y-97802841D01*
X113492448Y-97815164D01*
X113511701Y-97829442D01*
X113529461Y-97845539D01*
X113545558Y-97863299D01*
X113559836Y-97882552D01*
X113572159Y-97903111D01*
X113582408Y-97924780D01*
X113590483Y-97947348D01*
X113596307Y-97970599D01*
X113599824Y-97994309D01*
X113601000Y-98018250D01*
X113601000Y-98581750D01*
X113599824Y-98605691D01*
X113596307Y-98629401D01*
X113590483Y-98652652D01*
X113582408Y-98675220D01*
X113572159Y-98696889D01*
X113559836Y-98717448D01*
X113545558Y-98736701D01*
X113529461Y-98754461D01*
X113511701Y-98770558D01*
X113492448Y-98784836D01*
X113471889Y-98797159D01*
X113450220Y-98807408D01*
X113427652Y-98815483D01*
X113404401Y-98821307D01*
X113380691Y-98824824D01*
X113356750Y-98826000D01*
X112868250Y-98826000D01*
X112844309Y-98824824D01*
X112820599Y-98821307D01*
X112797348Y-98815483D01*
X112774780Y-98807408D01*
X112753111Y-98797159D01*
X112732552Y-98784836D01*
X112713299Y-98770558D01*
X112695539Y-98754461D01*
X112679442Y-98736701D01*
X112665164Y-98717448D01*
X112652841Y-98696889D01*
X112642592Y-98675220D01*
X112634517Y-98652652D01*
X112628693Y-98629401D01*
X112625176Y-98605691D01*
X112624000Y-98581750D01*
X112624000Y-98018250D01*
X112625176Y-97994309D01*
X112628693Y-97970599D01*
X112634517Y-97947348D01*
X112642592Y-97924780D01*
X112652841Y-97903111D01*
X112665164Y-97882552D01*
X112679442Y-97863299D01*
X112695539Y-97845539D01*
X112713299Y-97829442D01*
X112732552Y-97815164D01*
X112753111Y-97802841D01*
X112774780Y-97792592D01*
X112797348Y-97784517D01*
X112820599Y-97778693D01*
X112844309Y-97775176D01*
X112868250Y-97774000D01*
X113356750Y-97774000D01*
X113380691Y-97775176D01*
X113380691Y-97775176D01*
G37*
D17*
X113112500Y-98300000D03*
D16*
G36*
X114955691Y-97775176D02*
G01*
X114979401Y-97778693D01*
X115002652Y-97784517D01*
X115025220Y-97792592D01*
X115046889Y-97802841D01*
X115067448Y-97815164D01*
X115086701Y-97829442D01*
X115104461Y-97845539D01*
X115120558Y-97863299D01*
X115134836Y-97882552D01*
X115147159Y-97903111D01*
X115157408Y-97924780D01*
X115165483Y-97947348D01*
X115171307Y-97970599D01*
X115174824Y-97994309D01*
X115176000Y-98018250D01*
X115176000Y-98581750D01*
X115174824Y-98605691D01*
X115171307Y-98629401D01*
X115165483Y-98652652D01*
X115157408Y-98675220D01*
X115147159Y-98696889D01*
X115134836Y-98717448D01*
X115120558Y-98736701D01*
X115104461Y-98754461D01*
X115086701Y-98770558D01*
X115067448Y-98784836D01*
X115046889Y-98797159D01*
X115025220Y-98807408D01*
X115002652Y-98815483D01*
X114979401Y-98821307D01*
X114955691Y-98824824D01*
X114931750Y-98826000D01*
X114443250Y-98826000D01*
X114419309Y-98824824D01*
X114395599Y-98821307D01*
X114372348Y-98815483D01*
X114349780Y-98807408D01*
X114328111Y-98797159D01*
X114307552Y-98784836D01*
X114288299Y-98770558D01*
X114270539Y-98754461D01*
X114254442Y-98736701D01*
X114240164Y-98717448D01*
X114227841Y-98696889D01*
X114217592Y-98675220D01*
X114209517Y-98652652D01*
X114203693Y-98629401D01*
X114200176Y-98605691D01*
X114199000Y-98581750D01*
X114199000Y-98018250D01*
X114200176Y-97994309D01*
X114203693Y-97970599D01*
X114209517Y-97947348D01*
X114217592Y-97924780D01*
X114227841Y-97903111D01*
X114240164Y-97882552D01*
X114254442Y-97863299D01*
X114270539Y-97845539D01*
X114288299Y-97829442D01*
X114307552Y-97815164D01*
X114328111Y-97802841D01*
X114349780Y-97792592D01*
X114372348Y-97784517D01*
X114395599Y-97778693D01*
X114419309Y-97775176D01*
X114443250Y-97774000D01*
X114931750Y-97774000D01*
X114955691Y-97775176D01*
X114955691Y-97775176D01*
G37*
D17*
X114687500Y-98300000D03*
D16*
G36*
X125380691Y-97775176D02*
G01*
X125404401Y-97778693D01*
X125427652Y-97784517D01*
X125450220Y-97792592D01*
X125471889Y-97802841D01*
X125492448Y-97815164D01*
X125511701Y-97829442D01*
X125529461Y-97845539D01*
X125545558Y-97863299D01*
X125559836Y-97882552D01*
X125572159Y-97903111D01*
X125582408Y-97924780D01*
X125590483Y-97947348D01*
X125596307Y-97970599D01*
X125599824Y-97994309D01*
X125601000Y-98018250D01*
X125601000Y-98581750D01*
X125599824Y-98605691D01*
X125596307Y-98629401D01*
X125590483Y-98652652D01*
X125582408Y-98675220D01*
X125572159Y-98696889D01*
X125559836Y-98717448D01*
X125545558Y-98736701D01*
X125529461Y-98754461D01*
X125511701Y-98770558D01*
X125492448Y-98784836D01*
X125471889Y-98797159D01*
X125450220Y-98807408D01*
X125427652Y-98815483D01*
X125404401Y-98821307D01*
X125380691Y-98824824D01*
X125356750Y-98826000D01*
X124868250Y-98826000D01*
X124844309Y-98824824D01*
X124820599Y-98821307D01*
X124797348Y-98815483D01*
X124774780Y-98807408D01*
X124753111Y-98797159D01*
X124732552Y-98784836D01*
X124713299Y-98770558D01*
X124695539Y-98754461D01*
X124679442Y-98736701D01*
X124665164Y-98717448D01*
X124652841Y-98696889D01*
X124642592Y-98675220D01*
X124634517Y-98652652D01*
X124628693Y-98629401D01*
X124625176Y-98605691D01*
X124624000Y-98581750D01*
X124624000Y-98018250D01*
X124625176Y-97994309D01*
X124628693Y-97970599D01*
X124634517Y-97947348D01*
X124642592Y-97924780D01*
X124652841Y-97903111D01*
X124665164Y-97882552D01*
X124679442Y-97863299D01*
X124695539Y-97845539D01*
X124713299Y-97829442D01*
X124732552Y-97815164D01*
X124753111Y-97802841D01*
X124774780Y-97792592D01*
X124797348Y-97784517D01*
X124820599Y-97778693D01*
X124844309Y-97775176D01*
X124868250Y-97774000D01*
X125356750Y-97774000D01*
X125380691Y-97775176D01*
X125380691Y-97775176D01*
G37*
D17*
X125112500Y-98300000D03*
D16*
G36*
X126955691Y-97775176D02*
G01*
X126979401Y-97778693D01*
X127002652Y-97784517D01*
X127025220Y-97792592D01*
X127046889Y-97802841D01*
X127067448Y-97815164D01*
X127086701Y-97829442D01*
X127104461Y-97845539D01*
X127120558Y-97863299D01*
X127134836Y-97882552D01*
X127147159Y-97903111D01*
X127157408Y-97924780D01*
X127165483Y-97947348D01*
X127171307Y-97970599D01*
X127174824Y-97994309D01*
X127176000Y-98018250D01*
X127176000Y-98581750D01*
X127174824Y-98605691D01*
X127171307Y-98629401D01*
X127165483Y-98652652D01*
X127157408Y-98675220D01*
X127147159Y-98696889D01*
X127134836Y-98717448D01*
X127120558Y-98736701D01*
X127104461Y-98754461D01*
X127086701Y-98770558D01*
X127067448Y-98784836D01*
X127046889Y-98797159D01*
X127025220Y-98807408D01*
X127002652Y-98815483D01*
X126979401Y-98821307D01*
X126955691Y-98824824D01*
X126931750Y-98826000D01*
X126443250Y-98826000D01*
X126419309Y-98824824D01*
X126395599Y-98821307D01*
X126372348Y-98815483D01*
X126349780Y-98807408D01*
X126328111Y-98797159D01*
X126307552Y-98784836D01*
X126288299Y-98770558D01*
X126270539Y-98754461D01*
X126254442Y-98736701D01*
X126240164Y-98717448D01*
X126227841Y-98696889D01*
X126217592Y-98675220D01*
X126209517Y-98652652D01*
X126203693Y-98629401D01*
X126200176Y-98605691D01*
X126199000Y-98581750D01*
X126199000Y-98018250D01*
X126200176Y-97994309D01*
X126203693Y-97970599D01*
X126209517Y-97947348D01*
X126217592Y-97924780D01*
X126227841Y-97903111D01*
X126240164Y-97882552D01*
X126254442Y-97863299D01*
X126270539Y-97845539D01*
X126288299Y-97829442D01*
X126307552Y-97815164D01*
X126328111Y-97802841D01*
X126349780Y-97792592D01*
X126372348Y-97784517D01*
X126395599Y-97778693D01*
X126419309Y-97775176D01*
X126443250Y-97774000D01*
X126931750Y-97774000D01*
X126955691Y-97775176D01*
X126955691Y-97775176D01*
G37*
D17*
X126687500Y-98300000D03*
D16*
G36*
X107880691Y-97775176D02*
G01*
X107904401Y-97778693D01*
X107927652Y-97784517D01*
X107950220Y-97792592D01*
X107971889Y-97802841D01*
X107992448Y-97815164D01*
X108011701Y-97829442D01*
X108029461Y-97845539D01*
X108045558Y-97863299D01*
X108059836Y-97882552D01*
X108072159Y-97903111D01*
X108082408Y-97924780D01*
X108090483Y-97947348D01*
X108096307Y-97970599D01*
X108099824Y-97994309D01*
X108101000Y-98018250D01*
X108101000Y-98581750D01*
X108099824Y-98605691D01*
X108096307Y-98629401D01*
X108090483Y-98652652D01*
X108082408Y-98675220D01*
X108072159Y-98696889D01*
X108059836Y-98717448D01*
X108045558Y-98736701D01*
X108029461Y-98754461D01*
X108011701Y-98770558D01*
X107992448Y-98784836D01*
X107971889Y-98797159D01*
X107950220Y-98807408D01*
X107927652Y-98815483D01*
X107904401Y-98821307D01*
X107880691Y-98824824D01*
X107856750Y-98826000D01*
X107368250Y-98826000D01*
X107344309Y-98824824D01*
X107320599Y-98821307D01*
X107297348Y-98815483D01*
X107274780Y-98807408D01*
X107253111Y-98797159D01*
X107232552Y-98784836D01*
X107213299Y-98770558D01*
X107195539Y-98754461D01*
X107179442Y-98736701D01*
X107165164Y-98717448D01*
X107152841Y-98696889D01*
X107142592Y-98675220D01*
X107134517Y-98652652D01*
X107128693Y-98629401D01*
X107125176Y-98605691D01*
X107124000Y-98581750D01*
X107124000Y-98018250D01*
X107125176Y-97994309D01*
X107128693Y-97970599D01*
X107134517Y-97947348D01*
X107142592Y-97924780D01*
X107152841Y-97903111D01*
X107165164Y-97882552D01*
X107179442Y-97863299D01*
X107195539Y-97845539D01*
X107213299Y-97829442D01*
X107232552Y-97815164D01*
X107253111Y-97802841D01*
X107274780Y-97792592D01*
X107297348Y-97784517D01*
X107320599Y-97778693D01*
X107344309Y-97775176D01*
X107368250Y-97774000D01*
X107856750Y-97774000D01*
X107880691Y-97775176D01*
X107880691Y-97775176D01*
G37*
D17*
X107612500Y-98300000D03*
D16*
G36*
X109455691Y-97775176D02*
G01*
X109479401Y-97778693D01*
X109502652Y-97784517D01*
X109525220Y-97792592D01*
X109546889Y-97802841D01*
X109567448Y-97815164D01*
X109586701Y-97829442D01*
X109604461Y-97845539D01*
X109620558Y-97863299D01*
X109634836Y-97882552D01*
X109647159Y-97903111D01*
X109657408Y-97924780D01*
X109665483Y-97947348D01*
X109671307Y-97970599D01*
X109674824Y-97994309D01*
X109676000Y-98018250D01*
X109676000Y-98581750D01*
X109674824Y-98605691D01*
X109671307Y-98629401D01*
X109665483Y-98652652D01*
X109657408Y-98675220D01*
X109647159Y-98696889D01*
X109634836Y-98717448D01*
X109620558Y-98736701D01*
X109604461Y-98754461D01*
X109586701Y-98770558D01*
X109567448Y-98784836D01*
X109546889Y-98797159D01*
X109525220Y-98807408D01*
X109502652Y-98815483D01*
X109479401Y-98821307D01*
X109455691Y-98824824D01*
X109431750Y-98826000D01*
X108943250Y-98826000D01*
X108919309Y-98824824D01*
X108895599Y-98821307D01*
X108872348Y-98815483D01*
X108849780Y-98807408D01*
X108828111Y-98797159D01*
X108807552Y-98784836D01*
X108788299Y-98770558D01*
X108770539Y-98754461D01*
X108754442Y-98736701D01*
X108740164Y-98717448D01*
X108727841Y-98696889D01*
X108717592Y-98675220D01*
X108709517Y-98652652D01*
X108703693Y-98629401D01*
X108700176Y-98605691D01*
X108699000Y-98581750D01*
X108699000Y-98018250D01*
X108700176Y-97994309D01*
X108703693Y-97970599D01*
X108709517Y-97947348D01*
X108717592Y-97924780D01*
X108727841Y-97903111D01*
X108740164Y-97882552D01*
X108754442Y-97863299D01*
X108770539Y-97845539D01*
X108788299Y-97829442D01*
X108807552Y-97815164D01*
X108828111Y-97802841D01*
X108849780Y-97792592D01*
X108872348Y-97784517D01*
X108895599Y-97778693D01*
X108919309Y-97775176D01*
X108943250Y-97774000D01*
X109431750Y-97774000D01*
X109455691Y-97775176D01*
X109455691Y-97775176D01*
G37*
D17*
X109187500Y-98300000D03*
D16*
G36*
X128305691Y-90000176D02*
G01*
X128329401Y-90003693D01*
X128352652Y-90009517D01*
X128375220Y-90017592D01*
X128396889Y-90027841D01*
X128417448Y-90040164D01*
X128436701Y-90054442D01*
X128454461Y-90070539D01*
X128470558Y-90088299D01*
X128484836Y-90107552D01*
X128497159Y-90128111D01*
X128507408Y-90149780D01*
X128515483Y-90172348D01*
X128521307Y-90195599D01*
X128524824Y-90219309D01*
X128526000Y-90243250D01*
X128526000Y-90731750D01*
X128524824Y-90755691D01*
X128521307Y-90779401D01*
X128515483Y-90802652D01*
X128507408Y-90825220D01*
X128497159Y-90846889D01*
X128484836Y-90867448D01*
X128470558Y-90886701D01*
X128454461Y-90904461D01*
X128436701Y-90920558D01*
X128417448Y-90934836D01*
X128396889Y-90947159D01*
X128375220Y-90957408D01*
X128352652Y-90965483D01*
X128329401Y-90971307D01*
X128305691Y-90974824D01*
X128281750Y-90976000D01*
X127718250Y-90976000D01*
X127694309Y-90974824D01*
X127670599Y-90971307D01*
X127647348Y-90965483D01*
X127624780Y-90957408D01*
X127603111Y-90947159D01*
X127582552Y-90934836D01*
X127563299Y-90920558D01*
X127545539Y-90904461D01*
X127529442Y-90886701D01*
X127515164Y-90867448D01*
X127502841Y-90846889D01*
X127492592Y-90825220D01*
X127484517Y-90802652D01*
X127478693Y-90779401D01*
X127475176Y-90755691D01*
X127474000Y-90731750D01*
X127474000Y-90243250D01*
X127475176Y-90219309D01*
X127478693Y-90195599D01*
X127484517Y-90172348D01*
X127492592Y-90149780D01*
X127502841Y-90128111D01*
X127515164Y-90107552D01*
X127529442Y-90088299D01*
X127545539Y-90070539D01*
X127563299Y-90054442D01*
X127582552Y-90040164D01*
X127603111Y-90027841D01*
X127624780Y-90017592D01*
X127647348Y-90009517D01*
X127670599Y-90003693D01*
X127694309Y-90000176D01*
X127718250Y-89999000D01*
X128281750Y-89999000D01*
X128305691Y-90000176D01*
X128305691Y-90000176D01*
G37*
D17*
X128000000Y-90487500D03*
D16*
G36*
X128305691Y-88425176D02*
G01*
X128329401Y-88428693D01*
X128352652Y-88434517D01*
X128375220Y-88442592D01*
X128396889Y-88452841D01*
X128417448Y-88465164D01*
X128436701Y-88479442D01*
X128454461Y-88495539D01*
X128470558Y-88513299D01*
X128484836Y-88532552D01*
X128497159Y-88553111D01*
X128507408Y-88574780D01*
X128515483Y-88597348D01*
X128521307Y-88620599D01*
X128524824Y-88644309D01*
X128526000Y-88668250D01*
X128526000Y-89156750D01*
X128524824Y-89180691D01*
X128521307Y-89204401D01*
X128515483Y-89227652D01*
X128507408Y-89250220D01*
X128497159Y-89271889D01*
X128484836Y-89292448D01*
X128470558Y-89311701D01*
X128454461Y-89329461D01*
X128436701Y-89345558D01*
X128417448Y-89359836D01*
X128396889Y-89372159D01*
X128375220Y-89382408D01*
X128352652Y-89390483D01*
X128329401Y-89396307D01*
X128305691Y-89399824D01*
X128281750Y-89401000D01*
X127718250Y-89401000D01*
X127694309Y-89399824D01*
X127670599Y-89396307D01*
X127647348Y-89390483D01*
X127624780Y-89382408D01*
X127603111Y-89372159D01*
X127582552Y-89359836D01*
X127563299Y-89345558D01*
X127545539Y-89329461D01*
X127529442Y-89311701D01*
X127515164Y-89292448D01*
X127502841Y-89271889D01*
X127492592Y-89250220D01*
X127484517Y-89227652D01*
X127478693Y-89204401D01*
X127475176Y-89180691D01*
X127474000Y-89156750D01*
X127474000Y-88668250D01*
X127475176Y-88644309D01*
X127478693Y-88620599D01*
X127484517Y-88597348D01*
X127492592Y-88574780D01*
X127502841Y-88553111D01*
X127515164Y-88532552D01*
X127529442Y-88513299D01*
X127545539Y-88495539D01*
X127563299Y-88479442D01*
X127582552Y-88465164D01*
X127603111Y-88452841D01*
X127624780Y-88442592D01*
X127647348Y-88434517D01*
X127670599Y-88428693D01*
X127694309Y-88425176D01*
X127718250Y-88424000D01*
X128281750Y-88424000D01*
X128305691Y-88425176D01*
X128305691Y-88425176D01*
G37*
D17*
X128000000Y-88912500D03*
D16*
G36*
X128305691Y-81900176D02*
G01*
X128329401Y-81903693D01*
X128352652Y-81909517D01*
X128375220Y-81917592D01*
X128396889Y-81927841D01*
X128417448Y-81940164D01*
X128436701Y-81954442D01*
X128454461Y-81970539D01*
X128470558Y-81988299D01*
X128484836Y-82007552D01*
X128497159Y-82028111D01*
X128507408Y-82049780D01*
X128515483Y-82072348D01*
X128521307Y-82095599D01*
X128524824Y-82119309D01*
X128526000Y-82143250D01*
X128526000Y-82631750D01*
X128524824Y-82655691D01*
X128521307Y-82679401D01*
X128515483Y-82702652D01*
X128507408Y-82725220D01*
X128497159Y-82746889D01*
X128484836Y-82767448D01*
X128470558Y-82786701D01*
X128454461Y-82804461D01*
X128436701Y-82820558D01*
X128417448Y-82834836D01*
X128396889Y-82847159D01*
X128375220Y-82857408D01*
X128352652Y-82865483D01*
X128329401Y-82871307D01*
X128305691Y-82874824D01*
X128281750Y-82876000D01*
X127718250Y-82876000D01*
X127694309Y-82874824D01*
X127670599Y-82871307D01*
X127647348Y-82865483D01*
X127624780Y-82857408D01*
X127603111Y-82847159D01*
X127582552Y-82834836D01*
X127563299Y-82820558D01*
X127545539Y-82804461D01*
X127529442Y-82786701D01*
X127515164Y-82767448D01*
X127502841Y-82746889D01*
X127492592Y-82725220D01*
X127484517Y-82702652D01*
X127478693Y-82679401D01*
X127475176Y-82655691D01*
X127474000Y-82631750D01*
X127474000Y-82143250D01*
X127475176Y-82119309D01*
X127478693Y-82095599D01*
X127484517Y-82072348D01*
X127492592Y-82049780D01*
X127502841Y-82028111D01*
X127515164Y-82007552D01*
X127529442Y-81988299D01*
X127545539Y-81970539D01*
X127563299Y-81954442D01*
X127582552Y-81940164D01*
X127603111Y-81927841D01*
X127624780Y-81917592D01*
X127647348Y-81909517D01*
X127670599Y-81903693D01*
X127694309Y-81900176D01*
X127718250Y-81899000D01*
X128281750Y-81899000D01*
X128305691Y-81900176D01*
X128305691Y-81900176D01*
G37*
D17*
X128000000Y-82387500D03*
D16*
G36*
X128305691Y-80325176D02*
G01*
X128329401Y-80328693D01*
X128352652Y-80334517D01*
X128375220Y-80342592D01*
X128396889Y-80352841D01*
X128417448Y-80365164D01*
X128436701Y-80379442D01*
X128454461Y-80395539D01*
X128470558Y-80413299D01*
X128484836Y-80432552D01*
X128497159Y-80453111D01*
X128507408Y-80474780D01*
X128515483Y-80497348D01*
X128521307Y-80520599D01*
X128524824Y-80544309D01*
X128526000Y-80568250D01*
X128526000Y-81056750D01*
X128524824Y-81080691D01*
X128521307Y-81104401D01*
X128515483Y-81127652D01*
X128507408Y-81150220D01*
X128497159Y-81171889D01*
X128484836Y-81192448D01*
X128470558Y-81211701D01*
X128454461Y-81229461D01*
X128436701Y-81245558D01*
X128417448Y-81259836D01*
X128396889Y-81272159D01*
X128375220Y-81282408D01*
X128352652Y-81290483D01*
X128329401Y-81296307D01*
X128305691Y-81299824D01*
X128281750Y-81301000D01*
X127718250Y-81301000D01*
X127694309Y-81299824D01*
X127670599Y-81296307D01*
X127647348Y-81290483D01*
X127624780Y-81282408D01*
X127603111Y-81272159D01*
X127582552Y-81259836D01*
X127563299Y-81245558D01*
X127545539Y-81229461D01*
X127529442Y-81211701D01*
X127515164Y-81192448D01*
X127502841Y-81171889D01*
X127492592Y-81150220D01*
X127484517Y-81127652D01*
X127478693Y-81104401D01*
X127475176Y-81080691D01*
X127474000Y-81056750D01*
X127474000Y-80568250D01*
X127475176Y-80544309D01*
X127478693Y-80520599D01*
X127484517Y-80497348D01*
X127492592Y-80474780D01*
X127502841Y-80453111D01*
X127515164Y-80432552D01*
X127529442Y-80413299D01*
X127545539Y-80395539D01*
X127563299Y-80379442D01*
X127582552Y-80365164D01*
X127603111Y-80352841D01*
X127624780Y-80342592D01*
X127647348Y-80334517D01*
X127670599Y-80328693D01*
X127694309Y-80325176D01*
X127718250Y-80324000D01*
X128281750Y-80324000D01*
X128305691Y-80325176D01*
X128305691Y-80325176D01*
G37*
D17*
X128000000Y-80812500D03*
D18*
X108400000Y-96600000D03*
X107450000Y-94600000D03*
X109350000Y-94600000D03*
X113900000Y-96600000D03*
X112950000Y-94600000D03*
X114850000Y-94600000D03*
X125900000Y-96600000D03*
X124950000Y-94600000D03*
X126850000Y-94600000D03*
X119900000Y-96600000D03*
X118950000Y-94600000D03*
X120850000Y-94600000D03*
D19*
X126000000Y-89700000D03*
X124000000Y-90650000D03*
X124000000Y-88750000D03*
X126000000Y-81600000D03*
X124000000Y-82550000D03*
X124000000Y-80650000D03*
D20*
X127780000Y-77000000D03*
X125240000Y-77000000D03*
X122700000Y-77000000D03*
X120160000Y-77000000D03*
X117620000Y-77000000D03*
X115080000Y-77000000D03*
X112540000Y-77000000D03*
D21*
X110000000Y-77000000D03*
D22*
X105500000Y-84500000D03*
X105500000Y-86500000D03*
X105500000Y-88500000D03*
X105500000Y-90500000D03*
D16*
G36*
X125855691Y-84075176D02*
G01*
X125879401Y-84078693D01*
X125902652Y-84084517D01*
X125925220Y-84092592D01*
X125946889Y-84102841D01*
X125967448Y-84115164D01*
X125986701Y-84129442D01*
X126004461Y-84145539D01*
X126020558Y-84163299D01*
X126034836Y-84182552D01*
X126047159Y-84203111D01*
X126057408Y-84224780D01*
X126065483Y-84247348D01*
X126071307Y-84270599D01*
X126074824Y-84294309D01*
X126076000Y-84318250D01*
X126076000Y-84881750D01*
X126074824Y-84905691D01*
X126071307Y-84929401D01*
X126065483Y-84952652D01*
X126057408Y-84975220D01*
X126047159Y-84996889D01*
X126034836Y-85017448D01*
X126020558Y-85036701D01*
X126004461Y-85054461D01*
X125986701Y-85070558D01*
X125967448Y-85084836D01*
X125946889Y-85097159D01*
X125925220Y-85107408D01*
X125902652Y-85115483D01*
X125879401Y-85121307D01*
X125855691Y-85124824D01*
X125831750Y-85126000D01*
X125343250Y-85126000D01*
X125319309Y-85124824D01*
X125295599Y-85121307D01*
X125272348Y-85115483D01*
X125249780Y-85107408D01*
X125228111Y-85097159D01*
X125207552Y-85084836D01*
X125188299Y-85070558D01*
X125170539Y-85054461D01*
X125154442Y-85036701D01*
X125140164Y-85017448D01*
X125127841Y-84996889D01*
X125117592Y-84975220D01*
X125109517Y-84952652D01*
X125103693Y-84929401D01*
X125100176Y-84905691D01*
X125099000Y-84881750D01*
X125099000Y-84318250D01*
X125100176Y-84294309D01*
X125103693Y-84270599D01*
X125109517Y-84247348D01*
X125117592Y-84224780D01*
X125127841Y-84203111D01*
X125140164Y-84182552D01*
X125154442Y-84163299D01*
X125170539Y-84145539D01*
X125188299Y-84129442D01*
X125207552Y-84115164D01*
X125228111Y-84102841D01*
X125249780Y-84092592D01*
X125272348Y-84084517D01*
X125295599Y-84078693D01*
X125319309Y-84075176D01*
X125343250Y-84074000D01*
X125831750Y-84074000D01*
X125855691Y-84075176D01*
X125855691Y-84075176D01*
G37*
D17*
X125587500Y-84600000D03*
D16*
G36*
X124280691Y-84075176D02*
G01*
X124304401Y-84078693D01*
X124327652Y-84084517D01*
X124350220Y-84092592D01*
X124371889Y-84102841D01*
X124392448Y-84115164D01*
X124411701Y-84129442D01*
X124429461Y-84145539D01*
X124445558Y-84163299D01*
X124459836Y-84182552D01*
X124472159Y-84203111D01*
X124482408Y-84224780D01*
X124490483Y-84247348D01*
X124496307Y-84270599D01*
X124499824Y-84294309D01*
X124501000Y-84318250D01*
X124501000Y-84881750D01*
X124499824Y-84905691D01*
X124496307Y-84929401D01*
X124490483Y-84952652D01*
X124482408Y-84975220D01*
X124472159Y-84996889D01*
X124459836Y-85017448D01*
X124445558Y-85036701D01*
X124429461Y-85054461D01*
X124411701Y-85070558D01*
X124392448Y-85084836D01*
X124371889Y-85097159D01*
X124350220Y-85107408D01*
X124327652Y-85115483D01*
X124304401Y-85121307D01*
X124280691Y-85124824D01*
X124256750Y-85126000D01*
X123768250Y-85126000D01*
X123744309Y-85124824D01*
X123720599Y-85121307D01*
X123697348Y-85115483D01*
X123674780Y-85107408D01*
X123653111Y-85097159D01*
X123632552Y-85084836D01*
X123613299Y-85070558D01*
X123595539Y-85054461D01*
X123579442Y-85036701D01*
X123565164Y-85017448D01*
X123552841Y-84996889D01*
X123542592Y-84975220D01*
X123534517Y-84952652D01*
X123528693Y-84929401D01*
X123525176Y-84905691D01*
X123524000Y-84881750D01*
X123524000Y-84318250D01*
X123525176Y-84294309D01*
X123528693Y-84270599D01*
X123534517Y-84247348D01*
X123542592Y-84224780D01*
X123552841Y-84203111D01*
X123565164Y-84182552D01*
X123579442Y-84163299D01*
X123595539Y-84145539D01*
X123613299Y-84129442D01*
X123632552Y-84115164D01*
X123653111Y-84102841D01*
X123674780Y-84092592D01*
X123697348Y-84084517D01*
X123720599Y-84078693D01*
X123744309Y-84075176D01*
X123768250Y-84074000D01*
X124256750Y-84074000D01*
X124280691Y-84075176D01*
X124280691Y-84075176D01*
G37*
D17*
X124012500Y-84600000D03*
D16*
G36*
X125855691Y-86075176D02*
G01*
X125879401Y-86078693D01*
X125902652Y-86084517D01*
X125925220Y-86092592D01*
X125946889Y-86102841D01*
X125967448Y-86115164D01*
X125986701Y-86129442D01*
X126004461Y-86145539D01*
X126020558Y-86163299D01*
X126034836Y-86182552D01*
X126047159Y-86203111D01*
X126057408Y-86224780D01*
X126065483Y-86247348D01*
X126071307Y-86270599D01*
X126074824Y-86294309D01*
X126076000Y-86318250D01*
X126076000Y-86881750D01*
X126074824Y-86905691D01*
X126071307Y-86929401D01*
X126065483Y-86952652D01*
X126057408Y-86975220D01*
X126047159Y-86996889D01*
X126034836Y-87017448D01*
X126020558Y-87036701D01*
X126004461Y-87054461D01*
X125986701Y-87070558D01*
X125967448Y-87084836D01*
X125946889Y-87097159D01*
X125925220Y-87107408D01*
X125902652Y-87115483D01*
X125879401Y-87121307D01*
X125855691Y-87124824D01*
X125831750Y-87126000D01*
X125343250Y-87126000D01*
X125319309Y-87124824D01*
X125295599Y-87121307D01*
X125272348Y-87115483D01*
X125249780Y-87107408D01*
X125228111Y-87097159D01*
X125207552Y-87084836D01*
X125188299Y-87070558D01*
X125170539Y-87054461D01*
X125154442Y-87036701D01*
X125140164Y-87017448D01*
X125127841Y-86996889D01*
X125117592Y-86975220D01*
X125109517Y-86952652D01*
X125103693Y-86929401D01*
X125100176Y-86905691D01*
X125099000Y-86881750D01*
X125099000Y-86318250D01*
X125100176Y-86294309D01*
X125103693Y-86270599D01*
X125109517Y-86247348D01*
X125117592Y-86224780D01*
X125127841Y-86203111D01*
X125140164Y-86182552D01*
X125154442Y-86163299D01*
X125170539Y-86145539D01*
X125188299Y-86129442D01*
X125207552Y-86115164D01*
X125228111Y-86102841D01*
X125249780Y-86092592D01*
X125272348Y-86084517D01*
X125295599Y-86078693D01*
X125319309Y-86075176D01*
X125343250Y-86074000D01*
X125831750Y-86074000D01*
X125855691Y-86075176D01*
X125855691Y-86075176D01*
G37*
D17*
X125587500Y-86600000D03*
D16*
G36*
X124280691Y-86075176D02*
G01*
X124304401Y-86078693D01*
X124327652Y-86084517D01*
X124350220Y-86092592D01*
X124371889Y-86102841D01*
X124392448Y-86115164D01*
X124411701Y-86129442D01*
X124429461Y-86145539D01*
X124445558Y-86163299D01*
X124459836Y-86182552D01*
X124472159Y-86203111D01*
X124482408Y-86224780D01*
X124490483Y-86247348D01*
X124496307Y-86270599D01*
X124499824Y-86294309D01*
X124501000Y-86318250D01*
X124501000Y-86881750D01*
X124499824Y-86905691D01*
X124496307Y-86929401D01*
X124490483Y-86952652D01*
X124482408Y-86975220D01*
X124472159Y-86996889D01*
X124459836Y-87017448D01*
X124445558Y-87036701D01*
X124429461Y-87054461D01*
X124411701Y-87070558D01*
X124392448Y-87084836D01*
X124371889Y-87097159D01*
X124350220Y-87107408D01*
X124327652Y-87115483D01*
X124304401Y-87121307D01*
X124280691Y-87124824D01*
X124256750Y-87126000D01*
X123768250Y-87126000D01*
X123744309Y-87124824D01*
X123720599Y-87121307D01*
X123697348Y-87115483D01*
X123674780Y-87107408D01*
X123653111Y-87097159D01*
X123632552Y-87084836D01*
X123613299Y-87070558D01*
X123595539Y-87054461D01*
X123579442Y-87036701D01*
X123565164Y-87017448D01*
X123552841Y-86996889D01*
X123542592Y-86975220D01*
X123534517Y-86952652D01*
X123528693Y-86929401D01*
X123525176Y-86905691D01*
X123524000Y-86881750D01*
X123524000Y-86318250D01*
X123525176Y-86294309D01*
X123528693Y-86270599D01*
X123534517Y-86247348D01*
X123542592Y-86224780D01*
X123552841Y-86203111D01*
X123565164Y-86182552D01*
X123579442Y-86163299D01*
X123595539Y-86145539D01*
X123613299Y-86129442D01*
X123632552Y-86115164D01*
X123653111Y-86102841D01*
X123674780Y-86092592D01*
X123697348Y-86084517D01*
X123720599Y-86078693D01*
X123744309Y-86075176D01*
X123768250Y-86074000D01*
X124256750Y-86074000D01*
X124280691Y-86075176D01*
X124280691Y-86075176D01*
G37*
D17*
X124012500Y-86600000D03*
D16*
G36*
X112733141Y-80250297D02*
G01*
X112759278Y-80254174D01*
X112784909Y-80260594D01*
X112809788Y-80269495D01*
X112833674Y-80280793D01*
X112856337Y-80294377D01*
X112877560Y-80310117D01*
X112897139Y-80327861D01*
X112914883Y-80347440D01*
X112930623Y-80368663D01*
X112944207Y-80391326D01*
X112955505Y-80415212D01*
X112964406Y-80440091D01*
X112970826Y-80465722D01*
X112974703Y-80491859D01*
X112976000Y-80518250D01*
X112976000Y-81481750D01*
X112974703Y-81508141D01*
X112970826Y-81534278D01*
X112964406Y-81559909D01*
X112955505Y-81584788D01*
X112944207Y-81608674D01*
X112930623Y-81631337D01*
X112914883Y-81652560D01*
X112897139Y-81672139D01*
X112877560Y-81689883D01*
X112856337Y-81705623D01*
X112833674Y-81719207D01*
X112809788Y-81730505D01*
X112784909Y-81739406D01*
X112759278Y-81745826D01*
X112733141Y-81749703D01*
X112706750Y-81751000D01*
X112168250Y-81751000D01*
X112141859Y-81749703D01*
X112115722Y-81745826D01*
X112090091Y-81739406D01*
X112065212Y-81730505D01*
X112041326Y-81719207D01*
X112018663Y-81705623D01*
X111997440Y-81689883D01*
X111977861Y-81672139D01*
X111960117Y-81652560D01*
X111944377Y-81631337D01*
X111930793Y-81608674D01*
X111919495Y-81584788D01*
X111910594Y-81559909D01*
X111904174Y-81534278D01*
X111900297Y-81508141D01*
X111899000Y-81481750D01*
X111899000Y-80518250D01*
X111900297Y-80491859D01*
X111904174Y-80465722D01*
X111910594Y-80440091D01*
X111919495Y-80415212D01*
X111930793Y-80391326D01*
X111944377Y-80368663D01*
X111960117Y-80347440D01*
X111977861Y-80327861D01*
X111997440Y-80310117D01*
X112018663Y-80294377D01*
X112041326Y-80280793D01*
X112065212Y-80269495D01*
X112090091Y-80260594D01*
X112115722Y-80254174D01*
X112141859Y-80250297D01*
X112168250Y-80249000D01*
X112706750Y-80249000D01*
X112733141Y-80250297D01*
X112733141Y-80250297D01*
G37*
D23*
X112437500Y-81000000D03*
D16*
G36*
X110858141Y-80250297D02*
G01*
X110884278Y-80254174D01*
X110909909Y-80260594D01*
X110934788Y-80269495D01*
X110958674Y-80280793D01*
X110981337Y-80294377D01*
X111002560Y-80310117D01*
X111022139Y-80327861D01*
X111039883Y-80347440D01*
X111055623Y-80368663D01*
X111069207Y-80391326D01*
X111080505Y-80415212D01*
X111089406Y-80440091D01*
X111095826Y-80465722D01*
X111099703Y-80491859D01*
X111101000Y-80518250D01*
X111101000Y-81481750D01*
X111099703Y-81508141D01*
X111095826Y-81534278D01*
X111089406Y-81559909D01*
X111080505Y-81584788D01*
X111069207Y-81608674D01*
X111055623Y-81631337D01*
X111039883Y-81652560D01*
X111022139Y-81672139D01*
X111002560Y-81689883D01*
X110981337Y-81705623D01*
X110958674Y-81719207D01*
X110934788Y-81730505D01*
X110909909Y-81739406D01*
X110884278Y-81745826D01*
X110858141Y-81749703D01*
X110831750Y-81751000D01*
X110293250Y-81751000D01*
X110266859Y-81749703D01*
X110240722Y-81745826D01*
X110215091Y-81739406D01*
X110190212Y-81730505D01*
X110166326Y-81719207D01*
X110143663Y-81705623D01*
X110122440Y-81689883D01*
X110102861Y-81672139D01*
X110085117Y-81652560D01*
X110069377Y-81631337D01*
X110055793Y-81608674D01*
X110044495Y-81584788D01*
X110035594Y-81559909D01*
X110029174Y-81534278D01*
X110025297Y-81508141D01*
X110024000Y-81481750D01*
X110024000Y-80518250D01*
X110025297Y-80491859D01*
X110029174Y-80465722D01*
X110035594Y-80440091D01*
X110044495Y-80415212D01*
X110055793Y-80391326D01*
X110069377Y-80368663D01*
X110085117Y-80347440D01*
X110102861Y-80327861D01*
X110122440Y-80310117D01*
X110143663Y-80294377D01*
X110166326Y-80280793D01*
X110190212Y-80269495D01*
X110215091Y-80260594D01*
X110240722Y-80254174D01*
X110266859Y-80250297D01*
X110293250Y-80249000D01*
X110831750Y-80249000D01*
X110858141Y-80250297D01*
X110858141Y-80250297D01*
G37*
D23*
X110562500Y-81000000D03*
D16*
G36*
X114805691Y-84800176D02*
G01*
X114829401Y-84803693D01*
X114852652Y-84809517D01*
X114875220Y-84817592D01*
X114896889Y-84827841D01*
X114917448Y-84840164D01*
X114936701Y-84854442D01*
X114954461Y-84870539D01*
X114970558Y-84888299D01*
X114984836Y-84907552D01*
X114997159Y-84928111D01*
X115007408Y-84949780D01*
X115015483Y-84972348D01*
X115021307Y-84995599D01*
X115024824Y-85019309D01*
X115026000Y-85043250D01*
X115026000Y-85531750D01*
X115024824Y-85555691D01*
X115021307Y-85579401D01*
X115015483Y-85602652D01*
X115007408Y-85625220D01*
X114997159Y-85646889D01*
X114984836Y-85667448D01*
X114970558Y-85686701D01*
X114954461Y-85704461D01*
X114936701Y-85720558D01*
X114917448Y-85734836D01*
X114896889Y-85747159D01*
X114875220Y-85757408D01*
X114852652Y-85765483D01*
X114829401Y-85771307D01*
X114805691Y-85774824D01*
X114781750Y-85776000D01*
X114218250Y-85776000D01*
X114194309Y-85774824D01*
X114170599Y-85771307D01*
X114147348Y-85765483D01*
X114124780Y-85757408D01*
X114103111Y-85747159D01*
X114082552Y-85734836D01*
X114063299Y-85720558D01*
X114045539Y-85704461D01*
X114029442Y-85686701D01*
X114015164Y-85667448D01*
X114002841Y-85646889D01*
X113992592Y-85625220D01*
X113984517Y-85602652D01*
X113978693Y-85579401D01*
X113975176Y-85555691D01*
X113974000Y-85531750D01*
X113974000Y-85043250D01*
X113975176Y-85019309D01*
X113978693Y-84995599D01*
X113984517Y-84972348D01*
X113992592Y-84949780D01*
X114002841Y-84928111D01*
X114015164Y-84907552D01*
X114029442Y-84888299D01*
X114045539Y-84870539D01*
X114063299Y-84854442D01*
X114082552Y-84840164D01*
X114103111Y-84827841D01*
X114124780Y-84817592D01*
X114147348Y-84809517D01*
X114170599Y-84803693D01*
X114194309Y-84800176D01*
X114218250Y-84799000D01*
X114781750Y-84799000D01*
X114805691Y-84800176D01*
X114805691Y-84800176D01*
G37*
D17*
X114500000Y-85287500D03*
D16*
G36*
X114805691Y-83225176D02*
G01*
X114829401Y-83228693D01*
X114852652Y-83234517D01*
X114875220Y-83242592D01*
X114896889Y-83252841D01*
X114917448Y-83265164D01*
X114936701Y-83279442D01*
X114954461Y-83295539D01*
X114970558Y-83313299D01*
X114984836Y-83332552D01*
X114997159Y-83353111D01*
X115007408Y-83374780D01*
X115015483Y-83397348D01*
X115021307Y-83420599D01*
X115024824Y-83444309D01*
X115026000Y-83468250D01*
X115026000Y-83956750D01*
X115024824Y-83980691D01*
X115021307Y-84004401D01*
X115015483Y-84027652D01*
X115007408Y-84050220D01*
X114997159Y-84071889D01*
X114984836Y-84092448D01*
X114970558Y-84111701D01*
X114954461Y-84129461D01*
X114936701Y-84145558D01*
X114917448Y-84159836D01*
X114896889Y-84172159D01*
X114875220Y-84182408D01*
X114852652Y-84190483D01*
X114829401Y-84196307D01*
X114805691Y-84199824D01*
X114781750Y-84201000D01*
X114218250Y-84201000D01*
X114194309Y-84199824D01*
X114170599Y-84196307D01*
X114147348Y-84190483D01*
X114124780Y-84182408D01*
X114103111Y-84172159D01*
X114082552Y-84159836D01*
X114063299Y-84145558D01*
X114045539Y-84129461D01*
X114029442Y-84111701D01*
X114015164Y-84092448D01*
X114002841Y-84071889D01*
X113992592Y-84050220D01*
X113984517Y-84027652D01*
X113978693Y-84004401D01*
X113975176Y-83980691D01*
X113974000Y-83956750D01*
X113974000Y-83468250D01*
X113975176Y-83444309D01*
X113978693Y-83420599D01*
X113984517Y-83397348D01*
X113992592Y-83374780D01*
X114002841Y-83353111D01*
X114015164Y-83332552D01*
X114029442Y-83313299D01*
X114045539Y-83295539D01*
X114063299Y-83279442D01*
X114082552Y-83265164D01*
X114103111Y-83252841D01*
X114124780Y-83242592D01*
X114147348Y-83234517D01*
X114170599Y-83228693D01*
X114194309Y-83225176D01*
X114218250Y-83224000D01*
X114781750Y-83224000D01*
X114805691Y-83225176D01*
X114805691Y-83225176D01*
G37*
D17*
X114500000Y-83712500D03*
D16*
G36*
X120055691Y-90475176D02*
G01*
X120079401Y-90478693D01*
X120102652Y-90484517D01*
X120125220Y-90492592D01*
X120146889Y-90502841D01*
X120167448Y-90515164D01*
X120186701Y-90529442D01*
X120204461Y-90545539D01*
X120220558Y-90563299D01*
X120234836Y-90582552D01*
X120247159Y-90603111D01*
X120257408Y-90624780D01*
X120265483Y-90647348D01*
X120271307Y-90670599D01*
X120274824Y-90694309D01*
X120276000Y-90718250D01*
X120276000Y-91281750D01*
X120274824Y-91305691D01*
X120271307Y-91329401D01*
X120265483Y-91352652D01*
X120257408Y-91375220D01*
X120247159Y-91396889D01*
X120234836Y-91417448D01*
X120220558Y-91436701D01*
X120204461Y-91454461D01*
X120186701Y-91470558D01*
X120167448Y-91484836D01*
X120146889Y-91497159D01*
X120125220Y-91507408D01*
X120102652Y-91515483D01*
X120079401Y-91521307D01*
X120055691Y-91524824D01*
X120031750Y-91526000D01*
X119543250Y-91526000D01*
X119519309Y-91524824D01*
X119495599Y-91521307D01*
X119472348Y-91515483D01*
X119449780Y-91507408D01*
X119428111Y-91497159D01*
X119407552Y-91484836D01*
X119388299Y-91470558D01*
X119370539Y-91454461D01*
X119354442Y-91436701D01*
X119340164Y-91417448D01*
X119327841Y-91396889D01*
X119317592Y-91375220D01*
X119309517Y-91352652D01*
X119303693Y-91329401D01*
X119300176Y-91305691D01*
X119299000Y-91281750D01*
X119299000Y-90718250D01*
X119300176Y-90694309D01*
X119303693Y-90670599D01*
X119309517Y-90647348D01*
X119317592Y-90624780D01*
X119327841Y-90603111D01*
X119340164Y-90582552D01*
X119354442Y-90563299D01*
X119370539Y-90545539D01*
X119388299Y-90529442D01*
X119407552Y-90515164D01*
X119428111Y-90502841D01*
X119449780Y-90492592D01*
X119472348Y-90484517D01*
X119495599Y-90478693D01*
X119519309Y-90475176D01*
X119543250Y-90474000D01*
X120031750Y-90474000D01*
X120055691Y-90475176D01*
X120055691Y-90475176D01*
G37*
D17*
X119787500Y-91000000D03*
D16*
G36*
X118480691Y-90475176D02*
G01*
X118504401Y-90478693D01*
X118527652Y-90484517D01*
X118550220Y-90492592D01*
X118571889Y-90502841D01*
X118592448Y-90515164D01*
X118611701Y-90529442D01*
X118629461Y-90545539D01*
X118645558Y-90563299D01*
X118659836Y-90582552D01*
X118672159Y-90603111D01*
X118682408Y-90624780D01*
X118690483Y-90647348D01*
X118696307Y-90670599D01*
X118699824Y-90694309D01*
X118701000Y-90718250D01*
X118701000Y-91281750D01*
X118699824Y-91305691D01*
X118696307Y-91329401D01*
X118690483Y-91352652D01*
X118682408Y-91375220D01*
X118672159Y-91396889D01*
X118659836Y-91417448D01*
X118645558Y-91436701D01*
X118629461Y-91454461D01*
X118611701Y-91470558D01*
X118592448Y-91484836D01*
X118571889Y-91497159D01*
X118550220Y-91507408D01*
X118527652Y-91515483D01*
X118504401Y-91521307D01*
X118480691Y-91524824D01*
X118456750Y-91526000D01*
X117968250Y-91526000D01*
X117944309Y-91524824D01*
X117920599Y-91521307D01*
X117897348Y-91515483D01*
X117874780Y-91507408D01*
X117853111Y-91497159D01*
X117832552Y-91484836D01*
X117813299Y-91470558D01*
X117795539Y-91454461D01*
X117779442Y-91436701D01*
X117765164Y-91417448D01*
X117752841Y-91396889D01*
X117742592Y-91375220D01*
X117734517Y-91352652D01*
X117728693Y-91329401D01*
X117725176Y-91305691D01*
X117724000Y-91281750D01*
X117724000Y-90718250D01*
X117725176Y-90694309D01*
X117728693Y-90670599D01*
X117734517Y-90647348D01*
X117742592Y-90624780D01*
X117752841Y-90603111D01*
X117765164Y-90582552D01*
X117779442Y-90563299D01*
X117795539Y-90545539D01*
X117813299Y-90529442D01*
X117832552Y-90515164D01*
X117853111Y-90502841D01*
X117874780Y-90492592D01*
X117897348Y-90484517D01*
X117920599Y-90478693D01*
X117944309Y-90475176D01*
X117968250Y-90474000D01*
X118456750Y-90474000D01*
X118480691Y-90475176D01*
X118480691Y-90475176D01*
G37*
D17*
X118212500Y-91000000D03*
D16*
G36*
X112733141Y-87250297D02*
G01*
X112759278Y-87254174D01*
X112784909Y-87260594D01*
X112809788Y-87269495D01*
X112833674Y-87280793D01*
X112856337Y-87294377D01*
X112877560Y-87310117D01*
X112897139Y-87327861D01*
X112914883Y-87347440D01*
X112930623Y-87368663D01*
X112944207Y-87391326D01*
X112955505Y-87415212D01*
X112964406Y-87440091D01*
X112970826Y-87465722D01*
X112974703Y-87491859D01*
X112976000Y-87518250D01*
X112976000Y-88481750D01*
X112974703Y-88508141D01*
X112970826Y-88534278D01*
X112964406Y-88559909D01*
X112955505Y-88584788D01*
X112944207Y-88608674D01*
X112930623Y-88631337D01*
X112914883Y-88652560D01*
X112897139Y-88672139D01*
X112877560Y-88689883D01*
X112856337Y-88705623D01*
X112833674Y-88719207D01*
X112809788Y-88730505D01*
X112784909Y-88739406D01*
X112759278Y-88745826D01*
X112733141Y-88749703D01*
X112706750Y-88751000D01*
X112168250Y-88751000D01*
X112141859Y-88749703D01*
X112115722Y-88745826D01*
X112090091Y-88739406D01*
X112065212Y-88730505D01*
X112041326Y-88719207D01*
X112018663Y-88705623D01*
X111997440Y-88689883D01*
X111977861Y-88672139D01*
X111960117Y-88652560D01*
X111944377Y-88631337D01*
X111930793Y-88608674D01*
X111919495Y-88584788D01*
X111910594Y-88559909D01*
X111904174Y-88534278D01*
X111900297Y-88508141D01*
X111899000Y-88481750D01*
X111899000Y-87518250D01*
X111900297Y-87491859D01*
X111904174Y-87465722D01*
X111910594Y-87440091D01*
X111919495Y-87415212D01*
X111930793Y-87391326D01*
X111944377Y-87368663D01*
X111960117Y-87347440D01*
X111977861Y-87327861D01*
X111997440Y-87310117D01*
X112018663Y-87294377D01*
X112041326Y-87280793D01*
X112065212Y-87269495D01*
X112090091Y-87260594D01*
X112115722Y-87254174D01*
X112141859Y-87250297D01*
X112168250Y-87249000D01*
X112706750Y-87249000D01*
X112733141Y-87250297D01*
X112733141Y-87250297D01*
G37*
D23*
X112437500Y-88000000D03*
D16*
G36*
X110858141Y-87250297D02*
G01*
X110884278Y-87254174D01*
X110909909Y-87260594D01*
X110934788Y-87269495D01*
X110958674Y-87280793D01*
X110981337Y-87294377D01*
X111002560Y-87310117D01*
X111022139Y-87327861D01*
X111039883Y-87347440D01*
X111055623Y-87368663D01*
X111069207Y-87391326D01*
X111080505Y-87415212D01*
X111089406Y-87440091D01*
X111095826Y-87465722D01*
X111099703Y-87491859D01*
X111101000Y-87518250D01*
X111101000Y-88481750D01*
X111099703Y-88508141D01*
X111095826Y-88534278D01*
X111089406Y-88559909D01*
X111080505Y-88584788D01*
X111069207Y-88608674D01*
X111055623Y-88631337D01*
X111039883Y-88652560D01*
X111022139Y-88672139D01*
X111002560Y-88689883D01*
X110981337Y-88705623D01*
X110958674Y-88719207D01*
X110934788Y-88730505D01*
X110909909Y-88739406D01*
X110884278Y-88745826D01*
X110858141Y-88749703D01*
X110831750Y-88751000D01*
X110293250Y-88751000D01*
X110266859Y-88749703D01*
X110240722Y-88745826D01*
X110215091Y-88739406D01*
X110190212Y-88730505D01*
X110166326Y-88719207D01*
X110143663Y-88705623D01*
X110122440Y-88689883D01*
X110102861Y-88672139D01*
X110085117Y-88652560D01*
X110069377Y-88631337D01*
X110055793Y-88608674D01*
X110044495Y-88584788D01*
X110035594Y-88559909D01*
X110029174Y-88534278D01*
X110025297Y-88508141D01*
X110024000Y-88481750D01*
X110024000Y-87518250D01*
X110025297Y-87491859D01*
X110029174Y-87465722D01*
X110035594Y-87440091D01*
X110044495Y-87415212D01*
X110055793Y-87391326D01*
X110069377Y-87368663D01*
X110085117Y-87347440D01*
X110102861Y-87327861D01*
X110122440Y-87310117D01*
X110143663Y-87294377D01*
X110166326Y-87280793D01*
X110190212Y-87269495D01*
X110215091Y-87260594D01*
X110240722Y-87254174D01*
X110266859Y-87250297D01*
X110293250Y-87249000D01*
X110831750Y-87249000D01*
X110858141Y-87250297D01*
X110858141Y-87250297D01*
G37*
D23*
X110562500Y-88000000D03*
M02*
