G04 #@! TF.GenerationSoftware,KiCad,Pcbnew,(5.1.2)-1*
G04 #@! TF.CreationDate,2025-02-08T22:23:42+09:00*
G04 #@! TF.ProjectId,ss,73732e6b-6963-4616-945f-706362585858,rev?*
G04 #@! TF.SameCoordinates,Original*
G04 #@! TF.FileFunction,Soldermask,Top*
G04 #@! TF.FilePolarity,Negative*
%FSLAX46Y46*%
G04 Gerber Fmt 4.6, Leading zero omitted, Abs format (unit mm)*
G04 Created by KiCad (PCBNEW (5.1.2)-1) date 2025-02-08 22:23:42*
%MOMM*%
%LPD*%
G04 APERTURE LIST*
%ADD10C,0.100000*%
G04 APERTURE END LIST*
D10*
G36*
X115029591Y-97778085D02*
G01*
X115063569Y-97788393D01*
X115094890Y-97805134D01*
X115122339Y-97827661D01*
X115144866Y-97855110D01*
X115161607Y-97886431D01*
X115171915Y-97920409D01*
X115176000Y-97961890D01*
X115176000Y-98638110D01*
X115171915Y-98679591D01*
X115161607Y-98713569D01*
X115144866Y-98744890D01*
X115122339Y-98772339D01*
X115094890Y-98794866D01*
X115063569Y-98811607D01*
X115029591Y-98821915D01*
X114988110Y-98826000D01*
X114386890Y-98826000D01*
X114345409Y-98821915D01*
X114311431Y-98811607D01*
X114280110Y-98794866D01*
X114252661Y-98772339D01*
X114230134Y-98744890D01*
X114213393Y-98713569D01*
X114203085Y-98679591D01*
X114199000Y-98638110D01*
X114199000Y-97961890D01*
X114203085Y-97920409D01*
X114213393Y-97886431D01*
X114230134Y-97855110D01*
X114252661Y-97827661D01*
X114280110Y-97805134D01*
X114311431Y-97788393D01*
X114345409Y-97778085D01*
X114386890Y-97774000D01*
X114988110Y-97774000D01*
X115029591Y-97778085D01*
X115029591Y-97778085D01*
G37*
G36*
X125454591Y-97778085D02*
G01*
X125488569Y-97788393D01*
X125519890Y-97805134D01*
X125547339Y-97827661D01*
X125569866Y-97855110D01*
X125586607Y-97886431D01*
X125596915Y-97920409D01*
X125601000Y-97961890D01*
X125601000Y-98638110D01*
X125596915Y-98679591D01*
X125586607Y-98713569D01*
X125569866Y-98744890D01*
X125547339Y-98772339D01*
X125519890Y-98794866D01*
X125488569Y-98811607D01*
X125454591Y-98821915D01*
X125413110Y-98826000D01*
X124811890Y-98826000D01*
X124770409Y-98821915D01*
X124736431Y-98811607D01*
X124705110Y-98794866D01*
X124677661Y-98772339D01*
X124655134Y-98744890D01*
X124638393Y-98713569D01*
X124628085Y-98679591D01*
X124624000Y-98638110D01*
X124624000Y-97961890D01*
X124628085Y-97920409D01*
X124638393Y-97886431D01*
X124655134Y-97855110D01*
X124677661Y-97827661D01*
X124705110Y-97805134D01*
X124736431Y-97788393D01*
X124770409Y-97778085D01*
X124811890Y-97774000D01*
X125413110Y-97774000D01*
X125454591Y-97778085D01*
X125454591Y-97778085D01*
G37*
G36*
X109529591Y-97778085D02*
G01*
X109563569Y-97788393D01*
X109594890Y-97805134D01*
X109622339Y-97827661D01*
X109644866Y-97855110D01*
X109661607Y-97886431D01*
X109671915Y-97920409D01*
X109676000Y-97961890D01*
X109676000Y-98638110D01*
X109671915Y-98679591D01*
X109661607Y-98713569D01*
X109644866Y-98744890D01*
X109622339Y-98772339D01*
X109594890Y-98794866D01*
X109563569Y-98811607D01*
X109529591Y-98821915D01*
X109488110Y-98826000D01*
X108886890Y-98826000D01*
X108845409Y-98821915D01*
X108811431Y-98811607D01*
X108780110Y-98794866D01*
X108752661Y-98772339D01*
X108730134Y-98744890D01*
X108713393Y-98713569D01*
X108703085Y-98679591D01*
X108699000Y-98638110D01*
X108699000Y-97961890D01*
X108703085Y-97920409D01*
X108713393Y-97886431D01*
X108730134Y-97855110D01*
X108752661Y-97827661D01*
X108780110Y-97805134D01*
X108811431Y-97788393D01*
X108845409Y-97778085D01*
X108886890Y-97774000D01*
X109488110Y-97774000D01*
X109529591Y-97778085D01*
X109529591Y-97778085D01*
G37*
G36*
X107954591Y-97778085D02*
G01*
X107988569Y-97788393D01*
X108019890Y-97805134D01*
X108047339Y-97827661D01*
X108069866Y-97855110D01*
X108086607Y-97886431D01*
X108096915Y-97920409D01*
X108101000Y-97961890D01*
X108101000Y-98638110D01*
X108096915Y-98679591D01*
X108086607Y-98713569D01*
X108069866Y-98744890D01*
X108047339Y-98772339D01*
X108019890Y-98794866D01*
X107988569Y-98811607D01*
X107954591Y-98821915D01*
X107913110Y-98826000D01*
X107311890Y-98826000D01*
X107270409Y-98821915D01*
X107236431Y-98811607D01*
X107205110Y-98794866D01*
X107177661Y-98772339D01*
X107155134Y-98744890D01*
X107138393Y-98713569D01*
X107128085Y-98679591D01*
X107124000Y-98638110D01*
X107124000Y-97961890D01*
X107128085Y-97920409D01*
X107138393Y-97886431D01*
X107155134Y-97855110D01*
X107177661Y-97827661D01*
X107205110Y-97805134D01*
X107236431Y-97788393D01*
X107270409Y-97778085D01*
X107311890Y-97774000D01*
X107913110Y-97774000D01*
X107954591Y-97778085D01*
X107954591Y-97778085D01*
G37*
G36*
X127029591Y-97778085D02*
G01*
X127063569Y-97788393D01*
X127094890Y-97805134D01*
X127122339Y-97827661D01*
X127144866Y-97855110D01*
X127161607Y-97886431D01*
X127171915Y-97920409D01*
X127176000Y-97961890D01*
X127176000Y-98638110D01*
X127171915Y-98679591D01*
X127161607Y-98713569D01*
X127144866Y-98744890D01*
X127122339Y-98772339D01*
X127094890Y-98794866D01*
X127063569Y-98811607D01*
X127029591Y-98821915D01*
X126988110Y-98826000D01*
X126386890Y-98826000D01*
X126345409Y-98821915D01*
X126311431Y-98811607D01*
X126280110Y-98794866D01*
X126252661Y-98772339D01*
X126230134Y-98744890D01*
X126213393Y-98713569D01*
X126203085Y-98679591D01*
X126199000Y-98638110D01*
X126199000Y-97961890D01*
X126203085Y-97920409D01*
X126213393Y-97886431D01*
X126230134Y-97855110D01*
X126252661Y-97827661D01*
X126280110Y-97805134D01*
X126311431Y-97788393D01*
X126345409Y-97778085D01*
X126386890Y-97774000D01*
X126988110Y-97774000D01*
X127029591Y-97778085D01*
X127029591Y-97778085D01*
G37*
G36*
X121029591Y-97778085D02*
G01*
X121063569Y-97788393D01*
X121094890Y-97805134D01*
X121122339Y-97827661D01*
X121144866Y-97855110D01*
X121161607Y-97886431D01*
X121171915Y-97920409D01*
X121176000Y-97961890D01*
X121176000Y-98638110D01*
X121171915Y-98679591D01*
X121161607Y-98713569D01*
X121144866Y-98744890D01*
X121122339Y-98772339D01*
X121094890Y-98794866D01*
X121063569Y-98811607D01*
X121029591Y-98821915D01*
X120988110Y-98826000D01*
X120386890Y-98826000D01*
X120345409Y-98821915D01*
X120311431Y-98811607D01*
X120280110Y-98794866D01*
X120252661Y-98772339D01*
X120230134Y-98744890D01*
X120213393Y-98713569D01*
X120203085Y-98679591D01*
X120199000Y-98638110D01*
X120199000Y-97961890D01*
X120203085Y-97920409D01*
X120213393Y-97886431D01*
X120230134Y-97855110D01*
X120252661Y-97827661D01*
X120280110Y-97805134D01*
X120311431Y-97788393D01*
X120345409Y-97778085D01*
X120386890Y-97774000D01*
X120988110Y-97774000D01*
X121029591Y-97778085D01*
X121029591Y-97778085D01*
G37*
G36*
X113454591Y-97778085D02*
G01*
X113488569Y-97788393D01*
X113519890Y-97805134D01*
X113547339Y-97827661D01*
X113569866Y-97855110D01*
X113586607Y-97886431D01*
X113596915Y-97920409D01*
X113601000Y-97961890D01*
X113601000Y-98638110D01*
X113596915Y-98679591D01*
X113586607Y-98713569D01*
X113569866Y-98744890D01*
X113547339Y-98772339D01*
X113519890Y-98794866D01*
X113488569Y-98811607D01*
X113454591Y-98821915D01*
X113413110Y-98826000D01*
X112811890Y-98826000D01*
X112770409Y-98821915D01*
X112736431Y-98811607D01*
X112705110Y-98794866D01*
X112677661Y-98772339D01*
X112655134Y-98744890D01*
X112638393Y-98713569D01*
X112628085Y-98679591D01*
X112624000Y-98638110D01*
X112624000Y-97961890D01*
X112628085Y-97920409D01*
X112638393Y-97886431D01*
X112655134Y-97855110D01*
X112677661Y-97827661D01*
X112705110Y-97805134D01*
X112736431Y-97788393D01*
X112770409Y-97778085D01*
X112811890Y-97774000D01*
X113413110Y-97774000D01*
X113454591Y-97778085D01*
X113454591Y-97778085D01*
G37*
G36*
X119454591Y-97778085D02*
G01*
X119488569Y-97788393D01*
X119519890Y-97805134D01*
X119547339Y-97827661D01*
X119569866Y-97855110D01*
X119586607Y-97886431D01*
X119596915Y-97920409D01*
X119601000Y-97961890D01*
X119601000Y-98638110D01*
X119596915Y-98679591D01*
X119586607Y-98713569D01*
X119569866Y-98744890D01*
X119547339Y-98772339D01*
X119519890Y-98794866D01*
X119488569Y-98811607D01*
X119454591Y-98821915D01*
X119413110Y-98826000D01*
X118811890Y-98826000D01*
X118770409Y-98821915D01*
X118736431Y-98811607D01*
X118705110Y-98794866D01*
X118677661Y-98772339D01*
X118655134Y-98744890D01*
X118638393Y-98713569D01*
X118628085Y-98679591D01*
X118624000Y-98638110D01*
X118624000Y-97961890D01*
X118628085Y-97920409D01*
X118638393Y-97886431D01*
X118655134Y-97855110D01*
X118677661Y-97827661D01*
X118705110Y-97805134D01*
X118736431Y-97788393D01*
X118770409Y-97778085D01*
X118811890Y-97774000D01*
X119413110Y-97774000D01*
X119454591Y-97778085D01*
X119454591Y-97778085D01*
G37*
G36*
X103375256Y-95391298D02*
G01*
X103481579Y-95412447D01*
X103782042Y-95536903D01*
X104052451Y-95717585D01*
X104282415Y-95947549D01*
X104463097Y-96217958D01*
X104587553Y-96518421D01*
X104651000Y-96837391D01*
X104651000Y-97162609D01*
X104587553Y-97481579D01*
X104463097Y-97782042D01*
X104282415Y-98052451D01*
X104052451Y-98282415D01*
X103782042Y-98463097D01*
X103481579Y-98587553D01*
X103375256Y-98608702D01*
X103162611Y-98651000D01*
X102837389Y-98651000D01*
X102624744Y-98608702D01*
X102518421Y-98587553D01*
X102217958Y-98463097D01*
X101947549Y-98282415D01*
X101717585Y-98052451D01*
X101536903Y-97782042D01*
X101412447Y-97481579D01*
X101349000Y-97162609D01*
X101349000Y-96837391D01*
X101412447Y-96518421D01*
X101536903Y-96217958D01*
X101717585Y-95947549D01*
X101947549Y-95717585D01*
X102217958Y-95536903D01*
X102518421Y-95412447D01*
X102624744Y-95391298D01*
X102837389Y-95349000D01*
X103162611Y-95349000D01*
X103375256Y-95391298D01*
X103375256Y-95391298D01*
G37*
G36*
X114351000Y-97101000D02*
G01*
X113449000Y-97101000D01*
X113449000Y-96099000D01*
X114351000Y-96099000D01*
X114351000Y-97101000D01*
X114351000Y-97101000D01*
G37*
G36*
X108851000Y-97101000D02*
G01*
X107949000Y-97101000D01*
X107949000Y-96099000D01*
X108851000Y-96099000D01*
X108851000Y-97101000D01*
X108851000Y-97101000D01*
G37*
G36*
X126351000Y-97101000D02*
G01*
X125449000Y-97101000D01*
X125449000Y-96099000D01*
X126351000Y-96099000D01*
X126351000Y-97101000D01*
X126351000Y-97101000D01*
G37*
G36*
X120351000Y-97101000D02*
G01*
X119449000Y-97101000D01*
X119449000Y-96099000D01*
X120351000Y-96099000D01*
X120351000Y-97101000D01*
X120351000Y-97101000D01*
G37*
G36*
X107901000Y-95101000D02*
G01*
X106999000Y-95101000D01*
X106999000Y-94099000D01*
X107901000Y-94099000D01*
X107901000Y-95101000D01*
X107901000Y-95101000D01*
G37*
G36*
X121301000Y-95101000D02*
G01*
X120399000Y-95101000D01*
X120399000Y-94099000D01*
X121301000Y-94099000D01*
X121301000Y-95101000D01*
X121301000Y-95101000D01*
G37*
G36*
X119401000Y-95101000D02*
G01*
X118499000Y-95101000D01*
X118499000Y-94099000D01*
X119401000Y-94099000D01*
X119401000Y-95101000D01*
X119401000Y-95101000D01*
G37*
G36*
X127301000Y-95101000D02*
G01*
X126399000Y-95101000D01*
X126399000Y-94099000D01*
X127301000Y-94099000D01*
X127301000Y-95101000D01*
X127301000Y-95101000D01*
G37*
G36*
X125401000Y-95101000D02*
G01*
X124499000Y-95101000D01*
X124499000Y-94099000D01*
X125401000Y-94099000D01*
X125401000Y-95101000D01*
X125401000Y-95101000D01*
G37*
G36*
X115301000Y-95101000D02*
G01*
X114399000Y-95101000D01*
X114399000Y-94099000D01*
X115301000Y-94099000D01*
X115301000Y-95101000D01*
X115301000Y-95101000D01*
G37*
G36*
X109801000Y-95101000D02*
G01*
X108899000Y-95101000D01*
X108899000Y-94099000D01*
X109801000Y-94099000D01*
X109801000Y-95101000D01*
X109801000Y-95101000D01*
G37*
G36*
X113401000Y-95101000D02*
G01*
X112499000Y-95101000D01*
X112499000Y-94099000D01*
X113401000Y-94099000D01*
X113401000Y-95101000D01*
X113401000Y-95101000D01*
G37*
G36*
X107954591Y-92278085D02*
G01*
X107988569Y-92288393D01*
X108019890Y-92305134D01*
X108047339Y-92327661D01*
X108069866Y-92355110D01*
X108086607Y-92386431D01*
X108096915Y-92420409D01*
X108101000Y-92461890D01*
X108101000Y-93138110D01*
X108096915Y-93179591D01*
X108086607Y-93213569D01*
X108069866Y-93244890D01*
X108047339Y-93272339D01*
X108019890Y-93294866D01*
X107988569Y-93311607D01*
X107954591Y-93321915D01*
X107913110Y-93326000D01*
X107311890Y-93326000D01*
X107270409Y-93321915D01*
X107236431Y-93311607D01*
X107205110Y-93294866D01*
X107177661Y-93272339D01*
X107155134Y-93244890D01*
X107138393Y-93213569D01*
X107128085Y-93179591D01*
X107124000Y-93138110D01*
X107124000Y-92461890D01*
X107128085Y-92420409D01*
X107138393Y-92386431D01*
X107155134Y-92355110D01*
X107177661Y-92327661D01*
X107205110Y-92305134D01*
X107236431Y-92288393D01*
X107270409Y-92278085D01*
X107311890Y-92274000D01*
X107913110Y-92274000D01*
X107954591Y-92278085D01*
X107954591Y-92278085D01*
G37*
G36*
X119454591Y-92278085D02*
G01*
X119488569Y-92288393D01*
X119519890Y-92305134D01*
X119547339Y-92327661D01*
X119569866Y-92355110D01*
X119586607Y-92386431D01*
X119596915Y-92420409D01*
X119601000Y-92461890D01*
X119601000Y-93138110D01*
X119596915Y-93179591D01*
X119586607Y-93213569D01*
X119569866Y-93244890D01*
X119547339Y-93272339D01*
X119519890Y-93294866D01*
X119488569Y-93311607D01*
X119454591Y-93321915D01*
X119413110Y-93326000D01*
X118811890Y-93326000D01*
X118770409Y-93321915D01*
X118736431Y-93311607D01*
X118705110Y-93294866D01*
X118677661Y-93272339D01*
X118655134Y-93244890D01*
X118638393Y-93213569D01*
X118628085Y-93179591D01*
X118624000Y-93138110D01*
X118624000Y-92461890D01*
X118628085Y-92420409D01*
X118638393Y-92386431D01*
X118655134Y-92355110D01*
X118677661Y-92327661D01*
X118705110Y-92305134D01*
X118736431Y-92288393D01*
X118770409Y-92278085D01*
X118811890Y-92274000D01*
X119413110Y-92274000D01*
X119454591Y-92278085D01*
X119454591Y-92278085D01*
G37*
G36*
X121029591Y-92278085D02*
G01*
X121063569Y-92288393D01*
X121094890Y-92305134D01*
X121122339Y-92327661D01*
X121144866Y-92355110D01*
X121161607Y-92386431D01*
X121171915Y-92420409D01*
X121176000Y-92461890D01*
X121176000Y-93138110D01*
X121171915Y-93179591D01*
X121161607Y-93213569D01*
X121144866Y-93244890D01*
X121122339Y-93272339D01*
X121094890Y-93294866D01*
X121063569Y-93311607D01*
X121029591Y-93321915D01*
X120988110Y-93326000D01*
X120386890Y-93326000D01*
X120345409Y-93321915D01*
X120311431Y-93311607D01*
X120280110Y-93294866D01*
X120252661Y-93272339D01*
X120230134Y-93244890D01*
X120213393Y-93213569D01*
X120203085Y-93179591D01*
X120199000Y-93138110D01*
X120199000Y-92461890D01*
X120203085Y-92420409D01*
X120213393Y-92386431D01*
X120230134Y-92355110D01*
X120252661Y-92327661D01*
X120280110Y-92305134D01*
X120311431Y-92288393D01*
X120345409Y-92278085D01*
X120386890Y-92274000D01*
X120988110Y-92274000D01*
X121029591Y-92278085D01*
X121029591Y-92278085D01*
G37*
G36*
X113454591Y-92278085D02*
G01*
X113488569Y-92288393D01*
X113519890Y-92305134D01*
X113547339Y-92327661D01*
X113569866Y-92355110D01*
X113586607Y-92386431D01*
X113596915Y-92420409D01*
X113601000Y-92461890D01*
X113601000Y-93138110D01*
X113596915Y-93179591D01*
X113586607Y-93213569D01*
X113569866Y-93244890D01*
X113547339Y-93272339D01*
X113519890Y-93294866D01*
X113488569Y-93311607D01*
X113454591Y-93321915D01*
X113413110Y-93326000D01*
X112811890Y-93326000D01*
X112770409Y-93321915D01*
X112736431Y-93311607D01*
X112705110Y-93294866D01*
X112677661Y-93272339D01*
X112655134Y-93244890D01*
X112638393Y-93213569D01*
X112628085Y-93179591D01*
X112624000Y-93138110D01*
X112624000Y-92461890D01*
X112628085Y-92420409D01*
X112638393Y-92386431D01*
X112655134Y-92355110D01*
X112677661Y-92327661D01*
X112705110Y-92305134D01*
X112736431Y-92288393D01*
X112770409Y-92278085D01*
X112811890Y-92274000D01*
X113413110Y-92274000D01*
X113454591Y-92278085D01*
X113454591Y-92278085D01*
G37*
G36*
X115029591Y-92278085D02*
G01*
X115063569Y-92288393D01*
X115094890Y-92305134D01*
X115122339Y-92327661D01*
X115144866Y-92355110D01*
X115161607Y-92386431D01*
X115171915Y-92420409D01*
X115176000Y-92461890D01*
X115176000Y-93138110D01*
X115171915Y-93179591D01*
X115161607Y-93213569D01*
X115144866Y-93244890D01*
X115122339Y-93272339D01*
X115094890Y-93294866D01*
X115063569Y-93311607D01*
X115029591Y-93321915D01*
X114988110Y-93326000D01*
X114386890Y-93326000D01*
X114345409Y-93321915D01*
X114311431Y-93311607D01*
X114280110Y-93294866D01*
X114252661Y-93272339D01*
X114230134Y-93244890D01*
X114213393Y-93213569D01*
X114203085Y-93179591D01*
X114199000Y-93138110D01*
X114199000Y-92461890D01*
X114203085Y-92420409D01*
X114213393Y-92386431D01*
X114230134Y-92355110D01*
X114252661Y-92327661D01*
X114280110Y-92305134D01*
X114311431Y-92288393D01*
X114345409Y-92278085D01*
X114386890Y-92274000D01*
X114988110Y-92274000D01*
X115029591Y-92278085D01*
X115029591Y-92278085D01*
G37*
G36*
X125454591Y-92278085D02*
G01*
X125488569Y-92288393D01*
X125519890Y-92305134D01*
X125547339Y-92327661D01*
X125569866Y-92355110D01*
X125586607Y-92386431D01*
X125596915Y-92420409D01*
X125601000Y-92461890D01*
X125601000Y-93138110D01*
X125596915Y-93179591D01*
X125586607Y-93213569D01*
X125569866Y-93244890D01*
X125547339Y-93272339D01*
X125519890Y-93294866D01*
X125488569Y-93311607D01*
X125454591Y-93321915D01*
X125413110Y-93326000D01*
X124811890Y-93326000D01*
X124770409Y-93321915D01*
X124736431Y-93311607D01*
X124705110Y-93294866D01*
X124677661Y-93272339D01*
X124655134Y-93244890D01*
X124638393Y-93213569D01*
X124628085Y-93179591D01*
X124624000Y-93138110D01*
X124624000Y-92461890D01*
X124628085Y-92420409D01*
X124638393Y-92386431D01*
X124655134Y-92355110D01*
X124677661Y-92327661D01*
X124705110Y-92305134D01*
X124736431Y-92288393D01*
X124770409Y-92278085D01*
X124811890Y-92274000D01*
X125413110Y-92274000D01*
X125454591Y-92278085D01*
X125454591Y-92278085D01*
G37*
G36*
X127029591Y-92278085D02*
G01*
X127063569Y-92288393D01*
X127094890Y-92305134D01*
X127122339Y-92327661D01*
X127144866Y-92355110D01*
X127161607Y-92386431D01*
X127171915Y-92420409D01*
X127176000Y-92461890D01*
X127176000Y-93138110D01*
X127171915Y-93179591D01*
X127161607Y-93213569D01*
X127144866Y-93244890D01*
X127122339Y-93272339D01*
X127094890Y-93294866D01*
X127063569Y-93311607D01*
X127029591Y-93321915D01*
X126988110Y-93326000D01*
X126386890Y-93326000D01*
X126345409Y-93321915D01*
X126311431Y-93311607D01*
X126280110Y-93294866D01*
X126252661Y-93272339D01*
X126230134Y-93244890D01*
X126213393Y-93213569D01*
X126203085Y-93179591D01*
X126199000Y-93138110D01*
X126199000Y-92461890D01*
X126203085Y-92420409D01*
X126213393Y-92386431D01*
X126230134Y-92355110D01*
X126252661Y-92327661D01*
X126280110Y-92305134D01*
X126311431Y-92288393D01*
X126345409Y-92278085D01*
X126386890Y-92274000D01*
X126988110Y-92274000D01*
X127029591Y-92278085D01*
X127029591Y-92278085D01*
G37*
G36*
X109529591Y-92278085D02*
G01*
X109563569Y-92288393D01*
X109594890Y-92305134D01*
X109622339Y-92327661D01*
X109644866Y-92355110D01*
X109661607Y-92386431D01*
X109671915Y-92420409D01*
X109676000Y-92461890D01*
X109676000Y-93138110D01*
X109671915Y-93179591D01*
X109661607Y-93213569D01*
X109644866Y-93244890D01*
X109622339Y-93272339D01*
X109594890Y-93294866D01*
X109563569Y-93311607D01*
X109529591Y-93321915D01*
X109488110Y-93326000D01*
X108886890Y-93326000D01*
X108845409Y-93321915D01*
X108811431Y-93311607D01*
X108780110Y-93294866D01*
X108752661Y-93272339D01*
X108730134Y-93244890D01*
X108713393Y-93213569D01*
X108703085Y-93179591D01*
X108699000Y-93138110D01*
X108699000Y-92461890D01*
X108703085Y-92420409D01*
X108713393Y-92386431D01*
X108730134Y-92355110D01*
X108752661Y-92327661D01*
X108780110Y-92305134D01*
X108811431Y-92288393D01*
X108845409Y-92278085D01*
X108886890Y-92274000D01*
X109488110Y-92274000D01*
X109529591Y-92278085D01*
X109529591Y-92278085D01*
G37*
G36*
X120129591Y-90478085D02*
G01*
X120163569Y-90488393D01*
X120194890Y-90505134D01*
X120222339Y-90527661D01*
X120244866Y-90555110D01*
X120261607Y-90586431D01*
X120271915Y-90620409D01*
X120276000Y-90661890D01*
X120276000Y-91338110D01*
X120271915Y-91379591D01*
X120261607Y-91413569D01*
X120244866Y-91444890D01*
X120222339Y-91472339D01*
X120194890Y-91494866D01*
X120163569Y-91511607D01*
X120129591Y-91521915D01*
X120088110Y-91526000D01*
X119486890Y-91526000D01*
X119445409Y-91521915D01*
X119411431Y-91511607D01*
X119380110Y-91494866D01*
X119352661Y-91472339D01*
X119330134Y-91444890D01*
X119313393Y-91413569D01*
X119303085Y-91379591D01*
X119299000Y-91338110D01*
X119299000Y-90661890D01*
X119303085Y-90620409D01*
X119313393Y-90586431D01*
X119330134Y-90555110D01*
X119352661Y-90527661D01*
X119380110Y-90505134D01*
X119411431Y-90488393D01*
X119445409Y-90478085D01*
X119486890Y-90474000D01*
X120088110Y-90474000D01*
X120129591Y-90478085D01*
X120129591Y-90478085D01*
G37*
G36*
X118554591Y-90478085D02*
G01*
X118588569Y-90488393D01*
X118619890Y-90505134D01*
X118647339Y-90527661D01*
X118669866Y-90555110D01*
X118686607Y-90586431D01*
X118696915Y-90620409D01*
X118701000Y-90661890D01*
X118701000Y-91338110D01*
X118696915Y-91379591D01*
X118686607Y-91413569D01*
X118669866Y-91444890D01*
X118647339Y-91472339D01*
X118619890Y-91494866D01*
X118588569Y-91511607D01*
X118554591Y-91521915D01*
X118513110Y-91526000D01*
X117911890Y-91526000D01*
X117870409Y-91521915D01*
X117836431Y-91511607D01*
X117805110Y-91494866D01*
X117777661Y-91472339D01*
X117755134Y-91444890D01*
X117738393Y-91413569D01*
X117728085Y-91379591D01*
X117724000Y-91338110D01*
X117724000Y-90661890D01*
X117728085Y-90620409D01*
X117738393Y-90586431D01*
X117755134Y-90555110D01*
X117777661Y-90527661D01*
X117805110Y-90505134D01*
X117836431Y-90488393D01*
X117870409Y-90478085D01*
X117911890Y-90474000D01*
X118513110Y-90474000D01*
X118554591Y-90478085D01*
X118554591Y-90478085D01*
G37*
G36*
X105717747Y-89690921D02*
G01*
X105797376Y-89698764D01*
X105950627Y-89745252D01*
X105950630Y-89745253D01*
X106091863Y-89820744D01*
X106215659Y-89922341D01*
X106317256Y-90046137D01*
X106392747Y-90187370D01*
X106392748Y-90187373D01*
X106439236Y-90340624D01*
X106454933Y-90500000D01*
X106439236Y-90659376D01*
X106402827Y-90779401D01*
X106392747Y-90812630D01*
X106317256Y-90953863D01*
X106215659Y-91077659D01*
X106091863Y-91179256D01*
X105950630Y-91254747D01*
X105950627Y-91254748D01*
X105797376Y-91301236D01*
X105717747Y-91309079D01*
X105677934Y-91313000D01*
X105322066Y-91313000D01*
X105282253Y-91309079D01*
X105202624Y-91301236D01*
X105049373Y-91254748D01*
X105049370Y-91254747D01*
X104908137Y-91179256D01*
X104784341Y-91077659D01*
X104682744Y-90953863D01*
X104607253Y-90812630D01*
X104597173Y-90779401D01*
X104560764Y-90659376D01*
X104545067Y-90500000D01*
X104560764Y-90340624D01*
X104607252Y-90187373D01*
X104607253Y-90187370D01*
X104682744Y-90046137D01*
X104784341Y-89922341D01*
X104908137Y-89820744D01*
X105049370Y-89745253D01*
X105049373Y-89745252D01*
X105202624Y-89698764D01*
X105282253Y-89690921D01*
X105322066Y-89687000D01*
X105677934Y-89687000D01*
X105717747Y-89690921D01*
X105717747Y-89690921D01*
G37*
G36*
X124501000Y-91101000D02*
G01*
X123499000Y-91101000D01*
X123499000Y-90199000D01*
X124501000Y-90199000D01*
X124501000Y-91101000D01*
X124501000Y-91101000D01*
G37*
G36*
X122379591Y-90003085D02*
G01*
X122413569Y-90013393D01*
X122444890Y-90030134D01*
X122472339Y-90052661D01*
X122494866Y-90080110D01*
X122511607Y-90111431D01*
X122521915Y-90145409D01*
X122526000Y-90186890D01*
X122526000Y-90788110D01*
X122521915Y-90829591D01*
X122511607Y-90863569D01*
X122494866Y-90894890D01*
X122472339Y-90922339D01*
X122444890Y-90944866D01*
X122413569Y-90961607D01*
X122379591Y-90971915D01*
X122338110Y-90976000D01*
X121661890Y-90976000D01*
X121620409Y-90971915D01*
X121586431Y-90961607D01*
X121555110Y-90944866D01*
X121527661Y-90922339D01*
X121505134Y-90894890D01*
X121488393Y-90863569D01*
X121478085Y-90829591D01*
X121474000Y-90788110D01*
X121474000Y-90186890D01*
X121478085Y-90145409D01*
X121488393Y-90111431D01*
X121505134Y-90080110D01*
X121527661Y-90052661D01*
X121555110Y-90030134D01*
X121586431Y-90013393D01*
X121620409Y-90003085D01*
X121661890Y-89999000D01*
X122338110Y-89999000D01*
X122379591Y-90003085D01*
X122379591Y-90003085D01*
G37*
G36*
X128379591Y-90003085D02*
G01*
X128413569Y-90013393D01*
X128444890Y-90030134D01*
X128472339Y-90052661D01*
X128494866Y-90080110D01*
X128511607Y-90111431D01*
X128521915Y-90145409D01*
X128526000Y-90186890D01*
X128526000Y-90788110D01*
X128521915Y-90829591D01*
X128511607Y-90863569D01*
X128494866Y-90894890D01*
X128472339Y-90922339D01*
X128444890Y-90944866D01*
X128413569Y-90961607D01*
X128379591Y-90971915D01*
X128338110Y-90976000D01*
X127661890Y-90976000D01*
X127620409Y-90971915D01*
X127586431Y-90961607D01*
X127555110Y-90944866D01*
X127527661Y-90922339D01*
X127505134Y-90894890D01*
X127488393Y-90863569D01*
X127478085Y-90829591D01*
X127474000Y-90788110D01*
X127474000Y-90186890D01*
X127478085Y-90145409D01*
X127488393Y-90111431D01*
X127505134Y-90080110D01*
X127527661Y-90052661D01*
X127555110Y-90030134D01*
X127586431Y-90013393D01*
X127620409Y-90003085D01*
X127661890Y-89999000D01*
X128338110Y-89999000D01*
X128379591Y-90003085D01*
X128379591Y-90003085D01*
G37*
G36*
X126501000Y-90151000D02*
G01*
X125499000Y-90151000D01*
X125499000Y-89249000D01*
X126501000Y-89249000D01*
X126501000Y-90151000D01*
X126501000Y-90151000D01*
G37*
G36*
X122379591Y-88428085D02*
G01*
X122413569Y-88438393D01*
X122444890Y-88455134D01*
X122472339Y-88477661D01*
X122494866Y-88505110D01*
X122511607Y-88536431D01*
X122521915Y-88570409D01*
X122526000Y-88611890D01*
X122526000Y-89213110D01*
X122521915Y-89254591D01*
X122511607Y-89288569D01*
X122494866Y-89319890D01*
X122472339Y-89347339D01*
X122444890Y-89369866D01*
X122413569Y-89386607D01*
X122379591Y-89396915D01*
X122338110Y-89401000D01*
X121661890Y-89401000D01*
X121620409Y-89396915D01*
X121586431Y-89386607D01*
X121555110Y-89369866D01*
X121527661Y-89347339D01*
X121505134Y-89319890D01*
X121488393Y-89288569D01*
X121478085Y-89254591D01*
X121474000Y-89213110D01*
X121474000Y-88611890D01*
X121478085Y-88570409D01*
X121488393Y-88536431D01*
X121505134Y-88505110D01*
X121527661Y-88477661D01*
X121555110Y-88455134D01*
X121586431Y-88438393D01*
X121620409Y-88428085D01*
X121661890Y-88424000D01*
X122338110Y-88424000D01*
X122379591Y-88428085D01*
X122379591Y-88428085D01*
G37*
G36*
X128379591Y-88428085D02*
G01*
X128413569Y-88438393D01*
X128444890Y-88455134D01*
X128472339Y-88477661D01*
X128494866Y-88505110D01*
X128511607Y-88536431D01*
X128521915Y-88570409D01*
X128526000Y-88611890D01*
X128526000Y-89213110D01*
X128521915Y-89254591D01*
X128511607Y-89288569D01*
X128494866Y-89319890D01*
X128472339Y-89347339D01*
X128444890Y-89369866D01*
X128413569Y-89386607D01*
X128379591Y-89396915D01*
X128338110Y-89401000D01*
X127661890Y-89401000D01*
X127620409Y-89396915D01*
X127586431Y-89386607D01*
X127555110Y-89369866D01*
X127527661Y-89347339D01*
X127505134Y-89319890D01*
X127488393Y-89288569D01*
X127478085Y-89254591D01*
X127474000Y-89213110D01*
X127474000Y-88611890D01*
X127478085Y-88570409D01*
X127488393Y-88536431D01*
X127505134Y-88505110D01*
X127527661Y-88477661D01*
X127555110Y-88455134D01*
X127586431Y-88438393D01*
X127620409Y-88428085D01*
X127661890Y-88424000D01*
X128338110Y-88424000D01*
X128379591Y-88428085D01*
X128379591Y-88428085D01*
G37*
G36*
X105717747Y-87690921D02*
G01*
X105797376Y-87698764D01*
X105950627Y-87745252D01*
X105950630Y-87745253D01*
X106091863Y-87820744D01*
X106215659Y-87922341D01*
X106317256Y-88046137D01*
X106392747Y-88187370D01*
X106392748Y-88187373D01*
X106439236Y-88340624D01*
X106454933Y-88500000D01*
X106439236Y-88659376D01*
X106412827Y-88746435D01*
X106392747Y-88812630D01*
X106317256Y-88953863D01*
X106215659Y-89077659D01*
X106091863Y-89179256D01*
X105950630Y-89254747D01*
X105950627Y-89254748D01*
X105797376Y-89301236D01*
X105717747Y-89309079D01*
X105677934Y-89313000D01*
X105322066Y-89313000D01*
X105282253Y-89309079D01*
X105202624Y-89301236D01*
X105049373Y-89254748D01*
X105049370Y-89254747D01*
X104908137Y-89179256D01*
X104784341Y-89077659D01*
X104682744Y-88953863D01*
X104607253Y-88812630D01*
X104587173Y-88746435D01*
X104560764Y-88659376D01*
X104545067Y-88500000D01*
X104560764Y-88340624D01*
X104607252Y-88187373D01*
X104607253Y-88187370D01*
X104682744Y-88046137D01*
X104784341Y-87922341D01*
X104908137Y-87820744D01*
X105049370Y-87745253D01*
X105049373Y-87745252D01*
X105202624Y-87698764D01*
X105282253Y-87690921D01*
X105322066Y-87687000D01*
X105677934Y-87687000D01*
X105717747Y-87690921D01*
X105717747Y-87690921D01*
G37*
G36*
X124501000Y-89201000D02*
G01*
X123499000Y-89201000D01*
X123499000Y-88299000D01*
X124501000Y-88299000D01*
X124501000Y-89201000D01*
X124501000Y-89201000D01*
G37*
G36*
X110934468Y-87253565D02*
G01*
X110973138Y-87265296D01*
X111008777Y-87284346D01*
X111040017Y-87309983D01*
X111065654Y-87341223D01*
X111084704Y-87376862D01*
X111096435Y-87415532D01*
X111101000Y-87461888D01*
X111101000Y-88538112D01*
X111096435Y-88584468D01*
X111084704Y-88623138D01*
X111065654Y-88658777D01*
X111040017Y-88690017D01*
X111008777Y-88715654D01*
X110973138Y-88734704D01*
X110934468Y-88746435D01*
X110888112Y-88751000D01*
X110236888Y-88751000D01*
X110190532Y-88746435D01*
X110151862Y-88734704D01*
X110116223Y-88715654D01*
X110084983Y-88690017D01*
X110059346Y-88658777D01*
X110040296Y-88623138D01*
X110028565Y-88584468D01*
X110024000Y-88538112D01*
X110024000Y-87461888D01*
X110028565Y-87415532D01*
X110040296Y-87376862D01*
X110059346Y-87341223D01*
X110084983Y-87309983D01*
X110116223Y-87284346D01*
X110151862Y-87265296D01*
X110190532Y-87253565D01*
X110236888Y-87249000D01*
X110888112Y-87249000D01*
X110934468Y-87253565D01*
X110934468Y-87253565D01*
G37*
G36*
X112809468Y-87253565D02*
G01*
X112848138Y-87265296D01*
X112883777Y-87284346D01*
X112915017Y-87309983D01*
X112940654Y-87341223D01*
X112959704Y-87376862D01*
X112971435Y-87415532D01*
X112976000Y-87461888D01*
X112976000Y-88538112D01*
X112971435Y-88584468D01*
X112959704Y-88623138D01*
X112940654Y-88658777D01*
X112915017Y-88690017D01*
X112883777Y-88715654D01*
X112848138Y-88734704D01*
X112809468Y-88746435D01*
X112763112Y-88751000D01*
X112111888Y-88751000D01*
X112065532Y-88746435D01*
X112026862Y-88734704D01*
X111991223Y-88715654D01*
X111959983Y-88690017D01*
X111934346Y-88658777D01*
X111915296Y-88623138D01*
X111903565Y-88584468D01*
X111899000Y-88538112D01*
X111899000Y-87461888D01*
X111903565Y-87415532D01*
X111915296Y-87376862D01*
X111934346Y-87341223D01*
X111959983Y-87309983D01*
X111991223Y-87284346D01*
X112026862Y-87265296D01*
X112065532Y-87253565D01*
X112111888Y-87249000D01*
X112763112Y-87249000D01*
X112809468Y-87253565D01*
X112809468Y-87253565D01*
G37*
G36*
X118874000Y-88386500D02*
G01*
X118554421Y-88386500D01*
X118548836Y-88383515D01*
X118525387Y-88376402D01*
X118501001Y-88374000D01*
X118113500Y-88374000D01*
X118113500Y-88126000D01*
X118501001Y-88126000D01*
X118525387Y-88123598D01*
X118548836Y-88116485D01*
X118554421Y-88113500D01*
X118874000Y-88113500D01*
X118874000Y-88386500D01*
X118874000Y-88386500D01*
G37*
G36*
X119451164Y-88116485D02*
G01*
X119474613Y-88123598D01*
X119498999Y-88126000D01*
X119886500Y-88126000D01*
X119886500Y-88374000D01*
X119498999Y-88374000D01*
X119474613Y-88376402D01*
X119451164Y-88383515D01*
X119445579Y-88386500D01*
X119126000Y-88386500D01*
X119126000Y-88113500D01*
X119445579Y-88113500D01*
X119451164Y-88116485D01*
X119451164Y-88116485D01*
G37*
G36*
X118386500Y-87874000D02*
G01*
X118113500Y-87874000D01*
X118113500Y-87626000D01*
X118386500Y-87626000D01*
X118386500Y-87874000D01*
X118386500Y-87874000D01*
G37*
G36*
X119886500Y-87874000D02*
G01*
X119613500Y-87874000D01*
X119613500Y-87626000D01*
X119886500Y-87626000D01*
X119886500Y-87874000D01*
X119886500Y-87874000D01*
G37*
G36*
X118386500Y-87374000D02*
G01*
X118113500Y-87374000D01*
X118113500Y-87126000D01*
X118386500Y-87126000D01*
X118386500Y-87374000D01*
X118386500Y-87374000D01*
G37*
G36*
X119886500Y-87374000D02*
G01*
X119613500Y-87374000D01*
X119613500Y-87126000D01*
X119886500Y-87126000D01*
X119886500Y-87374000D01*
X119886500Y-87374000D01*
G37*
G36*
X105717747Y-85690921D02*
G01*
X105797376Y-85698764D01*
X105950627Y-85745252D01*
X105950630Y-85745253D01*
X106091863Y-85820744D01*
X106215659Y-85922341D01*
X106317256Y-86046137D01*
X106392747Y-86187370D01*
X106392748Y-86187373D01*
X106439236Y-86340624D01*
X106454933Y-86500000D01*
X106439236Y-86659376D01*
X106392748Y-86812627D01*
X106392747Y-86812630D01*
X106317256Y-86953863D01*
X106215659Y-87077659D01*
X106091863Y-87179256D01*
X105950630Y-87254747D01*
X105950627Y-87254748D01*
X105797376Y-87301236D01*
X105717747Y-87309079D01*
X105677934Y-87313000D01*
X105322066Y-87313000D01*
X105282253Y-87309079D01*
X105202624Y-87301236D01*
X105049373Y-87254748D01*
X105049370Y-87254747D01*
X104908137Y-87179256D01*
X104784341Y-87077659D01*
X104682744Y-86953863D01*
X104607253Y-86812630D01*
X104607252Y-86812627D01*
X104560764Y-86659376D01*
X104545067Y-86500000D01*
X104560764Y-86340624D01*
X104607252Y-86187373D01*
X104607253Y-86187370D01*
X104682744Y-86046137D01*
X104784341Y-85922341D01*
X104908137Y-85820744D01*
X105049370Y-85745253D01*
X105049373Y-85745252D01*
X105202624Y-85698764D01*
X105282253Y-85690921D01*
X105322066Y-85687000D01*
X105677934Y-85687000D01*
X105717747Y-85690921D01*
X105717747Y-85690921D01*
G37*
G36*
X125929591Y-86078085D02*
G01*
X125963569Y-86088393D01*
X125994890Y-86105134D01*
X126022339Y-86127661D01*
X126044866Y-86155110D01*
X126061607Y-86186431D01*
X126071915Y-86220409D01*
X126076000Y-86261890D01*
X126076000Y-86938110D01*
X126071915Y-86979591D01*
X126061607Y-87013569D01*
X126044866Y-87044890D01*
X126022339Y-87072339D01*
X125994890Y-87094866D01*
X125963569Y-87111607D01*
X125929591Y-87121915D01*
X125888110Y-87126000D01*
X125286890Y-87126000D01*
X125245409Y-87121915D01*
X125211431Y-87111607D01*
X125180110Y-87094866D01*
X125152661Y-87072339D01*
X125130134Y-87044890D01*
X125113393Y-87013569D01*
X125103085Y-86979591D01*
X125099000Y-86938110D01*
X125099000Y-86261890D01*
X125103085Y-86220409D01*
X125113393Y-86186431D01*
X125130134Y-86155110D01*
X125152661Y-86127661D01*
X125180110Y-86105134D01*
X125211431Y-86088393D01*
X125245409Y-86078085D01*
X125286890Y-86074000D01*
X125888110Y-86074000D01*
X125929591Y-86078085D01*
X125929591Y-86078085D01*
G37*
G36*
X124354591Y-86078085D02*
G01*
X124388569Y-86088393D01*
X124419890Y-86105134D01*
X124447339Y-86127661D01*
X124469866Y-86155110D01*
X124486607Y-86186431D01*
X124496915Y-86220409D01*
X124501000Y-86261890D01*
X124501000Y-86938110D01*
X124496915Y-86979591D01*
X124486607Y-87013569D01*
X124469866Y-87044890D01*
X124447339Y-87072339D01*
X124419890Y-87094866D01*
X124388569Y-87111607D01*
X124354591Y-87121915D01*
X124313110Y-87126000D01*
X123711890Y-87126000D01*
X123670409Y-87121915D01*
X123636431Y-87111607D01*
X123605110Y-87094866D01*
X123577661Y-87072339D01*
X123555134Y-87044890D01*
X123538393Y-87013569D01*
X123528085Y-86979591D01*
X123524000Y-86938110D01*
X123524000Y-86261890D01*
X123528085Y-86220409D01*
X123538393Y-86186431D01*
X123555134Y-86155110D01*
X123577661Y-86127661D01*
X123605110Y-86105134D01*
X123636431Y-86088393D01*
X123670409Y-86078085D01*
X123711890Y-86074000D01*
X124313110Y-86074000D01*
X124354591Y-86078085D01*
X124354591Y-86078085D01*
G37*
G36*
X119451164Y-86616485D02*
G01*
X119474613Y-86623598D01*
X119498999Y-86626000D01*
X119886500Y-86626000D01*
X119886500Y-86874000D01*
X119498999Y-86874000D01*
X119474613Y-86876402D01*
X119451164Y-86883515D01*
X119445579Y-86886500D01*
X119126000Y-86886500D01*
X119126000Y-86613500D01*
X119445579Y-86613500D01*
X119451164Y-86616485D01*
X119451164Y-86616485D01*
G37*
G36*
X118874000Y-86886500D02*
G01*
X118554421Y-86886500D01*
X118548836Y-86883515D01*
X118525387Y-86876402D01*
X118501001Y-86874000D01*
X118113500Y-86874000D01*
X118113500Y-86626000D01*
X118501001Y-86626000D01*
X118525387Y-86623598D01*
X118548836Y-86616485D01*
X118554421Y-86613500D01*
X118874000Y-86613500D01*
X118874000Y-86886500D01*
X118874000Y-86886500D01*
G37*
G36*
X112826000Y-86181000D02*
G01*
X110174000Y-86181000D01*
X110174000Y-85019000D01*
X112826000Y-85019000D01*
X112826000Y-86181000D01*
X112826000Y-86181000D01*
G37*
G36*
X114879591Y-84803085D02*
G01*
X114913569Y-84813393D01*
X114944890Y-84830134D01*
X114972339Y-84852661D01*
X114994866Y-84880110D01*
X115011607Y-84911431D01*
X115021915Y-84945409D01*
X115026000Y-84986890D01*
X115026000Y-85588110D01*
X115021915Y-85629591D01*
X115011607Y-85663569D01*
X114994866Y-85694890D01*
X114972339Y-85722339D01*
X114944890Y-85744866D01*
X114913569Y-85761607D01*
X114879591Y-85771915D01*
X114838110Y-85776000D01*
X114161890Y-85776000D01*
X114120409Y-85771915D01*
X114086431Y-85761607D01*
X114055110Y-85744866D01*
X114027661Y-85722339D01*
X114005134Y-85694890D01*
X113988393Y-85663569D01*
X113978085Y-85629591D01*
X113974000Y-85588110D01*
X113974000Y-84986890D01*
X113978085Y-84945409D01*
X113988393Y-84911431D01*
X114005134Y-84880110D01*
X114027661Y-84852661D01*
X114055110Y-84830134D01*
X114086431Y-84813393D01*
X114120409Y-84803085D01*
X114161890Y-84799000D01*
X114838110Y-84799000D01*
X114879591Y-84803085D01*
X114879591Y-84803085D01*
G37*
G36*
X105717747Y-83690921D02*
G01*
X105797376Y-83698764D01*
X105950627Y-83745252D01*
X105950630Y-83745253D01*
X106091863Y-83820744D01*
X106215659Y-83922341D01*
X106317256Y-84046137D01*
X106392747Y-84187370D01*
X106392748Y-84187373D01*
X106439236Y-84340624D01*
X106454933Y-84500000D01*
X106439236Y-84659376D01*
X106395458Y-84803693D01*
X106392747Y-84812630D01*
X106317256Y-84953863D01*
X106215659Y-85077659D01*
X106091863Y-85179256D01*
X105950630Y-85254747D01*
X105950627Y-85254748D01*
X105797376Y-85301236D01*
X105717747Y-85309079D01*
X105677934Y-85313000D01*
X105322066Y-85313000D01*
X105282253Y-85309079D01*
X105202624Y-85301236D01*
X105049373Y-85254748D01*
X105049370Y-85254747D01*
X104908137Y-85179256D01*
X104784341Y-85077659D01*
X104682744Y-84953863D01*
X104607253Y-84812630D01*
X104604542Y-84803693D01*
X104560764Y-84659376D01*
X104545067Y-84500000D01*
X104560764Y-84340624D01*
X104607252Y-84187373D01*
X104607253Y-84187370D01*
X104682744Y-84046137D01*
X104784341Y-83922341D01*
X104908137Y-83820744D01*
X105049370Y-83745253D01*
X105049373Y-83745252D01*
X105202624Y-83698764D01*
X105282253Y-83690921D01*
X105322066Y-83687000D01*
X105677934Y-83687000D01*
X105717747Y-83690921D01*
X105717747Y-83690921D01*
G37*
G36*
X125929591Y-84078085D02*
G01*
X125963569Y-84088393D01*
X125994890Y-84105134D01*
X126022339Y-84127661D01*
X126044866Y-84155110D01*
X126061607Y-84186431D01*
X126071915Y-84220409D01*
X126076000Y-84261890D01*
X126076000Y-84938110D01*
X126071915Y-84979591D01*
X126061607Y-85013569D01*
X126044866Y-85044890D01*
X126022339Y-85072339D01*
X125994890Y-85094866D01*
X125963569Y-85111607D01*
X125929591Y-85121915D01*
X125888110Y-85126000D01*
X125286890Y-85126000D01*
X125245409Y-85121915D01*
X125211431Y-85111607D01*
X125180110Y-85094866D01*
X125152661Y-85072339D01*
X125130134Y-85044890D01*
X125113393Y-85013569D01*
X125103085Y-84979591D01*
X125099000Y-84938110D01*
X125099000Y-84261890D01*
X125103085Y-84220409D01*
X125113393Y-84186431D01*
X125130134Y-84155110D01*
X125152661Y-84127661D01*
X125180110Y-84105134D01*
X125211431Y-84088393D01*
X125245409Y-84078085D01*
X125286890Y-84074000D01*
X125888110Y-84074000D01*
X125929591Y-84078085D01*
X125929591Y-84078085D01*
G37*
G36*
X124354591Y-84078085D02*
G01*
X124388569Y-84088393D01*
X124419890Y-84105134D01*
X124447339Y-84127661D01*
X124469866Y-84155110D01*
X124486607Y-84186431D01*
X124496915Y-84220409D01*
X124501000Y-84261890D01*
X124501000Y-84938110D01*
X124496915Y-84979591D01*
X124486607Y-85013569D01*
X124469866Y-85044890D01*
X124447339Y-85072339D01*
X124419890Y-85094866D01*
X124388569Y-85111607D01*
X124354591Y-85121915D01*
X124313110Y-85126000D01*
X123711890Y-85126000D01*
X123670409Y-85121915D01*
X123636431Y-85111607D01*
X123605110Y-85094866D01*
X123577661Y-85072339D01*
X123555134Y-85044890D01*
X123538393Y-85013569D01*
X123528085Y-84979591D01*
X123524000Y-84938110D01*
X123524000Y-84261890D01*
X123528085Y-84220409D01*
X123538393Y-84186431D01*
X123555134Y-84155110D01*
X123577661Y-84127661D01*
X123605110Y-84105134D01*
X123636431Y-84088393D01*
X123670409Y-84078085D01*
X123711890Y-84074000D01*
X124313110Y-84074000D01*
X124354591Y-84078085D01*
X124354591Y-84078085D01*
G37*
G36*
X114879591Y-83228085D02*
G01*
X114913569Y-83238393D01*
X114944890Y-83255134D01*
X114972339Y-83277661D01*
X114994866Y-83305110D01*
X115011607Y-83336431D01*
X115021915Y-83370409D01*
X115026000Y-83411890D01*
X115026000Y-84013110D01*
X115021915Y-84054591D01*
X115011607Y-84088569D01*
X114994866Y-84119890D01*
X114972339Y-84147339D01*
X114944890Y-84169866D01*
X114913569Y-84186607D01*
X114879591Y-84196915D01*
X114838110Y-84201000D01*
X114161890Y-84201000D01*
X114120409Y-84196915D01*
X114086431Y-84186607D01*
X114055110Y-84169866D01*
X114027661Y-84147339D01*
X114005134Y-84119890D01*
X113988393Y-84088569D01*
X113978085Y-84054591D01*
X113974000Y-84013110D01*
X113974000Y-83411890D01*
X113978085Y-83370409D01*
X113988393Y-83336431D01*
X114005134Y-83305110D01*
X114027661Y-83277661D01*
X114055110Y-83255134D01*
X114086431Y-83238393D01*
X114120409Y-83228085D01*
X114161890Y-83224000D01*
X114838110Y-83224000D01*
X114879591Y-83228085D01*
X114879591Y-83228085D01*
G37*
G36*
X110926000Y-83981000D02*
G01*
X110174000Y-83981000D01*
X110174000Y-82819000D01*
X110926000Y-82819000D01*
X110926000Y-83981000D01*
X110926000Y-83981000D01*
G37*
G36*
X112826000Y-83981000D02*
G01*
X112074000Y-83981000D01*
X112074000Y-82819000D01*
X112826000Y-82819000D01*
X112826000Y-83981000D01*
X112826000Y-83981000D01*
G37*
G36*
X124501000Y-83001000D02*
G01*
X123499000Y-83001000D01*
X123499000Y-82099000D01*
X124501000Y-82099000D01*
X124501000Y-83001000D01*
X124501000Y-83001000D01*
G37*
G36*
X122379591Y-81903085D02*
G01*
X122413569Y-81913393D01*
X122444890Y-81930134D01*
X122472339Y-81952661D01*
X122494866Y-81980110D01*
X122511607Y-82011431D01*
X122521915Y-82045409D01*
X122526000Y-82086890D01*
X122526000Y-82688110D01*
X122521915Y-82729591D01*
X122511607Y-82763569D01*
X122494866Y-82794890D01*
X122472339Y-82822339D01*
X122444890Y-82844866D01*
X122413569Y-82861607D01*
X122379591Y-82871915D01*
X122338110Y-82876000D01*
X121661890Y-82876000D01*
X121620409Y-82871915D01*
X121586431Y-82861607D01*
X121555110Y-82844866D01*
X121527661Y-82822339D01*
X121505134Y-82794890D01*
X121488393Y-82763569D01*
X121478085Y-82729591D01*
X121474000Y-82688110D01*
X121474000Y-82086890D01*
X121478085Y-82045409D01*
X121488393Y-82011431D01*
X121505134Y-81980110D01*
X121527661Y-81952661D01*
X121555110Y-81930134D01*
X121586431Y-81913393D01*
X121620409Y-81903085D01*
X121661890Y-81899000D01*
X122338110Y-81899000D01*
X122379591Y-81903085D01*
X122379591Y-81903085D01*
G37*
G36*
X128379591Y-81903085D02*
G01*
X128413569Y-81913393D01*
X128444890Y-81930134D01*
X128472339Y-81952661D01*
X128494866Y-81980110D01*
X128511607Y-82011431D01*
X128521915Y-82045409D01*
X128526000Y-82086890D01*
X128526000Y-82688110D01*
X128521915Y-82729591D01*
X128511607Y-82763569D01*
X128494866Y-82794890D01*
X128472339Y-82822339D01*
X128444890Y-82844866D01*
X128413569Y-82861607D01*
X128379591Y-82871915D01*
X128338110Y-82876000D01*
X127661890Y-82876000D01*
X127620409Y-82871915D01*
X127586431Y-82861607D01*
X127555110Y-82844866D01*
X127527661Y-82822339D01*
X127505134Y-82794890D01*
X127488393Y-82763569D01*
X127478085Y-82729591D01*
X127474000Y-82688110D01*
X127474000Y-82086890D01*
X127478085Y-82045409D01*
X127488393Y-82011431D01*
X127505134Y-81980110D01*
X127527661Y-81952661D01*
X127555110Y-81930134D01*
X127586431Y-81913393D01*
X127620409Y-81903085D01*
X127661890Y-81899000D01*
X128338110Y-81899000D01*
X128379591Y-81903085D01*
X128379591Y-81903085D01*
G37*
G36*
X126501000Y-82051000D02*
G01*
X125499000Y-82051000D01*
X125499000Y-81149000D01*
X126501000Y-81149000D01*
X126501000Y-82051000D01*
X126501000Y-82051000D01*
G37*
G36*
X110934468Y-80253565D02*
G01*
X110973138Y-80265296D01*
X111008777Y-80284346D01*
X111040017Y-80309983D01*
X111065654Y-80341223D01*
X111084704Y-80376862D01*
X111096435Y-80415532D01*
X111101000Y-80461888D01*
X111101000Y-81538112D01*
X111096435Y-81584468D01*
X111084704Y-81623138D01*
X111065654Y-81658777D01*
X111040017Y-81690017D01*
X111008777Y-81715654D01*
X110973138Y-81734704D01*
X110934468Y-81746435D01*
X110888112Y-81751000D01*
X110236888Y-81751000D01*
X110190532Y-81746435D01*
X110151862Y-81734704D01*
X110116223Y-81715654D01*
X110084983Y-81690017D01*
X110059346Y-81658777D01*
X110040296Y-81623138D01*
X110028565Y-81584468D01*
X110024000Y-81538112D01*
X110024000Y-80461888D01*
X110028565Y-80415532D01*
X110040296Y-80376862D01*
X110059346Y-80341223D01*
X110084983Y-80309983D01*
X110116223Y-80284346D01*
X110151862Y-80265296D01*
X110190532Y-80253565D01*
X110236888Y-80249000D01*
X110888112Y-80249000D01*
X110934468Y-80253565D01*
X110934468Y-80253565D01*
G37*
G36*
X112809468Y-80253565D02*
G01*
X112848138Y-80265296D01*
X112883777Y-80284346D01*
X112915017Y-80309983D01*
X112940654Y-80341223D01*
X112959704Y-80376862D01*
X112971435Y-80415532D01*
X112976000Y-80461888D01*
X112976000Y-81538112D01*
X112971435Y-81584468D01*
X112959704Y-81623138D01*
X112940654Y-81658777D01*
X112915017Y-81690017D01*
X112883777Y-81715654D01*
X112848138Y-81734704D01*
X112809468Y-81746435D01*
X112763112Y-81751000D01*
X112111888Y-81751000D01*
X112065532Y-81746435D01*
X112026862Y-81734704D01*
X111991223Y-81715654D01*
X111959983Y-81690017D01*
X111934346Y-81658777D01*
X111915296Y-81623138D01*
X111903565Y-81584468D01*
X111899000Y-81538112D01*
X111899000Y-80461888D01*
X111903565Y-80415532D01*
X111915296Y-80376862D01*
X111934346Y-80341223D01*
X111959983Y-80309983D01*
X111991223Y-80284346D01*
X112026862Y-80265296D01*
X112065532Y-80253565D01*
X112111888Y-80249000D01*
X112763112Y-80249000D01*
X112809468Y-80253565D01*
X112809468Y-80253565D01*
G37*
G36*
X128379591Y-80328085D02*
G01*
X128413569Y-80338393D01*
X128444890Y-80355134D01*
X128472339Y-80377661D01*
X128494866Y-80405110D01*
X128511607Y-80436431D01*
X128521915Y-80470409D01*
X128526000Y-80511890D01*
X128526000Y-81113110D01*
X128521915Y-81154591D01*
X128511607Y-81188569D01*
X128494866Y-81219890D01*
X128472339Y-81247339D01*
X128444890Y-81269866D01*
X128413569Y-81286607D01*
X128379591Y-81296915D01*
X128338110Y-81301000D01*
X127661890Y-81301000D01*
X127620409Y-81296915D01*
X127586431Y-81286607D01*
X127555110Y-81269866D01*
X127527661Y-81247339D01*
X127505134Y-81219890D01*
X127488393Y-81188569D01*
X127478085Y-81154591D01*
X127474000Y-81113110D01*
X127474000Y-80511890D01*
X127478085Y-80470409D01*
X127488393Y-80436431D01*
X127505134Y-80405110D01*
X127527661Y-80377661D01*
X127555110Y-80355134D01*
X127586431Y-80338393D01*
X127620409Y-80328085D01*
X127661890Y-80324000D01*
X128338110Y-80324000D01*
X128379591Y-80328085D01*
X128379591Y-80328085D01*
G37*
G36*
X122379591Y-80328085D02*
G01*
X122413569Y-80338393D01*
X122444890Y-80355134D01*
X122472339Y-80377661D01*
X122494866Y-80405110D01*
X122511607Y-80436431D01*
X122521915Y-80470409D01*
X122526000Y-80511890D01*
X122526000Y-81113110D01*
X122521915Y-81154591D01*
X122511607Y-81188569D01*
X122494866Y-81219890D01*
X122472339Y-81247339D01*
X122444890Y-81269866D01*
X122413569Y-81286607D01*
X122379591Y-81296915D01*
X122338110Y-81301000D01*
X121661890Y-81301000D01*
X121620409Y-81296915D01*
X121586431Y-81286607D01*
X121555110Y-81269866D01*
X121527661Y-81247339D01*
X121505134Y-81219890D01*
X121488393Y-81188569D01*
X121478085Y-81154591D01*
X121474000Y-81113110D01*
X121474000Y-80511890D01*
X121478085Y-80470409D01*
X121488393Y-80436431D01*
X121505134Y-80405110D01*
X121527661Y-80377661D01*
X121555110Y-80355134D01*
X121586431Y-80338393D01*
X121620409Y-80328085D01*
X121661890Y-80324000D01*
X122338110Y-80324000D01*
X122379591Y-80328085D01*
X122379591Y-80328085D01*
G37*
G36*
X124501000Y-81101000D02*
G01*
X123499000Y-81101000D01*
X123499000Y-80199000D01*
X124501000Y-80199000D01*
X124501000Y-81101000D01*
X124501000Y-81101000D01*
G37*
G36*
X103375256Y-76391298D02*
G01*
X103481579Y-76412447D01*
X103782042Y-76536903D01*
X104052451Y-76717585D01*
X104282415Y-76947549D01*
X104463097Y-77217958D01*
X104581162Y-77502991D01*
X104587553Y-77518422D01*
X104650812Y-77836443D01*
X104651000Y-77837391D01*
X104651000Y-78162609D01*
X104587553Y-78481579D01*
X104463097Y-78782042D01*
X104282415Y-79052451D01*
X104052451Y-79282415D01*
X103782042Y-79463097D01*
X103481579Y-79587553D01*
X103375256Y-79608702D01*
X103162611Y-79651000D01*
X102837389Y-79651000D01*
X102624744Y-79608702D01*
X102518421Y-79587553D01*
X102217958Y-79463097D01*
X101947549Y-79282415D01*
X101717585Y-79052451D01*
X101536903Y-78782042D01*
X101412447Y-78481579D01*
X101349000Y-78162609D01*
X101349000Y-77837391D01*
X101349189Y-77836443D01*
X101412447Y-77518422D01*
X101418839Y-77502991D01*
X101536903Y-77217958D01*
X101717585Y-76947549D01*
X101947549Y-76717585D01*
X102217958Y-76536903D01*
X102518421Y-76412447D01*
X102624744Y-76391298D01*
X102837389Y-76349000D01*
X103162611Y-76349000D01*
X103375256Y-76391298D01*
X103375256Y-76391298D01*
G37*
G36*
X110901000Y-77901000D02*
G01*
X109099000Y-77901000D01*
X109099000Y-76099000D01*
X110901000Y-76099000D01*
X110901000Y-77901000D01*
X110901000Y-77901000D01*
G37*
G36*
X112650443Y-76105519D02*
G01*
X112716627Y-76112037D01*
X112886466Y-76163557D01*
X113042991Y-76247222D01*
X113078729Y-76276552D01*
X113180186Y-76359814D01*
X113263448Y-76461271D01*
X113292778Y-76497009D01*
X113376443Y-76653534D01*
X113427963Y-76823373D01*
X113445359Y-77000000D01*
X113427963Y-77176627D01*
X113376443Y-77346466D01*
X113292778Y-77502991D01*
X113280114Y-77518422D01*
X113180186Y-77640186D01*
X113078729Y-77723448D01*
X113042991Y-77752778D01*
X112886466Y-77836443D01*
X112716627Y-77887963D01*
X112650442Y-77894482D01*
X112584260Y-77901000D01*
X112495740Y-77901000D01*
X112429558Y-77894482D01*
X112363373Y-77887963D01*
X112193534Y-77836443D01*
X112037009Y-77752778D01*
X112001271Y-77723448D01*
X111899814Y-77640186D01*
X111799886Y-77518422D01*
X111787222Y-77502991D01*
X111703557Y-77346466D01*
X111652037Y-77176627D01*
X111634641Y-77000000D01*
X111652037Y-76823373D01*
X111703557Y-76653534D01*
X111787222Y-76497009D01*
X111816552Y-76461271D01*
X111899814Y-76359814D01*
X112001271Y-76276552D01*
X112037009Y-76247222D01*
X112193534Y-76163557D01*
X112363373Y-76112037D01*
X112429557Y-76105519D01*
X112495740Y-76099000D01*
X112584260Y-76099000D01*
X112650443Y-76105519D01*
X112650443Y-76105519D01*
G37*
G36*
X115190443Y-76105519D02*
G01*
X115256627Y-76112037D01*
X115426466Y-76163557D01*
X115582991Y-76247222D01*
X115618729Y-76276552D01*
X115720186Y-76359814D01*
X115803448Y-76461271D01*
X115832778Y-76497009D01*
X115916443Y-76653534D01*
X115967963Y-76823373D01*
X115985359Y-77000000D01*
X115967963Y-77176627D01*
X115916443Y-77346466D01*
X115832778Y-77502991D01*
X115820114Y-77518422D01*
X115720186Y-77640186D01*
X115618729Y-77723448D01*
X115582991Y-77752778D01*
X115426466Y-77836443D01*
X115256627Y-77887963D01*
X115190442Y-77894482D01*
X115124260Y-77901000D01*
X115035740Y-77901000D01*
X114969558Y-77894482D01*
X114903373Y-77887963D01*
X114733534Y-77836443D01*
X114577009Y-77752778D01*
X114541271Y-77723448D01*
X114439814Y-77640186D01*
X114339886Y-77518422D01*
X114327222Y-77502991D01*
X114243557Y-77346466D01*
X114192037Y-77176627D01*
X114174641Y-77000000D01*
X114192037Y-76823373D01*
X114243557Y-76653534D01*
X114327222Y-76497009D01*
X114356552Y-76461271D01*
X114439814Y-76359814D01*
X114541271Y-76276552D01*
X114577009Y-76247222D01*
X114733534Y-76163557D01*
X114903373Y-76112037D01*
X114969557Y-76105519D01*
X115035740Y-76099000D01*
X115124260Y-76099000D01*
X115190443Y-76105519D01*
X115190443Y-76105519D01*
G37*
G36*
X117730443Y-76105519D02*
G01*
X117796627Y-76112037D01*
X117966466Y-76163557D01*
X118122991Y-76247222D01*
X118158729Y-76276552D01*
X118260186Y-76359814D01*
X118343448Y-76461271D01*
X118372778Y-76497009D01*
X118456443Y-76653534D01*
X118507963Y-76823373D01*
X118525359Y-77000000D01*
X118507963Y-77176627D01*
X118456443Y-77346466D01*
X118372778Y-77502991D01*
X118360114Y-77518422D01*
X118260186Y-77640186D01*
X118158729Y-77723448D01*
X118122991Y-77752778D01*
X117966466Y-77836443D01*
X117796627Y-77887963D01*
X117730442Y-77894482D01*
X117664260Y-77901000D01*
X117575740Y-77901000D01*
X117509558Y-77894482D01*
X117443373Y-77887963D01*
X117273534Y-77836443D01*
X117117009Y-77752778D01*
X117081271Y-77723448D01*
X116979814Y-77640186D01*
X116879886Y-77518422D01*
X116867222Y-77502991D01*
X116783557Y-77346466D01*
X116732037Y-77176627D01*
X116714641Y-77000000D01*
X116732037Y-76823373D01*
X116783557Y-76653534D01*
X116867222Y-76497009D01*
X116896552Y-76461271D01*
X116979814Y-76359814D01*
X117081271Y-76276552D01*
X117117009Y-76247222D01*
X117273534Y-76163557D01*
X117443373Y-76112037D01*
X117509557Y-76105519D01*
X117575740Y-76099000D01*
X117664260Y-76099000D01*
X117730443Y-76105519D01*
X117730443Y-76105519D01*
G37*
G36*
X120270443Y-76105519D02*
G01*
X120336627Y-76112037D01*
X120506466Y-76163557D01*
X120662991Y-76247222D01*
X120698729Y-76276552D01*
X120800186Y-76359814D01*
X120883448Y-76461271D01*
X120912778Y-76497009D01*
X120996443Y-76653534D01*
X121047963Y-76823373D01*
X121065359Y-77000000D01*
X121047963Y-77176627D01*
X120996443Y-77346466D01*
X120912778Y-77502991D01*
X120900114Y-77518422D01*
X120800186Y-77640186D01*
X120698729Y-77723448D01*
X120662991Y-77752778D01*
X120506466Y-77836443D01*
X120336627Y-77887963D01*
X120270442Y-77894482D01*
X120204260Y-77901000D01*
X120115740Y-77901000D01*
X120049558Y-77894482D01*
X119983373Y-77887963D01*
X119813534Y-77836443D01*
X119657009Y-77752778D01*
X119621271Y-77723448D01*
X119519814Y-77640186D01*
X119419886Y-77518422D01*
X119407222Y-77502991D01*
X119323557Y-77346466D01*
X119272037Y-77176627D01*
X119254641Y-77000000D01*
X119272037Y-76823373D01*
X119323557Y-76653534D01*
X119407222Y-76497009D01*
X119436552Y-76461271D01*
X119519814Y-76359814D01*
X119621271Y-76276552D01*
X119657009Y-76247222D01*
X119813534Y-76163557D01*
X119983373Y-76112037D01*
X120049557Y-76105519D01*
X120115740Y-76099000D01*
X120204260Y-76099000D01*
X120270443Y-76105519D01*
X120270443Y-76105519D01*
G37*
G36*
X122810443Y-76105519D02*
G01*
X122876627Y-76112037D01*
X123046466Y-76163557D01*
X123202991Y-76247222D01*
X123238729Y-76276552D01*
X123340186Y-76359814D01*
X123423448Y-76461271D01*
X123452778Y-76497009D01*
X123536443Y-76653534D01*
X123587963Y-76823373D01*
X123605359Y-77000000D01*
X123587963Y-77176627D01*
X123536443Y-77346466D01*
X123452778Y-77502991D01*
X123440114Y-77518422D01*
X123340186Y-77640186D01*
X123238729Y-77723448D01*
X123202991Y-77752778D01*
X123046466Y-77836443D01*
X122876627Y-77887963D01*
X122810442Y-77894482D01*
X122744260Y-77901000D01*
X122655740Y-77901000D01*
X122589558Y-77894482D01*
X122523373Y-77887963D01*
X122353534Y-77836443D01*
X122197009Y-77752778D01*
X122161271Y-77723448D01*
X122059814Y-77640186D01*
X121959886Y-77518422D01*
X121947222Y-77502991D01*
X121863557Y-77346466D01*
X121812037Y-77176627D01*
X121794641Y-77000000D01*
X121812037Y-76823373D01*
X121863557Y-76653534D01*
X121947222Y-76497009D01*
X121976552Y-76461271D01*
X122059814Y-76359814D01*
X122161271Y-76276552D01*
X122197009Y-76247222D01*
X122353534Y-76163557D01*
X122523373Y-76112037D01*
X122589557Y-76105519D01*
X122655740Y-76099000D01*
X122744260Y-76099000D01*
X122810443Y-76105519D01*
X122810443Y-76105519D01*
G37*
G36*
X125350443Y-76105519D02*
G01*
X125416627Y-76112037D01*
X125586466Y-76163557D01*
X125742991Y-76247222D01*
X125778729Y-76276552D01*
X125880186Y-76359814D01*
X125963448Y-76461271D01*
X125992778Y-76497009D01*
X126076443Y-76653534D01*
X126127963Y-76823373D01*
X126145359Y-77000000D01*
X126127963Y-77176627D01*
X126076443Y-77346466D01*
X125992778Y-77502991D01*
X125980114Y-77518422D01*
X125880186Y-77640186D01*
X125778729Y-77723448D01*
X125742991Y-77752778D01*
X125586466Y-77836443D01*
X125416627Y-77887963D01*
X125350442Y-77894482D01*
X125284260Y-77901000D01*
X125195740Y-77901000D01*
X125129558Y-77894482D01*
X125063373Y-77887963D01*
X124893534Y-77836443D01*
X124737009Y-77752778D01*
X124701271Y-77723448D01*
X124599814Y-77640186D01*
X124499886Y-77518422D01*
X124487222Y-77502991D01*
X124403557Y-77346466D01*
X124352037Y-77176627D01*
X124334641Y-77000000D01*
X124352037Y-76823373D01*
X124403557Y-76653534D01*
X124487222Y-76497009D01*
X124516552Y-76461271D01*
X124599814Y-76359814D01*
X124701271Y-76276552D01*
X124737009Y-76247222D01*
X124893534Y-76163557D01*
X125063373Y-76112037D01*
X125129557Y-76105519D01*
X125195740Y-76099000D01*
X125284260Y-76099000D01*
X125350443Y-76105519D01*
X125350443Y-76105519D01*
G37*
G36*
X127890443Y-76105519D02*
G01*
X127956627Y-76112037D01*
X128126466Y-76163557D01*
X128282991Y-76247222D01*
X128318729Y-76276552D01*
X128420186Y-76359814D01*
X128503448Y-76461271D01*
X128532778Y-76497009D01*
X128616443Y-76653534D01*
X128667963Y-76823373D01*
X128685359Y-77000000D01*
X128667963Y-77176627D01*
X128616443Y-77346466D01*
X128532778Y-77502991D01*
X128520114Y-77518422D01*
X128420186Y-77640186D01*
X128318729Y-77723448D01*
X128282991Y-77752778D01*
X128126466Y-77836443D01*
X127956627Y-77887963D01*
X127890442Y-77894482D01*
X127824260Y-77901000D01*
X127735740Y-77901000D01*
X127669558Y-77894482D01*
X127603373Y-77887963D01*
X127433534Y-77836443D01*
X127277009Y-77752778D01*
X127241271Y-77723448D01*
X127139814Y-77640186D01*
X127039886Y-77518422D01*
X127027222Y-77502991D01*
X126943557Y-77346466D01*
X126892037Y-77176627D01*
X126874641Y-77000000D01*
X126892037Y-76823373D01*
X126943557Y-76653534D01*
X127027222Y-76497009D01*
X127056552Y-76461271D01*
X127139814Y-76359814D01*
X127241271Y-76276552D01*
X127277009Y-76247222D01*
X127433534Y-76163557D01*
X127603373Y-76112037D01*
X127669557Y-76105519D01*
X127735740Y-76099000D01*
X127824260Y-76099000D01*
X127890443Y-76105519D01*
X127890443Y-76105519D01*
G37*
M02*
