M48
; DRILL file {KiCad (5.1.2)-1} date 2025/02/08 22:23:44
; FORMAT={-:-/ absolute / metric / decimal}
; #@! TF.CreationDate,2025-02-08T22:23:44+09:00
; #@! TF.GenerationSoftware,Kicad,Pcbnew,(5.1.2)-1
FMAT,2
METRIC
T1C0.400
T2C0.762
T3C1.000
T4C3.200
%
G90
G05
T1
X102.54Y-90.84
X107.35Y-78.99
X109.12Y-83.77
X109.36Y-91.29
X109.43Y-86.76
X110.64Y-96.98
X111.86Y-90.61
X113.13Y-91.59
X114.28Y-87.07
X115.28Y-91.52
X116.16Y-97.11
X116.68Y-89.77
X117.91Y-81.43
X119.213Y-83.719
X119.55Y-89.74
X119.58Y-84.87
X121.86Y-95.71
X122.92Y-87.99
X124.74Y-96.96
X125.39Y-87.71
X128.0Y-91.68
T2
X105.5Y-84.5
X105.5Y-86.5
X105.5Y-88.5
X105.5Y-90.5
T3
X110.0Y-77.0
X112.54Y-77.0
X115.08Y-77.0
X117.62Y-77.0
X120.16Y-77.0
X122.7Y-77.0
X125.24Y-77.0
X127.78Y-77.0
T4
X103.0Y-97.0
X103.0Y-78.0
T0
M30
